{"glyphs":{"0":{"ha":833,"x_min":12,"x_max":820,"o":"m 612 600 l 273 206 q 418 125 320 125 q 529 156 488 125 q 594 267 571 186 q 616 486 616 347 q 612 600 616 553 m 759 486 q 750 328 759 398 q 719 191 742 258 q 659 80 696 125 q 560 9 621 36 q 418 -17 499 -17 q 176 94 260 -17 l 83 -14 l 12 121 l 109 233 q 79 486 79 338 q 84 612 79 555 q 104 725 90 669 q 143 824 118 781 q 205 899 168 866 q 295 949 241 932 q 418 966 349 966 q 659 873 575 966 l 753 982 l 820 842 l 730 737 q 759 486 759 638 m 418 824 q 306 795 347 824 q 243 692 264 766 q 221 486 221 618 q 227 371 221 427 l 564 762 q 418 824 519 824 z "},"1":{"ha":833,"x_min":310,"x_max":580,"o":"m 580 966 l 580 0 l 437 0 l 437 767 l 350 713 l 310 762 l 479 966 l 580 966 z "},"2":{"ha":833,"x_min":88,"x_max":745,"o":"m 603 720 q 587 774 603 752 q 544 807 572 797 q 488 820 515 817 q 425 824 460 824 l 410 824 q 345 820 373 824 q 299 810 316 816 q 268 794 281 804 q 247 775 254 783 q 231 753 240 766 l 111 829 q 225 933 156 901 q 410 966 294 966 l 425 966 q 560 950 501 966 q 653 908 619 933 q 709 848 687 882 q 738 783 730 814 q 745 718 745 751 l 745 694 q 722 595 745 654 q 648 494 699 536 l 319 226 q 256 142 283 196 l 745 142 l 745 0 l 88 0 l 88 142 q 138 240 94 182 q 228 336 183 298 l 557 604 q 591 652 579 623 q 603 694 603 681 l 603 720 z "},"3":{"ha":833,"x_min":88,"x_max":745,"o":"m 562 737 q 425 824 562 824 l 410 824 q 298 804 344 824 q 238 760 252 785 l 116 832 q 235 932 155 898 q 410 966 316 966 l 425 966 q 538 951 488 966 q 618 912 588 936 q 668 857 648 888 q 696 797 688 826 q 704 737 704 767 l 704 712 q 701 687 704 703 q 692 649 699 672 q 670 599 686 625 q 632 552 654 573 q 745 313 745 475 l 745 300 q 727 175 745 232 q 670 75 708 119 q 570 7 632 31 q 425 -17 507 -17 l 410 -17 q 280 -1 338 -17 q 188 38 222 14 q 130 94 153 62 q 97 156 106 126 q 88 217 88 186 l 231 217 q 274 154 231 183 q 410 125 317 125 l 425 125 q 563 170 524 125 q 603 300 603 215 l 603 313 q 564 425 603 386 q 427 464 524 463 l 271 464 l 271 606 l 427 606 q 520 641 479 606 q 562 712 562 675 l 562 737 z "},"4":{"ha":833,"x_min":89,"x_max":787,"o":"m 541 690 l 285 365 l 541 365 l 541 690 m 89 346 l 576 966 l 683 966 l 683 365 l 787 365 l 787 222 l 683 222 l 683 0 l 541 0 l 541 222 l 89 222 l 89 346 z "},"5":{"ha":833,"x_min":41,"x_max":745,"o":"m 111 484 l 183 949 l 724 949 l 724 807 l 305 807 l 275 619 q 410 650 344 650 l 425 650 q 566 627 504 650 q 666 561 627 603 q 725 465 705 519 q 745 345 745 410 l 745 307 q 660 66 745 149 q 425 -17 574 -17 l 363 -17 q 171 29 263 -17 q 41 149 79 75 l 174 205 q 250 150 197 174 q 363 125 302 125 l 425 125 q 558 167 513 125 q 603 307 603 208 l 603 345 q 425 508 603 508 l 410 508 q 322 483 369 508 q 251 415 276 458 l 111 484 z "},"6":{"ha":833,"x_min":88,"x_max":745,"o":"m 593 783 q 425 824 570 824 l 410 824 q 322 807 359 824 q 266 763 285 791 q 239 704 247 734 q 231 640 231 674 l 231 605 q 410 650 307 650 l 425 650 q 659 570 572 650 q 745 332 745 490 l 745 294 q 727 178 745 232 q 671 79 708 123 q 571 9 634 35 q 425 -17 507 -17 l 410 -17 q 179 65 270 -17 q 88 294 88 148 l 88 640 q 175 874 88 783 q 410 966 262 966 l 425 966 q 484 965 458 966 q 546 958 509 964 q 610 941 582 951 q 666 910 637 930 q 712 861 694 889 l 593 783 m 231 332 l 231 294 q 241 225 231 255 q 270 176 252 195 q 311 146 287 158 q 359 130 335 134 q 410 125 382 125 l 425 125 q 603 294 603 125 l 603 332 q 558 468 603 429 q 425 508 514 508 l 410 508 q 336 497 368 508 q 284 469 304 486 q 253 429 265 452 q 235 381 240 405 q 231 332 231 358 z "},"7":{"ha":833,"x_min":88,"x_max":745,"o":"m 165 0 q 316 395 216 204 q 572 807 416 586 l 88 807 l 88 949 l 745 949 l 745 804 q 469 381 574 568 q 312 0 365 194 l 165 0 z "},"8":{"ha":833,"x_min":88,"x_max":745,"o":"m 231 307 l 231 274 q 248 203 231 233 q 292 157 264 173 q 349 133 319 141 q 410 125 378 125 l 425 125 q 555 166 507 125 q 603 274 603 208 l 603 307 q 564 421 603 379 q 427 464 525 463 l 408 464 q 231 307 231 463 m 704 751 l 704 719 q 637 552 704 624 q 745 307 745 478 l 745 274 q 725 163 745 216 q 666 71 705 111 q 565 7 627 31 q 425 -17 503 -17 l 410 -17 q 180 64 272 -17 q 88 274 88 145 l 88 307 q 201 549 88 468 q 132 720 132 622 l 132 751 q 155 845 132 804 q 212 908 178 886 q 286 944 245 930 q 357 962 328 958 q 410 966 387 966 l 425 966 q 538 951 488 966 q 619 914 589 937 q 669 862 649 891 q 696 805 689 832 q 704 751 704 777 m 562 741 q 556 764 562 751 q 538 790 551 776 q 496 814 525 805 q 425 824 467 824 l 410 824 q 314 799 353 824 q 274 741 274 774 l 274 720 q 311 641 274 675 q 408 606 347 606 l 427 606 q 525 641 488 606 q 562 719 562 675 l 562 741 z "},"9":{"ha":833,"x_min":88,"x_max":745,"o":"m 244 168 q 410 125 270 125 l 425 125 q 563 170 523 125 q 603 296 603 215 l 603 339 q 425 302 531 302 l 410 302 q 175 387 262 302 q 88 611 88 471 l 88 672 q 110 783 88 730 q 170 877 131 836 q 272 942 210 918 q 410 966 334 966 l 425 966 q 656 886 567 966 q 745 672 745 805 l 745 296 q 734 197 745 243 q 697 112 722 151 q 635 44 672 72 q 545 -1 598 16 q 425 -17 491 -17 l 410 -17 q 350 -16 376 -17 q 288 -8 324 -14 q 224 10 252 -1 q 168 42 196 21 q 122 93 140 64 l 244 168 m 603 611 l 603 672 q 587 747 603 715 q 543 794 570 778 q 486 817 515 810 q 425 824 457 824 l 410 824 q 276 781 322 824 q 231 672 231 739 l 231 611 q 273 490 231 536 q 410 445 315 445 l 425 445 q 563 484 522 445 q 603 611 603 523 z "}," ":{"ha":833,"x_min":0,"x_max":0,"o":""},"!":{"ha":833,"x_min":285,"x_max":549,"o":"m 549 40 q 511 -53 549 -14 q 416 -92 473 -92 q 323 -53 361 -92 q 285 40 285 -14 q 322 133 285 94 q 416 172 359 172 q 511 133 473 172 q 549 40 549 94 m 415 969 q 480 937 452 969 q 508 851 508 904 l 486 294 l 351 294 l 329 852 q 355 937 329 904 q 415 969 381 969 z "},"\"":{"ha":833,"x_min":133,"x_max":701,"o":"m 267 685 q 239 661 259 671 q 200 651 220 651 q 151 674 170 651 q 133 723 133 697 q 136 740 133 730 l 184 924 q 220 972 192 951 q 281 993 248 993 q 345 965 322 993 q 368 899 368 938 q 359 851 368 867 l 267 685 m 600 685 q 572 661 591 671 q 532 651 552 651 q 484 674 502 651 q 465 723 465 697 q 469 740 465 730 l 516 924 q 552 972 524 951 q 613 993 581 993 q 677 965 654 993 q 701 899 701 938 q 691 851 701 867 l 600 685 z "},"#":{"ha":833,"x_min":41,"x_max":798,"o":"m 319 353 l 474 353 l 519 589 l 365 589 l 319 353 m 250 0 q 104 0 250 0 l 146 211 l 41 211 l 68 353 l 174 353 l 220 589 l 114 589 l 142 731 l 248 731 l 283 916 l 429 916 l 393 731 l 547 731 l 583 916 l 728 916 l 692 731 l 798 731 l 770 589 l 665 589 l 619 353 l 724 353 l 696 211 l 591 211 l 550 0 q 405 0 550 0 l 446 211 l 291 211 l 250 0 z "},"$":{"ha":833,"x_min":27,"x_max":774,"o":"m 774 237 q 699 82 774 155 q 489 -11 624 9 l 489 -63 l 347 -63 l 347 -14 q 38 154 81 12 q 27 229 29 182 l 170 229 q 194 184 172 204 q 247 154 216 165 q 302 138 279 143 q 347 130 326 132 l 347 452 l 265 481 q 137 561 180 511 q 94 701 94 610 l 94 719 q 162 881 94 816 q 347 962 230 946 l 347 1013 l 489 1013 l 489 963 q 697 884 626 951 q 768 719 768 817 l 626 719 q 489 820 626 802 l 489 553 l 555 531 q 718 419 662 494 q 774 256 774 344 l 774 237 m 489 133 q 594 180 557 147 q 632 237 632 212 l 632 256 q 599 337 632 300 q 506 397 566 375 l 489 403 l 489 133 m 347 603 l 347 818 q 267 783 296 808 q 237 719 237 758 l 237 701 q 257 646 237 665 q 311 615 278 627 l 347 603 z "},"%":{"ha":833,"x_min":28,"x_max":806,"o":"m 214 842 q 173 818 189 842 q 157 774 157 795 q 173 729 157 755 q 214 704 189 704 q 258 725 244 704 q 272 774 272 747 q 257 823 272 804 q 214 842 243 842 m 345 908 q 371 880 345 908 q 397 774 397 852 q 345 639 397 695 q 216 583 292 583 q 85 638 138 583 q 32 774 32 694 q 85 908 32 853 q 216 963 138 963 q 345 908 294 963 m 621 252 q 580 228 596 252 q 564 184 564 205 q 580 139 564 165 q 621 114 596 114 q 665 135 651 114 q 679 184 679 157 q 664 233 679 214 q 621 252 650 252 m 752 318 q 778 290 752 318 q 804 184 804 262 q 751 49 804 105 q 623 -7 699 -7 q 492 48 545 -7 q 439 184 439 104 q 492 318 439 263 q 623 373 545 373 q 752 318 701 373 m 694 952 l 806 865 l 141 -2 l 28 85 l 694 952 z "},"&":{"ha":833,"x_min":27,"x_max":846,"o":"m 410 824 q 334 804 356 824 q 313 759 313 784 l 313 745 q 318 725 313 741 q 343 677 324 709 q 387 616 361 646 l 477 676 q 517 712 498 690 q 536 747 536 734 l 536 769 q 508 807 536 790 q 427 824 481 824 l 410 824 m 170 779 q 177 825 170 801 q 202 874 184 848 q 247 920 220 900 q 315 953 273 940 q 410 966 357 966 l 427 966 q 468 964 447 966 q 519 956 489 962 q 576 936 550 949 q 627 903 603 922 q 664 850 650 883 q 678 776 678 817 l 678 740 q 637 640 678 695 q 557 558 595 585 l 475 503 l 638 298 l 727 435 l 846 358 l 731 180 l 831 54 l 720 -35 l 642 63 q 405 -17 549 -17 l 389 -17 q 343 -15 368 -17 q 282 -6 319 -13 q 213 11 246 0 q 145 41 180 22 q 85 87 110 61 q 43 152 60 113 q 27 237 27 191 l 27 256 q 52 348 27 304 q 110 421 77 392 q 192 484 142 451 l 269 536 q 233 588 251 559 q 193 670 215 616 q 170 766 170 724 l 170 779 m 553 176 l 357 424 l 279 371 q 198 305 226 335 q 170 256 170 275 l 170 237 q 192 188 170 210 q 246 152 213 165 q 316 132 279 139 q 389 125 353 125 l 405 125 q 553 176 498 125 z "},"'":{"ha":833,"x_min":298,"x_max":536,"o":"m 432 685 q 405 661 425 671 q 365 651 386 651 q 316 674 334 651 q 298 723 298 697 l 298 740 l 351 924 q 385 972 357 951 q 448 993 414 993 q 512 965 488 993 q 536 899 536 937 q 526 851 536 868 l 432 685 z "},"(":{"ha":833,"x_min":245,"x_max":715,"o":"m 387 480 q 414 343 387 412 q 488 214 440 275 q 591 102 535 154 q 715 4 647 51 l 633 -113 q 480 11 549 -54 q 358 151 412 76 q 274 310 304 225 q 245 480 245 394 q 267 634 245 559 q 327 771 290 709 q 416 889 364 833 q 523 988 468 945 q 639 1065 578 1030 l 709 942 q 477 740 566 859 q 387 480 387 620 z "},")":{"ha":833,"x_min":119,"x_max":591,"o":"m 591 480 q 561 310 591 394 q 477 151 531 225 q 354 11 422 76 q 199 -113 285 -54 l 119 5 q 243 103 187 52 q 347 214 300 154 q 421 343 395 275 q 448 480 448 412 q 423 621 448 552 q 353 747 398 689 q 251 854 309 805 q 124 942 193 903 l 195 1065 q 312 987 256 1030 q 419 889 367 945 q 508 771 471 833 q 568 634 546 709 q 591 480 591 559 z "},"*":{"ha":833,"x_min":111,"x_max":724,"o":"m 621 249 q 634 207 634 231 q 605 149 634 170 q 563 136 587 136 q 505 165 526 136 l 417 286 l 329 165 q 271 136 308 136 q 229 149 248 136 q 200 207 200 170 q 214 249 200 231 l 302 370 l 159 416 q 124 441 138 422 q 111 484 111 460 q 114 506 111 496 q 140 541 121 528 q 182 555 159 555 q 204 551 195 555 l 346 505 l 346 654 q 367 705 346 684 q 417 726 388 726 q 467 705 446 726 q 488 654 488 684 l 488 505 l 630 551 q 652 555 640 555 q 694 541 675 555 q 720 506 713 528 q 724 484 724 496 q 710 441 724 460 q 675 416 696 422 l 532 370 l 621 249 z "},"+":{"ha":833,"x_min":159,"x_max":675,"o":"m 675 474 l 675 332 l 488 332 l 488 123 l 346 123 l 346 332 l 159 332 l 159 474 l 346 474 l 346 679 l 488 679 l 488 474 l 675 474 z "},",":{"ha":833,"x_min":285,"x_max":549,"o":"m 361 -50 q 310 -16 336 -42 q 285 38 285 9 q 322 131 285 92 q 416 171 359 171 q 511 132 473 171 q 549 38 549 93 q 317 -227 549 -202 l 304 -176 q 360 -143 334 -165 q 387 -96 387 -121 q 379 -68 387 -84 q 361 -50 371 -52 z "},"-":{"ha":833,"x_min":159,"x_max":675,"o":"m 675 474 l 675 332 l 159 332 l 159 474 l 675 474 z "},".":{"ha":833,"x_min":285,"x_max":549,"o":"m 467 -39 l 465 -39 l 465 -31 l 464 -31 l 464 -41 l 467 -41 l 467 -39 m 461 -39 l 460 -39 l 460 -35 l 461 -35 l 461 -39 m 419 -27 l 420 -27 l 420 -23 l 423 -23 l 423 -27 l 425 -27 l 425 -18 l 420 -18 l 419 -20 l 419 -27 m 421 -19 l 423 -19 l 423 -22 l 420 -22 l 420 -20 l 421 -19 m 429 -22 l 429 -27 l 430 -27 l 430 -22 l 429 -20 l 426 -20 l 426 -27 l 427 -27 l 427 -22 l 429 -22 m 434 -22 l 434 -27 l 435 -27 l 435 -22 l 435 -20 l 431 -20 l 431 -27 l 433 -27 l 433 -22 l 434 -22 m 438 -24 l 439 -24 l 439 -26 l 438 -26 l 438 -24 m 437 -27 l 441 -27 l 441 -22 l 440 -20 l 437 -20 l 437 -22 l 439 -22 l 439 -23 l 437 -23 l 437 -24 l 437 -26 l 437 -27 m 445 -35 l 445 -41 l 446 -41 l 446 -35 l 446 -34 l 444 -34 l 444 -31 l 442 -31 l 442 -41 l 444 -41 l 444 -35 l 445 -35 m 440 -35 l 437 -35 l 437 -33 l 441 -33 l 441 -31 l 436 -31 l 435 -33 l 435 -35 l 436 -37 l 439 -37 l 439 -39 l 435 -39 l 435 -41 l 440 -41 l 441 -39 l 441 -37 l 440 -35 m 450 -39 l 449 -39 l 449 -34 l 448 -34 l 448 -39 l 448 -41 l 452 -41 l 452 -34 l 450 -34 l 450 -39 m 454 -39 l 454 -35 l 456 -35 l 456 -39 l 454 -39 m 454 -34 l 453 -35 l 453 -39 l 454 -41 l 456 -41 l 456 -42 l 453 -42 l 453 -43 l 456 -43 l 457 -42 l 457 -34 l 454 -34 m 459 -34 l 458 -35 l 458 -39 l 459 -41 l 462 -41 l 463 -39 l 463 -35 l 462 -34 l 459 -34 m 549 40 q 511 -53 549 -14 q 416 -92 473 -92 q 323 -53 361 -92 q 285 40 285 -14 q 322 133 285 94 q 416 172 359 172 q 511 133 473 172 q 549 40 549 94 z "},"/":{"ha":833,"x_min":96,"x_max":737,"o":"m 611 1000 l 737 933 l 222 -50 l 96 16 l 611 1000 z "},":":{"ha":833,"x_min":285,"x_max":549,"o":"m 467 56 l 465 56 l 465 64 l 464 64 l 464 54 l 467 54 l 467 56 m 461 56 l 460 56 l 460 60 l 461 60 l 461 56 m 419 68 l 420 68 l 420 72 l 423 72 l 423 68 l 425 68 l 425 77 l 420 77 l 419 75 l 419 68 m 421 76 l 423 76 l 423 73 l 420 73 l 420 75 l 421 76 m 429 73 l 429 68 l 430 68 l 430 73 l 429 75 l 426 75 l 426 68 l 427 68 l 427 73 l 429 73 m 434 73 l 434 68 l 435 68 l 435 73 l 435 75 l 431 75 l 431 68 l 433 68 l 433 73 l 434 73 m 438 71 l 439 71 l 439 69 l 438 69 l 438 71 m 437 68 l 441 68 l 441 73 l 440 75 l 437 75 l 437 73 l 439 73 l 439 72 l 437 72 l 437 71 l 437 69 l 437 68 m 445 60 l 445 54 l 446 54 l 446 60 l 446 61 l 444 61 l 444 64 l 442 64 l 442 54 l 444 54 l 444 60 l 445 60 m 440 60 l 437 60 l 437 62 l 441 62 l 441 64 l 436 64 l 435 62 l 435 60 l 436 58 l 439 58 l 439 56 l 435 56 l 435 54 l 440 54 l 441 56 l 441 58 l 440 60 m 450 56 l 449 56 l 449 61 l 448 61 l 448 56 l 448 54 l 452 54 l 452 61 l 450 61 l 450 56 m 454 56 l 454 60 l 456 60 l 456 56 l 454 56 m 454 61 l 453 60 l 453 56 l 454 54 l 456 54 l 456 53 l 453 53 l 453 52 l 456 52 l 457 53 l 457 61 l 454 61 m 459 61 l 458 60 l 458 56 l 459 54 l 462 54 l 463 56 l 463 60 l 462 61 l 459 61 m 549 135 q 511 42 549 81 q 416 3 473 3 q 323 42 361 3 q 285 135 285 81 q 322 228 285 189 q 416 267 359 267 q 511 228 473 267 q 549 135 549 189 m 467 543 l 465 543 l 465 551 l 464 551 l 464 541 l 467 541 l 467 543 m 461 543 l 460 543 l 460 547 l 461 547 l 461 543 m 419 555 l 420 555 l 420 559 l 423 559 l 423 555 l 425 555 l 425 564 l 420 564 l 419 562 l 419 555 m 421 563 l 423 563 l 423 560 l 420 560 l 420 562 l 421 563 m 429 560 l 429 555 l 430 555 l 430 560 l 429 562 l 426 562 l 426 555 l 427 555 l 427 560 l 429 560 m 434 560 l 434 555 l 435 555 l 435 560 l 435 562 l 431 562 l 431 555 l 433 555 l 433 560 l 434 560 m 438 557 l 439 557 l 439 556 l 438 556 l 438 557 m 437 555 l 441 555 l 441 560 l 440 562 l 437 562 l 437 560 l 439 560 l 439 559 l 437 559 l 437 557 l 437 556 l 437 555 m 445 547 l 445 541 l 446 541 l 446 547 l 446 548 l 444 548 l 444 551 l 442 551 l 442 541 l 444 541 l 444 547 l 445 547 m 440 547 l 437 547 l 437 549 l 441 549 l 441 551 l 436 551 l 435 549 l 435 547 l 436 545 l 439 545 l 439 543 l 435 543 l 435 541 l 440 541 l 441 543 l 441 545 l 440 547 m 450 543 l 449 543 l 449 548 l 448 548 l 448 543 l 448 541 l 452 541 l 452 548 l 450 548 l 450 543 m 454 543 l 454 547 l 456 547 l 456 543 l 454 543 m 454 548 l 453 547 l 453 543 l 454 541 l 456 541 l 456 540 l 453 540 l 453 538 l 456 538 l 457 540 l 457 548 l 454 548 m 459 548 l 458 547 l 458 543 l 459 541 l 462 541 l 463 543 l 463 547 l 462 548 l 459 548 m 549 622 q 511 529 549 568 q 416 490 473 490 q 323 529 361 490 q 285 622 285 568 q 322 715 285 675 q 416 754 359 754 q 511 715 473 754 q 549 622 549 676 z "},";":{"ha":833,"x_min":285,"x_max":549,"o":"m 361 -50 q 310 -16 336 -42 q 285 38 285 9 q 322 131 285 92 q 416 171 359 171 q 511 132 473 171 q 549 38 549 93 q 317 -227 549 -202 l 304 -176 q 360 -143 334 -165 q 387 -96 387 -121 q 379 -68 387 -84 q 361 -50 371 -52 m 467 503 l 465 503 l 465 511 l 464 511 l 464 502 l 467 502 l 467 503 m 461 503 l 460 503 l 460 507 l 461 507 l 461 503 m 419 515 l 420 515 l 420 519 l 423 519 l 423 515 l 425 515 l 425 525 l 420 525 l 419 522 l 419 515 m 421 524 l 423 524 l 423 521 l 420 521 l 420 522 l 421 524 m 429 521 l 429 515 l 430 515 l 430 521 l 429 522 l 426 522 l 426 515 l 427 515 l 427 521 l 429 521 m 434 521 l 434 515 l 435 515 l 435 521 l 435 522 l 431 522 l 431 515 l 433 515 l 433 521 l 434 521 m 438 518 l 439 518 l 439 517 l 438 517 l 438 518 m 437 515 l 441 515 l 441 521 l 440 522 l 437 522 l 437 521 l 439 521 l 439 519 l 437 519 l 437 518 l 437 517 l 437 515 m 445 507 l 445 502 l 446 502 l 446 507 l 446 509 l 444 509 l 444 511 l 442 511 l 442 502 l 444 502 l 444 507 l 445 507 m 440 507 l 437 507 l 437 510 l 441 510 l 441 511 l 436 511 l 435 510 l 435 507 l 436 506 l 439 506 l 439 503 l 435 503 l 435 502 l 440 502 l 441 503 l 441 506 l 440 507 m 450 503 l 449 503 l 449 509 l 448 509 l 448 503 l 448 502 l 452 502 l 452 509 l 450 509 l 450 503 m 454 503 l 454 507 l 456 507 l 456 503 l 454 503 m 454 509 l 453 507 l 453 503 l 454 502 l 456 502 l 456 500 l 453 500 l 453 499 l 456 499 l 457 500 l 457 509 l 454 509 m 459 509 l 458 507 l 458 503 l 459 502 l 462 502 l 463 503 l 463 507 l 462 509 l 459 509 m 549 583 q 511 490 549 529 q 416 450 473 450 q 323 489 361 450 q 285 583 285 528 q 322 675 285 636 q 416 715 359 715 q 511 676 473 715 q 549 583 549 637 z "},"<":{"ha":833,"x_min":184,"x_max":650,"o":"m 184 481 l 650 786 l 650 616 l 325 403 l 650 189 l 650 19 l 184 325 l 184 481 z "},"=":{"ha":833,"x_min":159,"x_max":675,"o":"m 675 348 l 675 205 l 159 205 l 159 348 l 675 348 m 675 627 l 675 485 l 159 485 l 159 627 l 675 627 z "},">":{"ha":833,"x_min":184,"x_max":650,"o":"m 184 787 l 650 481 l 650 324 l 184 18 l 184 189 l 511 403 l 184 616 l 184 787 z "},"?":{"ha":833,"x_min":88,"x_max":745,"o":"m 410 824 q 366 822 388 824 q 309 812 343 819 q 253 785 275 804 q 231 737 231 766 l 88 740 q 97 800 89 771 q 126 860 104 828 q 182 914 148 891 q 275 951 216 937 q 410 966 334 966 l 425 966 q 659 908 573 966 q 745 739 745 850 l 745 694 q 722 585 745 631 q 649 497 698 539 l 530 395 q 489 328 492 361 l 489 239 l 347 239 l 347 328 q 350 354 347 338 q 361 396 353 370 q 390 450 370 421 q 438 503 410 479 l 557 606 q 603 694 603 646 l 603 739 q 553 804 603 783 q 425 824 504 824 l 410 824 m 531 6 q 498 -75 531 -41 q 416 -109 466 -109 q 335 -75 368 -109 q 302 6 302 -41 q 334 87 302 53 q 416 121 366 121 q 498 87 466 121 q 531 6 531 54 z "},"@":{"ha":833,"x_min":0,"x_max":805,"o":"m 659 739 q 597 806 659 787 q 418 824 536 824 q 217 729 292 824 q 142 486 142 634 q 166 326 142 397 q 231 212 191 255 q 318 148 271 170 q 418 125 366 125 q 632 164 578 125 l 716 49 q 650 17 690 31 q 571 -3 610 3 q 497 -13 532 -9 q 439 -16 462 -16 l 418 -17 q 261 17 336 -17 q 128 113 186 51 q 35 272 69 176 q 0 486 0 369 q 31 681 0 591 q 116 833 61 770 q 248 931 170 896 q 418 966 326 966 q 552 958 492 966 q 652 937 612 950 q 721 904 692 924 q 766 865 750 884 q 791 822 782 846 q 803 779 800 798 q 805 739 805 761 l 805 239 l 663 239 l 663 250 q 555 228 610 228 q 391 306 456 228 q 325 488 325 383 q 387 666 325 592 q 555 739 450 739 l 659 739 m 663 597 l 642 597 q 505 573 542 596 q 467 477 467 550 q 491 394 467 417 q 557 370 515 370 q 628 392 594 370 q 663 428 663 413 l 663 597 z "},"A":{"ha":833,"x_min":59,"x_max":777,"o":"m 302 300 l 534 300 l 418 665 l 302 300 m 59 0 l 364 966 l 471 966 l 777 0 l 629 0 l 579 158 l 257 158 l 207 0 l 59 0 z "},"B":{"ha":833,"x_min":88,"x_max":745,"o":"m 557 739 q 548 779 557 766 q 500 800 538 792 q 380 807 461 807 l 231 807 l 231 592 l 380 592 q 465 597 431 592 q 517 611 498 603 q 544 633 535 618 q 555 661 553 648 q 557 694 557 673 l 557 739 m 603 330 q 594 383 603 361 q 572 418 586 405 q 534 438 557 431 q 485 447 510 445 q 425 450 460 450 l 231 450 l 231 142 l 425 142 q 507 149 472 142 q 559 165 541 156 q 588 189 577 175 q 601 214 598 203 q 603 237 603 224 l 603 330 m 745 237 q 744 210 745 224 q 736 172 743 197 q 717 126 729 147 q 681 80 705 104 q 624 39 656 56 q 540 11 591 22 q 425 0 489 0 l 88 0 l 88 949 l 380 949 q 475 946 435 949 q 561 929 516 942 q 634 894 605 916 q 681 832 663 871 q 700 739 700 793 l 700 694 q 651 535 700 594 q 745 330 745 467 l 745 237 z "},"C":{"ha":833,"x_min":88,"x_max":746,"o":"m 442 -17 l 421 -17 q 360 -12 390 -17 q 297 7 331 -7 q 234 44 263 22 q 177 104 205 66 q 131 191 150 142 q 100 310 111 239 q 88 464 88 380 l 88 506 q 420 966 88 966 l 442 966 q 633 913 555 966 q 746 751 711 860 l 610 707 q 551 797 591 769 q 442 824 511 824 l 420 824 q 276 752 322 824 q 231 506 231 681 l 231 464 q 421 125 231 125 l 442 125 q 538 153 499 125 q 600 246 577 180 l 734 200 q 625 40 699 97 q 442 -17 552 -17 z "},"D":{"ha":833,"x_min":88,"x_max":745,"o":"m 408 807 l 231 807 l 231 142 l 408 142 q 444 145 427 142 q 480 155 460 147 q 517 175 501 162 q 550 211 534 188 q 578 266 567 235 q 596 343 589 297 q 603 448 603 390 l 603 513 q 582 692 603 628 q 520 782 562 756 q 408 807 479 807 m 745 513 l 745 448 q 733 303 745 369 q 702 193 722 238 q 655 112 683 147 q 598 57 627 77 q 534 23 568 36 q 470 5 500 9 q 408 0 439 0 l 88 0 l 88 949 l 408 949 q 547 927 487 949 q 644 867 606 905 q 704 773 681 829 q 736 654 728 716 q 745 513 745 591 z "},"E":{"ha":833,"x_min":88,"x_max":745,"o":"m 231 450 l 231 143 l 745 143 l 745 0 l 88 0 l 88 949 l 745 949 l 745 807 l 231 807 l 231 592 l 636 592 l 636 450 l 231 450 z "},"F":{"ha":833,"x_min":88,"x_max":745,"o":"m 231 450 l 231 -17 l 88 -17 l 88 949 l 745 949 l 745 807 l 231 807 l 231 592 l 636 592 l 636 450 l 231 450 z "},"G":{"ha":833,"x_min":88,"x_max":746,"o":"m 745 173 q 697 92 728 127 q 635 36 667 56 q 566 4 604 16 q 500 -13 529 -9 q 442 -17 471 -17 l 425 -17 q 364 -12 394 -17 q 299 8 334 -6 q 236 46 265 23 q 178 107 206 69 q 131 193 151 144 q 100 312 112 242 q 88 464 88 381 l 88 506 q 425 966 88 966 l 442 966 q 633 913 555 966 q 746 751 711 860 l 610 707 q 551 797 591 769 q 442 824 511 824 l 425 824 q 318 794 359 824 q 253 694 276 765 q 231 506 231 623 l 231 464 q 235 375 231 417 q 251 286 239 334 q 284 204 264 238 q 341 148 305 170 q 425 125 377 125 l 442 125 q 544 149 503 125 q 603 202 585 172 l 603 342 l 458 342 l 458 485 l 745 485 l 745 173 z "},"H":{"ha":833,"x_min":88,"x_max":745,"o":"m 231 0 l 88 0 l 88 949 l 231 949 l 231 557 l 603 557 l 603 949 l 745 949 l 745 0 l 603 0 l 603 415 l 231 415 l 231 0 z "},"I":{"ha":833,"x_min":156,"x_max":677,"o":"m 677 949 l 677 807 l 489 807 l 489 142 l 677 142 l 677 0 l 156 0 l 156 142 l 347 142 l 347 807 l 156 807 l 156 949 l 677 949 z "},"J":{"ha":833,"x_min":68,"x_max":745,"o":"m 745 949 l 745 807 l 608 807 l 608 250 q 535 58 608 132 q 342 -17 463 -17 l 327 -17 q 165 18 229 -17 q 68 127 102 52 l 198 185 q 218 154 207 165 q 257 134 230 142 q 327 125 284 125 l 342 125 q 404 137 378 125 q 442 167 429 148 q 460 207 455 186 q 466 250 466 227 l 466 807 l 274 807 l 274 949 l 745 949 z "},"K":{"ha":833,"x_min":87,"x_max":806,"o":"m 87 0 l 87 949 l 230 949 l 230 522 l 605 949 l 795 949 l 430 534 l 806 0 q 632 0 806 0 l 334 424 l 230 306 l 230 0 l 87 0 z "},"L":{"ha":833,"x_min":88,"x_max":745,"o":"m 231 143 l 745 143 l 745 0 l 88 0 l 88 949 l 231 949 l 231 143 z "},"M":{"ha":833,"x_min":45,"x_max":789,"o":"m 45 0 l 142 949 l 288 949 l 418 503 l 546 949 l 692 949 l 789 0 q 646 0 789 0 l 587 578 l 466 157 l 370 157 l 248 579 l 188 0 l 45 0 z "},"N":{"ha":833,"x_min":88,"x_max":745,"o":"m 231 0 l 88 0 l 88 949 l 210 949 l 603 308 l 603 949 l 745 949 l 745 0 q 625 0 745 0 l 231 643 l 231 0 z "},"O":{"ha":833,"x_min":88,"x_max":745,"o":"m 424 824 l 412 824 q 308 795 347 824 q 250 696 269 766 q 231 506 231 626 l 231 464 q 275 209 231 293 q 413 125 319 125 l 424 125 q 560 209 517 126 q 603 464 603 292 l 603 507 q 585 696 603 627 q 528 795 566 766 q 424 824 490 824 m 745 507 l 745 464 q 734 306 745 377 q 704 185 723 234 q 659 99 686 136 q 605 40 632 62 q 544 5 577 19 q 483 -13 511 -8 q 424 -17 454 -17 l 413 -17 q 354 -13 382 -17 q 292 5 326 -8 q 230 41 258 19 q 175 100 202 62 q 130 186 149 137 q 100 306 111 235 q 88 464 88 377 l 88 506 q 94 623 88 570 q 112 731 99 677 q 150 826 125 785 q 209 900 174 867 q 295 949 243 932 q 412 966 347 966 l 424 966 q 542 949 490 966 q 628 899 593 932 q 686 826 663 867 q 723 730 710 785 q 740 624 735 676 q 745 507 745 571 z "},"P":{"ha":833,"x_min":88,"x_max":745,"o":"m 425 537 q 536 553 496 537 q 589 595 576 568 q 603 669 603 623 l 603 719 q 591 769 603 752 q 540 797 579 787 q 425 807 501 807 l 231 807 l 231 537 l 425 537 m 745 719 l 745 669 q 668 467 745 539 q 425 395 591 395 l 231 395 l 231 0 l 88 0 l 88 949 l 425 949 q 579 935 517 949 q 679 890 642 920 q 730 818 715 859 q 745 719 745 777 z "},"Q":{"ha":833,"x_min":88,"x_max":745,"o":"m 733 -58 l 615 -138 l 522 -3 q 424 -17 477 -17 l 413 -17 q 354 -13 382 -17 q 292 5 326 -8 q 230 41 258 19 q 175 100 202 62 q 130 186 149 137 q 100 306 111 235 q 88 464 88 377 l 88 506 q 94 623 88 570 q 112 731 99 677 q 150 826 125 785 q 209 900 174 867 q 295 949 243 932 q 412 966 347 966 l 424 966 q 542 949 490 966 q 628 899 593 932 q 686 826 663 867 q 723 730 710 785 q 740 624 735 676 q 745 507 745 571 l 745 464 q 642 76 745 196 l 733 -58 m 424 824 l 412 824 q 308 795 347 824 q 250 696 269 766 q 231 506 231 626 l 231 464 q 275 209 231 293 q 413 125 319 125 l 424 125 l 435 125 l 359 236 l 477 316 l 555 201 q 603 464 603 283 l 603 507 q 585 696 603 627 q 528 795 566 766 q 424 824 490 824 z "},"R":{"ha":833,"x_min":88,"x_max":816,"o":"m 745 640 q 744 611 745 625 q 738 577 743 597 q 725 539 733 557 q 701 501 717 522 q 665 465 686 481 q 613 436 644 450 q 542 415 581 422 l 816 0 l 646 0 l 378 406 l 231 406 l 231 0 l 88 0 l 88 949 l 425 949 q 579 935 517 949 q 679 890 642 920 q 730 818 715 859 q 745 719 745 777 l 745 640 m 425 548 q 537 559 498 548 q 590 588 576 570 q 603 640 603 607 l 603 719 q 600 747 603 736 q 587 771 597 758 q 558 790 577 783 q 506 802 540 798 q 425 807 473 807 l 231 807 l 231 548 l 425 548 z "},"S":{"ha":833,"x_min":87,"x_max":745,"o":"m 410 125 l 425 125 q 486 132 458 125 q 532 150 514 139 q 563 174 549 161 q 584 201 577 187 q 596 225 591 214 q 602 243 601 236 l 603 250 l 603 269 q 512 384 603 352 l 271 469 q 207 506 234 481 q 166 555 180 530 q 144 611 152 580 q 134 661 136 642 q 132 701 132 681 l 132 719 q 152 806 132 762 q 205 885 171 849 q 295 944 240 921 q 416 966 351 966 l 422 966 q 613 928 536 966 q 724 819 690 890 l 595 758 q 422 824 563 824 l 416 824 q 349 812 378 824 q 305 783 320 801 q 282 749 290 766 q 275 719 275 732 l 275 701 q 289 638 275 668 q 318 603 304 608 l 561 518 q 626 487 595 506 q 684 439 656 468 q 729 366 712 410 q 745 269 745 322 l 745 250 q 736 187 745 220 q 704 117 727 154 q 646 51 680 80 q 553 2 611 22 q 425 -17 496 -17 l 410 -17 q 181 63 276 -17 q 87 250 87 142 l 229 250 q 280 166 229 206 q 410 125 332 125 z "},"T":{"ha":833,"x_min":88,"x_max":745,"o":"m 745 949 l 745 807 l 489 807 l 489 0 l 347 0 l 347 807 l 88 807 l 88 949 l 745 949 z "},"U":{"ha":833,"x_min":88,"x_max":745,"o":"m 231 269 q 276 166 231 207 q 410 125 321 125 l 425 125 q 558 166 513 125 q 603 269 603 206 l 603 949 l 745 949 l 745 269 q 724 160 745 212 q 664 70 703 109 q 563 6 625 30 q 425 -17 501 -17 l 410 -17 q 273 6 334 -17 q 171 69 211 30 q 110 160 131 109 q 88 269 88 212 l 88 949 l 231 949 l 231 269 z "},"V":{"ha":833,"x_min":41,"x_max":796,"o":"m 349 -17 l 41 949 l 191 949 l 418 237 l 646 949 l 796 949 l 486 -17 l 349 -17 z "},"W":{"ha":833,"x_min":50,"x_max":787,"o":"m 145 0 l 50 949 l 193 949 l 250 379 l 368 796 l 467 796 l 585 378 l 644 949 l 787 949 l 690 0 q 544 0 690 0 l 418 448 l 291 0 q 145 0 291 0 z "},"X":{"ha":833,"x_min":52,"x_max":785,"o":"m 52 0 l 335 475 l 52 949 l 218 949 l 418 614 l 618 949 l 785 949 l 501 475 l 785 0 q 618 0 785 0 l 418 336 l 218 0 q 52 0 218 0 z "},"Y":{"ha":833,"x_min":50,"x_max":787,"o":"m 347 -17 l 347 332 l 50 949 l 208 949 l 418 512 l 629 949 l 787 949 l 489 332 l 489 -17 l 347 -17 z "},"Z":{"ha":833,"x_min":88,"x_max":745,"o":"m 88 807 l 88 949 l 745 949 l 745 817 l 271 143 l 745 143 l 745 0 l 88 0 l 88 130 l 565 807 l 88 807 z "},"[":{"ha":833,"x_min":245,"x_max":605,"o":"m 387 932 l 387 17 l 605 17 l 605 -125 l 245 -125 l 245 1075 l 605 1075 l 605 932 l 387 932 z "},"\\":{"ha":833,"x_min":96,"x_max":737,"o":"m 96 933 l 222 1000 l 737 16 l 611 -50 l 96 933 z "},"]":{"ha":833,"x_min":210,"x_max":591,"o":"m 210 1075 l 591 1075 l 591 -125 l 210 -125 l 210 17 l 448 17 l 448 932 l 210 932 l 210 1075 z "},"^":{"ha":833,"x_min":140,"x_max":696,"o":"m 484 966 l 696 699 l 585 610 l 418 820 l 251 610 l 140 699 l 352 966 l 484 966 z "},"_":{"ha":833,"x_min":184,"x_max":650,"o":"m 650 9 l 650 -134 l 184 -134 l 184 9 l 650 9 z "},"`":{"ha":833,"x_min":250,"x_max":584,"o":"m 571 772 q 584 730 584 758 q 566 678 584 696 q 515 659 547 659 q 471 672 488 659 l 286 823 q 250 901 250 852 q 275 966 250 941 q 340 992 301 992 q 420 957 388 992 l 571 772 z "},"a":{"ha":833,"x_min":88,"x_max":745,"o":"m 88 237 q 96 287 88 261 q 127 342 104 313 q 184 395 150 372 q 277 434 218 418 q 410 450 336 450 l 603 450 l 603 459 q 597 497 603 480 q 573 531 591 513 q 518 559 556 549 q 425 569 481 569 l 410 569 q 243 514 277 569 l 121 587 q 410 711 196 711 l 425 711 q 559 694 500 711 q 652 652 618 677 q 708 591 686 626 q 738 524 730 556 q 745 459 745 492 l 745 0 l 603 0 l 603 33 q 425 -17 513 -17 l 410 -17 q 269 4 333 -17 q 168 58 205 25 q 109 128 130 91 q 88 201 88 165 l 88 237 m 410 307 q 332 300 366 307 q 279 283 297 292 q 250 262 262 273 q 234 244 237 250 q 231 235 231 238 l 231 201 q 238 171 231 184 q 265 148 246 158 q 320 131 284 137 q 410 125 357 125 l 425 125 q 488 134 458 125 q 538 155 518 142 q 574 181 559 168 q 596 206 589 195 q 603 221 603 216 l 603 307 l 410 307 z "},"b":{"ha":833,"x_min":88,"x_max":745,"o":"m 410 711 l 425 711 q 566 687 504 711 q 667 620 628 663 q 725 522 705 577 q 745 401 745 467 l 745 307 q 659 74 745 164 q 425 -17 573 -17 l 410 -17 q 231 37 312 -17 l 231 0 l 88 0 l 88 949 l 231 949 l 231 669 q 410 711 306 711 m 231 307 q 283 178 231 231 q 410 125 335 125 l 425 125 q 498 136 467 125 q 550 165 530 147 q 581 207 569 182 q 598 255 593 231 q 603 307 603 279 l 603 401 q 595 464 603 435 q 568 516 587 492 q 512 555 549 541 q 425 569 476 569 l 410 569 q 273 523 315 569 q 231 401 231 477 l 231 307 z "},"c":{"ha":833,"x_min":88,"x_max":726,"o":"m 595 507 q 425 568 562 568 l 410 568 q 325 555 360 568 q 269 519 289 543 q 240 466 249 495 q 231 401 231 437 l 231 294 q 282 172 231 218 q 410 125 333 125 l 425 125 q 532 142 486 125 q 595 193 578 159 l 724 131 q 612 21 690 60 q 425 -17 534 -17 l 410 -17 q 181 71 275 -17 q 88 294 88 159 l 88 401 q 172 624 88 536 q 410 711 256 711 l 425 711 q 619 674 550 711 q 726 564 688 637 l 595 507 z "},"d":{"ha":833,"x_min":88,"x_max":745,"o":"m 410 711 l 425 711 q 603 669 528 711 l 603 949 l 745 949 l 745 0 l 603 0 l 603 24 q 425 -17 530 -17 l 410 -17 q 248 22 321 -17 q 132 133 175 61 q 88 294 88 205 l 88 401 q 174 626 88 541 q 410 711 260 711 m 231 401 l 231 294 q 282 172 231 218 q 410 125 333 125 l 425 125 q 603 294 603 125 l 603 401 q 595 464 603 435 q 568 516 587 492 q 512 555 549 541 q 425 569 476 569 l 410 569 q 273 523 315 569 q 231 401 231 477 z "},"e":{"ha":833,"x_min":88,"x_max":745,"o":"m 231 307 l 231 256 q 241 214 231 235 q 271 172 251 192 q 327 138 291 151 q 410 125 363 125 l 425 125 q 544 146 503 125 q 597 197 585 168 l 730 145 q 622 26 701 70 q 425 -17 544 -17 l 410 -17 q 275 6 336 -17 q 173 68 213 30 q 111 156 133 107 q 88 256 88 205 l 88 440 q 174 635 88 559 q 410 711 260 711 l 425 711 q 660 635 575 711 q 745 440 745 559 l 745 307 l 231 307 m 231 450 l 603 450 q 585 508 601 484 q 542 545 568 532 q 486 564 515 558 q 425 569 458 569 l 410 569 q 349 564 378 569 q 294 545 321 558 q 250 508 267 532 q 231 450 233 484 z "},"f":{"ha":833,"x_min":159,"x_max":722,"o":"m 492 824 q 452 819 470 824 q 425 806 435 813 q 409 790 415 799 q 400 777 402 782 q 398 768 398 771 l 398 636 l 611 636 l 611 494 l 398 494 l 398 0 l 256 0 l 256 494 l 159 494 l 159 636 l 256 636 l 256 768 q 259 805 256 785 q 278 855 263 825 q 317 908 293 885 q 387 949 341 932 q 492 966 433 966 l 509 966 q 632 930 571 966 q 722 844 693 895 l 599 772 q 562 807 589 789 q 509 824 534 824 l 492 824 z "},"g":{"ha":833,"x_min":88,"x_max":763,"o":"m 146 313 q 88 449 88 379 l 88 478 q 104 558 88 522 q 143 618 119 594 q 200 660 168 642 q 264 687 233 677 q 326 702 294 696 q 377 710 358 708 q 410 711 396 711 l 425 711 q 624 658 533 711 q 763 701 686 701 l 763 559 q 728 553 744 559 q 745 478 745 516 l 745 449 q 721 348 745 393 q 662 276 697 303 q 581 232 626 250 q 497 207 536 214 q 425 200 458 200 l 410 200 q 264 231 338 200 q 250 210 258 224 q 243 189 243 195 l 243 146 q 253 127 243 141 q 273 107 264 113 q 410 130 340 130 l 425 130 q 565 109 501 130 q 666 54 628 87 q 725 -16 704 21 q 745 -86 745 -52 l 745 -100 q 715 -189 745 -149 q 645 -249 686 -228 q 555 -285 604 -271 q 474 -303 507 -299 q 425 -308 442 -308 l 410 -308 q 285 -294 341 -308 q 193 -257 229 -279 q 133 -207 157 -235 q 98 -152 109 -178 q 88 -100 88 -125 l 88 -86 q 142 31 88 -22 q 111 84 122 52 q 100 146 100 117 l 100 189 q 114 256 100 221 q 146 313 127 291 m 603 478 q 592 500 603 486 q 562 530 582 514 q 506 557 542 546 q 425 569 469 569 l 410 569 q 287 538 342 569 q 231 478 231 507 l 231 449 q 282 381 231 420 q 410 342 334 342 l 425 342 q 547 378 491 342 q 603 449 603 414 l 603 478 m 425 -165 q 516 -153 473 -165 q 581 -124 559 -140 q 603 -100 603 -109 l 603 -90 q 556 -34 603 -55 q 425 -12 510 -12 l 410 -12 q 345 -19 376 -12 q 294 -37 314 -26 q 259 -58 274 -47 q 237 -76 244 -68 q 231 -86 231 -84 l 231 -100 q 235 -108 231 -102 q 253 -125 240 -115 q 286 -144 267 -135 q 337 -159 304 -153 q 410 -165 370 -165 l 425 -165 z "},"h":{"ha":833,"x_min":88,"x_max":745,"o":"m 410 569 q 342 554 374 569 q 291 519 311 540 q 257 473 271 498 q 237 430 243 449 q 231 401 231 412 l 231 0 l 88 0 l 88 949 l 231 949 l 231 650 q 410 711 317 711 l 425 711 q 659 637 572 711 q 745 459 745 563 l 745 0 l 603 0 l 603 459 q 555 537 603 505 q 425 569 507 569 l 410 569 z "},"i":{"ha":833,"x_min":159,"x_max":674,"o":"m 207 694 l 489 694 l 489 142 l 674 142 l 674 0 l 159 0 l 159 142 l 347 142 l 347 552 l 207 552 l 207 694 m 347 804 q 331 819 347 804 q 316 880 316 835 q 347 955 316 924 q 422 986 377 986 q 498 955 467 986 q 529 880 529 924 q 498 804 529 835 q 422 773 467 773 q 347 804 377 773 z "},"j":{"ha":833,"x_min":204,"x_max":661,"o":"m 661 -47 q 601 -207 661 -143 q 431 -271 541 -271 q 204 -47 225 -271 l 347 -47 q 374 -105 351 -82 q 431 -128 398 -128 q 492 -105 467 -128 q 518 -47 518 -81 l 518 552 l 292 552 l 292 694 l 661 694 l 661 -47 m 469 804 q 454 819 469 804 q 439 880 439 835 q 469 955 439 924 q 545 986 500 986 q 621 955 589 986 q 652 880 652 924 q 621 804 652 835 q 545 773 589 773 q 469 804 500 773 z "},"k":{"ha":833,"x_min":88,"x_max":790,"o":"m 88 0 l 88 966 l 231 966 l 231 422 l 627 772 l 721 665 l 438 416 l 790 0 q 604 0 790 0 l 332 321 l 231 233 l 231 0 l 88 0 z "},"l":{"ha":833,"x_min":159,"x_max":674,"o":"m 159 949 l 489 949 l 489 142 l 674 142 l 674 0 l 159 0 l 159 142 l 347 142 l 347 807 l 159 807 l 159 949 z "},"m":{"ha":833,"x_min":45,"x_max":791,"o":"m 437 656 q 494 694 466 682 q 536 709 522 707 q 571 711 551 711 l 581 711 q 732 657 673 711 q 791 516 791 604 l 791 0 l 649 0 l 649 516 q 647 531 649 524 q 638 548 644 538 q 617 563 632 557 q 581 569 602 569 l 571 569 q 521 547 541 569 q 495 503 501 526 q 489 459 489 480 l 489 0 l 347 0 l 347 516 q 335 557 347 545 q 294 569 323 569 l 283 569 q 212 534 236 569 q 187 465 187 500 l 187 0 l 45 0 l 45 694 l 187 694 l 187 681 q 283 711 239 707 l 294 711 q 437 656 384 711 z "},"n":{"ha":833,"x_min":88,"x_max":745,"o":"m 603 453 q 425 569 603 569 l 410 569 q 319 533 363 569 q 253 456 276 498 q 231 389 231 415 l 231 0 l 88 0 l 88 694 l 231 694 l 231 646 q 410 711 315 711 l 425 711 q 661 641 576 711 q 745 453 745 571 l 745 0 l 603 0 l 603 453 z "},"o":{"ha":833,"x_min":88,"x_max":745,"o":"m 434 568 l 398 568 q 231 378 231 568 l 231 328 q 399 125 231 125 l 431 125 q 558 173 514 125 q 603 328 603 221 l 603 379 q 434 568 603 568 m 745 379 l 745 328 q 726 192 745 254 q 669 82 707 130 q 571 9 631 35 q 431 -17 510 -17 l 399 -17 q 262 10 322 -17 q 164 84 201 37 q 107 194 126 132 q 88 328 88 256 l 88 378 q 168 620 88 528 q 398 711 248 711 l 434 711 q 665 620 584 711 q 745 379 745 528 z "},"p":{"ha":833,"x_min":88,"x_max":745,"o":"m 231 -261 l 88 -261 l 88 694 l 231 694 l 231 669 q 410 711 306 711 l 425 711 q 566 687 504 711 q 667 620 628 663 q 725 522 705 577 q 745 401 745 467 l 745 307 q 659 74 745 164 q 425 -17 573 -17 l 410 -17 q 231 33 311 -17 l 231 -261 m 231 294 q 282 172 231 218 q 410 125 333 125 l 425 125 q 498 136 467 125 q 550 165 530 147 q 581 207 569 182 q 598 255 593 231 q 603 307 603 279 l 603 401 q 595 464 603 435 q 568 516 587 492 q 512 555 549 541 q 425 569 476 569 l 410 569 q 273 523 315 569 q 231 401 231 477 l 231 294 z "},"q":{"ha":833,"x_min":88,"x_max":745,"o":"m 410 711 l 425 711 q 603 669 528 711 l 603 694 l 745 694 l 745 -261 l 603 -261 l 603 28 q 425 -17 528 -17 l 410 -17 q 181 74 275 -17 q 88 300 88 165 l 88 401 q 173 631 88 550 q 410 711 258 711 m 231 401 l 231 300 q 282 174 231 223 q 410 125 334 125 l 425 125 q 498 136 467 125 q 550 165 530 147 q 581 207 569 182 q 598 255 593 231 q 603 307 603 279 l 603 401 q 595 464 603 435 q 568 516 587 492 q 512 555 549 541 q 425 569 476 569 l 410 569 q 273 523 315 569 q 231 401 231 477 z "},"r":{"ha":833,"x_min":88,"x_max":739,"o":"m 490 569 l 475 569 q 384 545 430 569 q 306 485 338 521 q 252 404 273 448 q 231 321 231 359 l 231 0 l 88 0 l 88 694 l 231 694 l 231 610 q 475 711 344 711 l 490 711 q 739 613 663 711 l 626 526 q 490 569 593 569 z "},"s":{"ha":833,"x_min":88,"x_max":745,"o":"m 425 125 q 553 142 504 125 q 603 185 603 159 l 603 214 q 592 237 603 223 q 564 256 581 251 l 262 334 q 194 366 224 345 q 148 413 164 387 q 124 465 132 439 q 116 515 116 491 l 116 522 q 123 571 116 547 q 149 621 130 595 q 200 667 169 648 q 285 699 231 686 q 410 711 339 711 l 425 711 q 594 675 512 711 q 718 574 676 640 l 597 498 q 533 547 580 524 q 425 569 486 569 l 410 569 q 349 565 376 569 q 305 555 321 561 q 278 543 289 549 q 262 531 267 536 q 258 522 258 526 l 258 515 q 268 492 258 507 q 296 473 277 478 l 599 394 q 703 327 661 378 q 745 214 745 275 l 745 185 q 720 92 745 132 q 648 29 694 52 q 547 -6 603 5 q 425 -17 491 -17 l 382 -17 q 303 -7 344 -17 q 225 22 263 2 q 156 71 186 43 q 107 139 125 98 q 88 224 88 179 l 231 224 q 236 201 231 215 q 256 169 242 187 q 303 138 271 151 q 382 125 336 125 l 425 125 z "},"t":{"ha":833,"x_min":89,"x_max":708,"o":"m 490 -17 l 475 -17 q 308 50 379 -17 q 236 213 236 117 l 259 542 l 89 542 l 89 684 l 270 684 l 291 966 l 433 966 l 412 684 l 611 684 l 611 542 l 402 542 l 378 221 l 378 213 q 407 152 378 179 q 475 125 435 125 l 490 125 q 547 145 525 125 q 578 186 568 165 l 708 127 q 626 27 683 71 q 490 -17 569 -17 z "},"u":{"ha":833,"x_min":88,"x_max":745,"o":"m 408 125 q 473 142 441 125 q 528 184 505 159 q 568 237 550 209 q 594 289 585 266 q 603 326 602 312 l 603 694 l 745 694 l 745 0 l 603 0 l 603 63 q 408 -17 507 -17 l 391 -17 q 254 5 313 -17 q 159 66 194 28 q 106 153 123 105 q 88 256 88 201 l 88 694 l 231 694 l 231 256 q 237 208 231 229 q 261 166 244 186 q 310 136 277 147 q 391 125 343 125 l 408 125 z "},"v":{"ha":833,"x_min":53,"x_max":783,"o":"m 372 -17 l 53 694 l 209 694 l 418 229 l 627 694 l 783 694 l 464 -17 l 372 -17 z "},"w":{"ha":833,"x_min":41,"x_max":795,"o":"m 147 0 l 41 694 l 185 694 l 242 320 l 365 623 l 471 623 l 593 320 l 651 694 l 795 694 l 688 0 q 570 0 688 0 l 418 374 l 266 0 q 147 0 266 0 z "},"x":{"ha":833,"x_min":47,"x_max":789,"o":"m 52 0 l 327 345 l 47 694 l 230 694 l 418 458 l 606 694 l 789 694 l 509 345 l 784 0 q 602 0 784 0 l 418 231 l 234 0 q 52 0 234 0 z "},"y":{"ha":833,"x_min":56,"x_max":799,"o":"m 799 694 l 528 -96 q 442 -224 500 -178 q 301 -271 383 -271 l 283 -271 q 183 -245 239 -271 q 84 -180 128 -220 l 71 -169 l 165 -62 l 185 -79 q 237 -114 209 -100 q 283 -128 264 -128 l 301 -128 q 393 -53 367 -128 l 435 72 l 56 694 l 223 694 l 495 247 l 648 694 l 799 694 z "},"z":{"ha":833,"x_min":87,"x_max":744,"o":"m 87 140 l 515 552 l 100 552 l 100 694 l 744 694 l 744 574 l 295 142 l 744 142 l 744 0 l 87 0 l 87 140 z "},"{":{"ha":833,"x_min":210,"x_max":624,"o":"m 254 557 q 304 576 281 557 q 327 637 327 594 l 327 828 q 395 1007 327 939 q 568 1075 463 1075 l 624 1075 l 624 932 l 568 932 q 497 907 525 932 q 469 828 469 882 l 469 637 q 408 481 469 547 q 469 296 469 404 l 469 124 q 497 42 469 68 q 568 17 525 17 l 624 17 l 624 -125 l 568 -125 q 395 -57 463 -125 q 327 124 327 12 l 327 296 q 325 322 327 307 q 316 360 323 337 q 294 399 310 384 q 254 415 277 415 l 210 415 l 210 557 l 254 557 z "},"|":{"ha":833,"x_min":346,"x_max":488,"o":"m 346 1002 l 488 1002 l 488 -52 l 346 -52 l 346 1002 z "},"}":{"ha":833,"x_min":210,"x_max":624,"o":"m 419 481 q 358 637 358 547 l 358 828 q 330 907 358 882 q 260 932 302 932 l 210 932 l 210 1075 l 260 1075 q 433 1007 365 1075 q 500 828 500 939 l 500 637 q 523 576 500 594 q 574 557 546 557 l 624 557 l 624 415 l 574 415 q 534 399 550 415 q 511 360 517 384 q 503 322 505 337 q 500 296 500 307 l 500 124 q 432 -57 500 12 q 260 -125 364 -125 l 210 -125 l 210 17 l 260 17 q 330 42 302 17 q 358 124 358 68 l 358 296 q 419 481 358 403 z "},"~":{"ha":833,"x_min":149,"x_max":688,"o":"m 315 713 l 324 713 q 392 705 370 713 q 448 669 414 696 l 494 630 q 511 621 505 621 l 520 621 q 527 624 523 622 q 539 637 531 627 q 551 661 548 647 l 688 624 q 622 519 671 559 q 520 479 573 479 l 511 479 q 454 491 486 479 q 403 520 422 504 l 354 562 q 330 571 343 571 l 323 571 q 304 559 315 571 q 283 525 294 547 l 149 574 q 156 589 151 579 q 176 622 160 598 q 210 665 193 646 q 256 698 228 683 q 315 713 285 713 z "}," ":{"ha":833,"x_min":0,"x_max":0,"o":""},"¡":{"ha":833,"x_min":288,"x_max":552,"o":"m 288 870 q 326 963 288 924 q 420 1002 363 1002 q 514 963 476 1002 q 552 870 552 924 q 515 777 552 817 q 420 738 478 738 q 326 777 363 738 q 288 870 288 816 m 422 -59 q 357 -26 385 -59 q 329 59 329 6 l 351 616 l 486 616 l 508 58 q 482 -26 508 6 q 422 -59 456 -59 z "},"¢":{"ha":833,"x_min":88,"x_max":726,"o":"m 724 112 q 685 56 714 80 q 621 18 655 31 q 545 -4 586 5 q 476 -15 504 -12 q 425 -17 448 -17 l 400 -17 l 379 -94 l 242 -56 l 262 15 q 135 126 182 53 q 88 294 88 200 l 88 401 q 174 626 88 541 q 410 711 260 711 l 454 711 l 481 810 l 618 772 l 595 690 q 682 640 647 676 q 726 576 716 603 l 595 519 q 588 531 591 527 q 577 541 585 535 q 557 552 570 547 l 439 124 q 595 174 572 126 l 724 112 m 300 157 l 415 570 l 410 570 q 273 524 315 570 q 231 401 231 477 l 231 294 q 300 157 231 204 z "},"£":{"ha":833,"x_min":14,"x_max":739,"o":"m 398 321 q 384 245 398 286 q 343 173 370 204 q 447 149 404 170 l 479 132 q 500 128 481 130 q 526 125 518 125 l 558 125 q 661 157 613 125 l 739 37 q 558 -17 655 -17 l 526 -17 q 463 -10 494 -17 q 414 5 431 -3 l 382 22 q 326 31 366 31 l 300 31 q 109 -5 174 31 l 83 -20 l 14 105 l 51 125 q 256 321 256 237 l 256 350 q 241 414 256 381 l 88 414 l 88 557 l 136 557 q 88 707 88 637 l 88 731 q 93 781 88 757 q 111 833 98 806 q 148 884 123 861 q 205 926 172 907 q 292 956 239 945 q 410 966 345 966 l 425 966 q 570 943 500 966 q 686 871 640 920 l 583 772 q 524 808 563 793 q 425 824 484 824 l 410 824 q 231 731 231 824 l 231 707 q 271 612 231 667 l 313 557 l 600 557 l 600 414 l 390 414 q 398 350 398 382 l 398 321 z "},"¤":{"ha":833,"x_min":90,"x_max":745,"o":"m 423 675 l 411 675 q 328 635 367 675 q 288 543 288 596 l 288 523 q 327 428 288 469 q 411 387 365 387 l 423 387 q 508 426 471 387 q 546 523 546 465 l 546 543 q 507 635 546 596 q 423 675 467 675 m 688 543 l 688 523 q 658 382 688 439 l 744 287 l 638 192 l 558 281 q 423 245 496 245 l 411 245 q 277 282 341 245 l 196 192 l 90 287 l 178 384 q 146 523 146 441 l 146 543 q 181 664 146 599 l 90 770 l 197 863 l 275 772 q 411 817 340 817 l 423 817 q 559 772 494 817 l 637 863 l 745 770 l 653 664 q 688 543 688 599 z "},"¥":{"ha":833,"x_min":50,"x_max":787,"o":"m 674 337 l 674 215 l 489 215 l 489 133 l 674 133 l 674 11 l 489 11 l 489 -109 l 347 -109 l 347 11 l 157 11 l 157 133 l 347 133 l 347 215 l 157 215 l 157 337 l 344 337 l 50 949 l 208 949 l 418 512 l 629 949 l 787 949 l 492 337 l 674 337 z "},"¦":{"ha":833,"x_min":346,"x_max":488,"o":"m 346 1002 l 488 1002 l 488 549 l 346 549 l 346 1002 m 346 403 l 488 403 l 488 -52 l 346 -52 l 346 403 z "},"§":{"ha":833,"x_min":88,"x_max":745,"o":"m 425 734 q 531 722 483 734 q 611 693 579 711 q 669 650 644 675 q 708 602 694 626 q 731 553 722 578 q 743 511 740 528 q 745 481 745 494 l 745 452 q 743 424 745 438 q 733 382 741 410 q 702 322 725 353 q 644 264 679 291 q 686 209 670 239 q 704 161 701 178 q 707 133 707 145 l 707 119 q 635 -60 707 16 q 451 -135 562 -135 l 436 -135 q 273 -83 349 -135 q 163 47 197 -32 l 293 104 q 352 35 311 62 q 436 7 393 7 l 451 7 q 534 41 503 7 q 565 119 565 74 l 565 133 q 522 176 565 157 q 425 196 478 196 l 410 196 q 271 219 334 196 q 169 278 208 241 q 109 360 130 315 q 88 452 88 405 l 88 481 q 89 499 88 490 q 96 535 90 509 q 112 582 102 560 q 146 629 123 604 q 200 673 169 655 q 133 817 133 736 l 133 831 q 163 949 133 892 q 251 1044 193 1006 q 384 1082 310 1082 l 399 1082 q 560 1031 485 1082 q 669 905 635 981 l 539 845 q 481 912 521 886 q 399 939 441 939 l 384 939 q 305 905 335 939 q 275 831 275 870 l 275 817 q 317 760 275 787 q 410 734 359 734 l 425 734 m 603 481 q 549 556 603 522 q 425 591 494 591 l 410 591 q 282 557 334 591 q 231 481 231 523 l 231 452 q 240 416 231 435 q 269 380 250 398 q 326 350 289 362 q 410 338 362 338 l 425 338 q 552 373 500 338 q 603 452 603 407 l 603 481 z "},"¨":{"ha":833,"x_min":144,"x_max":690,"o":"m 344 1035 q 314 961 344 993 q 244 930 285 930 q 174 961 203 930 q 144 1035 144 991 q 174 1108 144 1080 q 243 1136 204 1136 q 315 1106 286 1136 q 344 1035 344 1076 m 690 1035 q 660 960 690 990 q 591 930 630 930 q 522 961 551 930 q 492 1035 492 992 q 521 1107 492 1078 q 591 1136 551 1136 q 660 1107 630 1136 q 690 1035 690 1079 z "},"©":{"ha":833,"x_min":4,"x_max":829,"o":"m 580 248 q 563 231 574 240 q 533 211 552 222 q 485 191 514 199 q 423 183 456 183 q 267 245 326 183 q 208 398 208 307 q 266 552 208 491 q 423 613 325 613 q 580 550 520 613 l 477 452 q 422 471 460 471 q 371 453 392 471 q 350 398 350 435 q 367 347 350 368 q 423 326 385 326 q 477 345 457 326 l 580 248 m 417 692 q 301 666 355 692 q 211 598 247 640 q 154 504 174 556 q 133 398 133 452 q 153 297 133 347 q 209 210 173 248 q 299 149 245 172 q 417 125 353 125 q 536 150 481 125 q 626 213 591 174 q 681 300 661 252 q 701 398 701 348 q 667 536 701 470 q 567 648 633 603 q 417 692 500 692 m 829 399 q 800 251 829 323 q 717 122 770 178 q 586 31 665 65 q 417 -3 508 -3 q 249 30 327 -3 q 117 120 170 64 q 34 249 64 176 q 4 399 4 321 q 35 553 4 477 q 118 688 65 629 q 250 785 171 748 q 417 821 328 821 q 587 784 508 821 q 718 687 666 747 q 800 552 770 627 q 829 399 829 477 z "},"ª":{"ha":833,"x_min":159,"x_max":674,"o":"m 526 363 q 418 328 475 328 l 407 328 q 234 385 300 328 q 168 519 168 442 l 168 544 q 174 588 168 563 q 199 642 181 612 q 243 695 217 671 q 312 736 269 720 q 407 752 355 752 l 516 752 l 516 763 q 513 790 516 777 q 502 821 511 803 q 472 849 493 838 q 418 860 450 860 l 407 860 q 317 811 341 860 l 189 875 q 276 968 219 935 q 407 1002 333 1002 l 418 1002 q 594 934 530 1002 q 659 763 659 865 l 659 363 l 526 363 m 418 470 q 467 480 446 470 q 497 506 487 490 q 512 538 507 522 q 516 569 516 553 l 516 610 l 407 610 q 336 588 361 610 q 310 544 310 567 l 310 519 q 319 501 310 512 q 351 480 328 490 q 407 470 375 470 l 418 470 m 674 250 l 674 107 l 159 107 l 159 250 l 674 250 z "},"«":{"ha":833,"x_min":165,"x_max":673,"o":"m 288 66 l 165 273 l 165 367 l 288 575 l 410 502 l 307 328 l 307 313 l 410 139 l 288 66 m 551 66 l 429 273 l 429 367 l 551 574 l 673 503 l 571 328 l 571 313 l 673 138 l 551 66 z "},"¬":{"ha":833,"x_min":159,"x_max":664,"o":"m 159 474 l 664 474 l 664 159 l 522 159 l 522 332 l 159 332 l 159 474 z "},"­":{"ha":833,"x_min":267,"x_max":568,"o":"m 568 474 l 568 332 l 267 332 l 267 474 l 568 474 z "},"®":{"ha":833,"x_min":4,"x_max":829,"o":"m 417 692 q 301 666 355 692 q 211 598 247 640 q 154 504 174 556 q 133 398 133 452 q 153 297 133 347 q 209 210 173 248 q 299 149 245 172 q 417 125 353 125 q 536 150 481 125 q 626 213 591 174 q 681 300 661 252 q 701 398 701 348 q 667 536 701 470 q 567 648 633 603 q 417 692 500 692 m 829 399 q 800 251 829 323 q 717 122 770 178 q 586 31 665 65 q 417 -3 508 -3 q 249 30 327 -3 q 117 120 170 64 q 34 249 64 176 q 4 399 4 321 q 35 553 4 477 q 118 688 65 629 q 250 785 171 748 q 417 821 328 821 q 587 784 508 821 q 718 687 666 747 q 800 552 770 627 q 829 399 829 477 m 268 597 l 441 597 q 610 460 610 597 l 610 444 q 555 333 610 374 l 606 264 l 486 189 l 410 294 l 410 213 l 268 213 l 268 597 m 390 401 l 441 401 q 474 414 460 401 q 488 446 488 426 l 488 452 q 474 483 488 470 q 441 496 460 496 l 390 496 l 390 401 z "},"¯":{"ha":833,"x_min":260,"x_max":568,"o":"m 260 315 l 260 416 l 568 416 l 568 315 l 260 315 z "},"°":{"ha":833,"x_min":193,"x_max":641,"o":"m 641 751 q 573 592 641 657 q 417 527 506 527 q 257 591 320 527 q 193 751 193 655 q 257 912 193 850 q 417 975 321 975 q 574 912 507 975 q 641 751 641 850 m 498 751 q 477 810 498 787 q 417 833 455 833 q 358 809 380 833 q 336 751 336 786 q 357 691 336 712 q 417 669 379 669 q 478 692 457 669 q 498 751 498 715 z "},"±":{"ha":833,"x_min":159,"x_max":675,"o":"m 675 640 l 675 497 l 488 497 l 488 289 l 346 289 l 346 497 l 159 497 l 159 640 l 346 640 l 346 846 l 488 846 l 488 640 l 675 640 m 675 195 l 675 53 l 159 53 l 159 195 l 675 195 z "},"²":{"ha":833,"x_min":250,"x_max":628,"o":"m 256 868 l 273 894 q 431 982 331 982 l 439 982 q 577 935 526 982 q 628 812 628 888 l 628 799 q 613 735 628 773 q 568 662 599 697 l 437 517 q 427 506 430 509 l 597 506 l 597 363 l 250 363 l 250 469 q 283 545 259 503 q 333 614 308 587 l 466 762 q 477 779 473 770 q 484 792 482 787 q 486 799 486 798 l 486 812 q 485 822 486 819 q 480 830 484 825 q 466 837 476 835 q 439 840 455 840 l 431 840 q 379 794 405 840 l 256 868 z "},"³":{"ha":833,"x_min":217,"x_max":604,"o":"m 414 976 l 421 976 q 538 927 492 976 q 585 810 585 878 l 585 795 q 553 701 585 748 q 604 565 604 641 l 604 551 q 548 407 604 462 q 408 352 492 352 l 400 352 q 274 407 331 352 q 217 537 217 462 l 359 537 q 374 508 359 522 q 400 494 389 494 l 408 494 q 424 496 417 494 q 441 502 431 497 q 456 520 451 507 q 462 551 462 532 l 462 565 q 450 602 462 581 q 417 622 437 622 l 351 622 l 351 764 l 417 764 q 431 772 425 764 q 440 787 437 780 q 443 795 443 793 l 443 810 q 421 833 443 833 l 414 833 q 389 826 401 833 q 374 811 377 819 l 245 871 q 312 946 265 916 q 414 976 359 976 z "},"´":{"ha":833,"x_min":276,"x_max":559,"o":"m 383 806 l 276 884 l 452 1130 l 559 1053 l 383 806 z "},"µ":{"ha":833,"x_min":43,"x_max":760,"o":"m 745 87 q 746 62 745 71 q 749 45 746 54 q 760 31 753 35 l 677 -85 q 606 40 616 -42 q 425 -17 519 -17 l 410 -17 q 231 28 308 -17 l 231 -17 q 217 -163 231 -111 q 160 -277 204 -215 l 43 -195 q 80 -122 73 -153 q 88 -17 88 -91 l 88 694 l 231 694 l 231 275 q 276 169 231 212 q 410 125 322 125 l 425 125 q 507 144 471 125 q 563 188 544 162 q 593 237 583 214 q 603 275 603 260 l 603 694 l 745 694 l 745 87 z "},"¶":{"ha":833,"x_min":86,"x_max":745,"o":"m 347 432 q 237 452 284 434 q 162 497 190 470 q 116 562 134 524 q 92 637 98 600 q 86 715 86 673 l 86 758 q 110 864 86 814 q 173 948 134 915 q 259 1001 212 982 q 352 1021 306 1021 l 745 1021 l 745 0 l 603 0 l 603 878 l 489 878 l 489 0 l 347 0 l 347 432 z "},"·":{"ha":833,"x_min":285,"x_max":549,"o":"m 549 507 q 511 414 549 453 q 416 374 473 374 q 323 413 361 374 q 285 507 285 452 q 322 600 285 560 q 416 639 359 639 q 511 600 473 639 q 549 507 549 561 z "},"¸":{"ha":833,"x_min":275,"x_max":621,"o":"m 519 -183 q 436 -127 519 -127 l 382 -127 l 391 2 l 391 12 l 493 12 l 493 -2 l 490 -43 q 621 -183 621 -65 q 594 -267 621 -233 q 529 -315 568 -301 q 444 -330 490 -330 q 275 -265 349 -330 l 341 -201 q 444 -241 387 -241 q 499 -226 479 -241 q 519 -183 519 -211 z "},"¹":{"ha":833,"x_min":304,"x_max":541,"o":"m 541 966 l 541 429 l 398 429 l 398 802 l 337 780 l 304 824 l 445 966 l 541 966 z "},"º":{"ha":833,"x_min":145,"x_max":684,"o":"m 418 863 q 361 850 386 863 q 323 817 337 837 q 301 769 310 798 q 290 717 293 741 q 288 665 288 692 q 296 582 288 618 q 317 527 304 547 q 348 494 330 507 q 382 477 366 481 q 418 473 399 473 q 541 665 541 473 q 512 815 541 767 q 418 863 482 863 m 684 665 q 666 527 684 587 q 621 430 648 466 q 557 371 593 394 q 487 339 520 348 q 418 331 453 331 q 339 341 377 331 q 266 377 302 352 q 203 439 230 402 q 161 535 177 477 q 145 665 145 593 q 161 799 145 739 q 203 897 177 859 q 266 960 230 935 q 339 995 302 985 q 418 1006 377 1006 q 487 999 454 1006 q 557 969 519 991 q 621 911 594 947 q 666 811 648 875 q 684 665 684 748 m 674 250 l 674 107 l 159 107 l 159 250 l 674 250 z "},"»":{"ha":833,"x_min":161,"x_max":670,"o":"m 528 313 l 528 328 l 425 502 l 547 575 l 670 367 l 670 273 l 547 66 l 425 139 l 528 313 m 264 313 l 264 328 l 161 503 l 283 574 l 406 367 l 406 273 l 283 66 l 161 138 l 264 313 z "},"¼":{"ha":833,"x_min":21,"x_max":805,"o":"m 616 219 l 519 103 l 616 103 l 616 219 m 611 1000 l 737 933 l 222 -50 l 96 16 l 611 1000 m 405 127 l 608 387 l 745 387 l 745 117 l 805 117 l 805 -25 l 745 -25 l 745 -142 l 603 -142 l 603 -25 l 405 -25 l 405 127 m 263 1064 l 263 531 l 121 531 l 121 905 l 56 872 l 21 933 l 174 1064 l 263 1064 z "},"½":{"ha":833,"x_min":21,"x_max":817,"o":"m 395 284 q 424 320 410 305 q 462 354 437 335 q 522 384 487 373 q 600 394 557 394 l 610 394 q 643 392 623 394 q 695 379 663 389 q 753 353 727 369 q 798 304 779 336 q 817 229 817 272 l 817 216 q 817 206 817 212 q 812 182 816 199 q 801 148 808 165 q 778 110 793 132 q 741 71 762 88 l 571 -71 l 763 -71 l 763 -214 l 378 -214 l 378 -77 q 410 -30 385 -62 q 459 21 436 1 l 650 180 q 675 216 675 200 l 675 229 q 653 250 675 242 q 610 258 631 258 l 600 258 q 515 207 551 258 l 395 284 m 570 1000 l 696 933 l 182 -50 l 56 16 l 570 1000 m 263 1064 l 263 531 l 121 531 l 121 905 l 56 872 l 21 933 l 174 1064 l 263 1064 z "},"¾":{"ha":833,"x_min":7,"x_max":805,"o":"m 203 1111 l 211 1111 q 328 1062 281 1111 q 375 945 375 1013 l 375 930 q 342 836 375 883 q 394 700 394 776 l 394 686 q 338 542 394 597 q 197 487 281 487 l 190 487 q 64 542 121 487 q 7 672 7 597 l 149 672 q 164 643 149 657 q 190 629 178 629 l 197 629 q 214 631 207 629 q 231 637 221 632 q 246 655 241 642 q 252 686 252 667 l 252 700 q 239 736 252 716 q 207 757 227 757 l 141 757 l 141 899 l 207 899 q 221 907 214 899 q 230 922 227 915 q 233 930 233 928 l 233 945 q 211 968 233 968 l 203 968 q 179 961 191 968 q 163 946 167 954 l 35 1006 q 102 1081 55 1050 q 203 1111 149 1111 m 616 219 l 519 103 l 616 103 l 616 219 m 405 127 l 608 387 l 745 387 l 745 117 l 805 117 l 805 -25 l 745 -25 l 745 -142 l 603 -142 l 603 -25 l 405 -25 l 405 127 m 645 1000 l 771 933 l 256 -50 l 130 16 l 645 1000 z "},"¿":{"ha":833,"x_min":-120,"x_max":537,"o":"m 216 119 q 260 121 237 119 q 316 131 282 123 q 372 158 351 138 q 395 205 394 177 l 537 203 q 529 143 536 172 q 499 83 521 115 q 443 29 477 52 q 350 -9 409 6 q 216 -24 292 -24 l 200 -24 q -34 34 52 -24 q -120 204 -120 92 l -120 248 q -96 357 -120 311 q -24 446 -73 404 l 95 548 q 136 615 134 582 l 136 704 l 279 704 l 279 615 q 275 588 279 604 q 264 547 272 572 q 236 493 256 522 q 187 439 216 464 l 68 337 q 22 248 22 297 l 22 204 q 72 139 22 159 q 200 119 121 119 l 216 119 m 94 937 q 127 1017 94 983 q 209 1051 159 1051 q 290 1017 257 1051 q 323 937 323 983 q 291 856 323 890 q 209 822 259 822 q 127 856 159 822 q 94 937 94 889 z "},"À":{"ha":833,"x_min":59,"x_max":777,"o":"m 302 300 l 534 300 l 418 665 l 302 300 m 59 0 l 364 966 l 471 966 l 777 0 l 629 0 l 579 158 l 257 158 l 207 0 l 59 0 m 510 1029 l 415 937 l 240 1122 l 335 1213 l 510 1029 z "},"Á":{"ha":833,"x_min":59,"x_max":777,"o":"m 302 300 l 534 300 l 418 665 l 302 300 m 59 0 l 364 966 l 471 966 l 777 0 l 629 0 l 579 158 l 257 158 l 207 0 l 59 0 m 428 939 l 333 1030 l 508 1215 l 603 1123 l 428 939 z "},"Â":{"ha":833,"x_min":59,"x_max":777,"o":"m 302 300 l 534 300 l 418 665 l 302 300 m 59 0 l 364 966 l 471 966 l 777 0 l 629 0 l 579 158 l 257 158 l 207 0 l 59 0 m 477 1157 l 615 1081 l 566 991 l 418 1073 l 271 991 l 222 1081 l 360 1157 l 477 1157 z "},"Ã":{"ha":833,"x_min":59,"x_max":777,"o":"m 302 300 l 534 300 l 418 665 l 302 300 m 59 0 l 364 966 l 471 966 l 777 0 l 629 0 l 579 158 l 257 158 l 207 0 l 59 0 m 189 1106 q 316 1186 241 1186 l 327 1186 q 436 1149 394 1186 l 449 1137 q 466 1130 452 1135 q 490 1125 479 1125 l 502 1125 q 523 1134 511 1125 q 545 1158 535 1142 l 554 1175 l 642 1123 l 633 1107 q 579 1050 612 1071 q 524 1027 546 1029 l 502 1023 l 490 1023 q 429 1035 460 1023 q 381 1061 398 1046 l 369 1072 q 327 1084 355 1084 l 316 1084 q 274 1050 296 1084 l 262 1033 l 177 1088 l 189 1106 z "},"Ä":{"ha":833,"x_min":59,"x_max":777,"o":"m 302 300 l 534 300 l 418 665 l 302 300 m 59 0 l 364 966 l 471 966 l 777 0 l 629 0 l 579 158 l 257 158 l 207 0 l 59 0 m 345 1083 q 315 1009 345 1041 q 245 978 286 978 q 174 1009 204 978 q 144 1083 144 1040 q 175 1156 144 1128 q 244 1184 205 1184 q 315 1154 286 1184 q 345 1083 345 1124 m 691 1083 q 661 1008 691 1038 q 592 978 631 978 q 522 1009 552 978 q 492 1083 492 1040 q 522 1155 492 1126 q 592 1184 551 1184 q 661 1156 631 1184 q 691 1083 691 1127 z "},"Å":{"ha":833,"x_min":59,"x_max":777,"o":"m 302 300 l 534 300 l 418 665 l 302 300 m 59 0 l 364 966 l 471 966 l 777 0 l 629 0 l 579 158 l 257 158 l 207 0 l 59 0 m 315 913 q 295 933 315 913 q 275 1010 275 953 q 315 1107 275 1067 q 411 1147 354 1147 q 509 1107 468 1147 q 549 1010 549 1067 q 509 913 549 953 q 411 873 468 873 q 315 913 354 873 m 368 1054 q 359 1045 368 1054 q 350 1010 350 1036 q 368 966 350 984 q 412 947 386 947 q 456 966 437 947 q 475 1010 475 984 q 456 1054 475 1036 q 412 1072 437 1072 q 368 1054 386 1072 z "},"Æ":{"ha":833,"x_min":31,"x_max":745,"o":"m 414 578 l 414 807 q 356 766 366 807 l 312 578 l 414 578 m 31 0 l 218 799 q 256 875 228 843 q 316 922 283 907 q 373 943 349 937 q 414 949 398 949 l 745 949 l 745 807 l 556 807 l 556 578 l 674 578 l 674 435 l 556 435 l 556 142 l 745 142 l 745 0 l 414 0 l 414 435 l 279 435 l 178 0 l 31 0 z "},"Ç":{"ha":833,"x_min":88,"x_max":746,"o":"m 442 -17 l 421 -17 q 360 -12 390 -17 q 297 7 331 -7 q 234 44 263 22 q 177 104 205 66 q 131 191 150 142 q 100 310 111 239 q 88 464 88 380 l 88 506 q 420 966 88 966 l 442 966 q 633 913 555 966 q 746 751 711 860 l 610 707 q 551 797 591 769 q 442 824 511 824 l 420 824 q 276 752 322 824 q 231 506 231 681 l 231 464 q 421 125 231 125 l 442 125 q 538 153 499 125 q 600 246 577 180 l 734 200 q 625 40 699 97 q 442 -17 552 -17 m 526 -187 q 443 -131 526 -131 l 389 -131 l 398 -2 l 398 8 l 500 8 l 500 -6 l 497 -47 q 628 -187 628 -69 q 601 -271 628 -237 q 536 -319 574 -305 q 451 -334 497 -334 q 281 -269 356 -334 l 348 -205 q 451 -245 394 -245 q 506 -230 486 -245 q 526 -187 526 -215 z "},"È":{"ha":833,"x_min":88,"x_max":745,"o":"m 231 450 l 231 143 l 745 143 l 745 0 l 88 0 l 88 949 l 745 949 l 745 807 l 231 807 l 231 592 l 636 592 l 636 450 l 231 450 m 509 1030 l 414 939 l 239 1123 l 334 1215 l 509 1030 z "},"É":{"ha":833,"x_min":88,"x_max":745,"o":"m 231 450 l 231 143 l 745 143 l 745 0 l 88 0 l 88 949 l 745 949 l 745 807 l 231 807 l 231 592 l 636 592 l 636 450 l 231 450 m 427 939 l 332 1030 l 507 1215 l 602 1123 l 427 939 z "},"Ê":{"ha":833,"x_min":88,"x_max":745,"o":"m 231 450 l 231 143 l 745 143 l 745 0 l 88 0 l 88 949 l 745 949 l 745 807 l 231 807 l 231 592 l 636 592 l 636 450 l 231 450 m 476 1156 l 614 1080 l 566 991 l 418 1072 l 270 991 l 221 1080 l 359 1156 l 476 1156 z "},"Ë":{"ha":833,"x_min":88,"x_max":745,"o":"m 231 450 l 231 143 l 745 143 l 745 0 l 88 0 l 88 949 l 745 949 l 745 807 l 231 807 l 231 592 l 636 592 l 636 450 l 231 450 m 344 1081 q 314 1007 344 1039 q 244 976 285 976 q 174 1007 203 976 q 144 1081 144 1038 q 174 1154 144 1126 q 243 1182 204 1182 q 315 1152 286 1182 q 344 1081 344 1122 m 690 1081 q 660 1006 690 1036 q 591 976 630 976 q 522 1007 551 976 q 492 1081 492 1038 q 521 1153 492 1124 q 591 1182 551 1182 q 660 1154 630 1182 q 690 1081 690 1125 z "},"Ì":{"ha":833,"x_min":156,"x_max":677,"o":"m 677 949 l 677 807 l 489 807 l 489 142 l 677 142 l 677 0 l 156 0 l 156 142 l 347 142 l 347 807 l 156 807 l 156 949 l 677 949 m 510 1030 l 415 939 l 240 1123 l 335 1215 l 510 1030 z "},"Í":{"ha":833,"x_min":156,"x_max":677,"o":"m 677 949 l 677 807 l 489 807 l 489 142 l 677 142 l 677 0 l 156 0 l 156 142 l 347 142 l 347 807 l 156 807 l 156 949 l 677 949 m 428 939 l 333 1030 l 508 1215 l 603 1123 l 428 939 z "},"Î":{"ha":833,"x_min":156,"x_max":677,"o":"m 677 949 l 677 807 l 489 807 l 489 142 l 677 142 l 677 0 l 156 0 l 156 142 l 347 142 l 347 807 l 156 807 l 156 949 l 677 949 m 477 1156 l 615 1080 l 566 991 l 418 1072 l 271 991 l 222 1080 l 360 1156 l 477 1156 z "},"Ï":{"ha":833,"x_min":144,"x_max":691,"o":"m 677 949 l 677 807 l 489 807 l 489 142 l 677 142 l 677 0 l 156 0 l 156 142 l 347 142 l 347 807 l 156 807 l 156 949 l 677 949 m 345 1081 q 315 1007 345 1039 q 245 976 286 976 q 174 1007 204 976 q 144 1081 144 1038 q 175 1154 144 1126 q 244 1182 205 1182 q 315 1152 286 1182 q 345 1081 345 1122 m 691 1081 q 661 1006 691 1036 q 592 976 631 976 q 522 1007 552 976 q 492 1081 492 1038 q 522 1153 492 1124 q 592 1182 551 1182 q 661 1154 631 1182 q 691 1081 691 1125 z "},"Ð":{"ha":833,"x_min":54,"x_max":744,"o":"m 399 807 l 288 807 l 288 573 l 391 573 l 391 431 l 288 431 l 288 142 l 399 142 q 550 220 499 142 q 602 466 602 298 l 602 506 q 589 655 602 595 q 550 748 576 715 q 487 794 523 781 q 399 807 452 807 m 744 506 l 744 466 q 732 316 744 384 q 700 200 720 248 q 652 116 680 153 q 593 58 623 80 q 528 23 563 37 q 462 5 492 9 q 399 0 431 0 l 145 0 l 145 431 l 54 431 l 54 573 l 145 573 l 145 949 l 399 949 q 541 926 479 949 q 640 864 602 903 q 702 767 678 825 q 735 646 726 709 q 744 506 744 583 z "},"Ñ":{"ha":833,"x_min":88,"x_max":745,"o":"m 231 0 l 88 0 l 88 949 l 210 949 l 603 308 l 603 949 l 745 949 l 745 0 q 625 0 745 0 l 231 643 l 231 0 m 189 1111 q 316 1191 241 1191 l 327 1191 q 436 1154 394 1191 l 449 1142 q 466 1135 452 1139 q 490 1130 479 1130 l 502 1130 q 523 1138 511 1130 q 545 1163 535 1147 l 554 1179 l 642 1128 l 633 1112 q 579 1055 612 1076 q 524 1031 546 1034 l 502 1028 l 490 1028 q 429 1040 460 1028 q 381 1066 398 1051 l 369 1077 q 327 1089 355 1089 l 316 1089 q 274 1055 296 1089 l 262 1038 l 177 1093 l 189 1111 z "},"Ò":{"ha":833,"x_min":88,"x_max":745,"o":"m 424 824 l 412 824 q 308 795 347 824 q 250 696 269 766 q 231 506 231 626 l 231 464 q 275 209 231 293 q 413 125 319 125 l 424 125 q 560 209 517 126 q 603 464 603 292 l 603 507 q 585 696 603 627 q 528 795 566 766 q 424 824 490 824 m 745 507 l 745 464 q 734 306 745 377 q 704 185 723 234 q 659 99 686 136 q 605 40 632 62 q 544 5 577 19 q 483 -13 511 -8 q 424 -17 454 -17 l 413 -17 q 354 -13 382 -17 q 292 5 326 -8 q 230 41 258 19 q 175 100 202 62 q 130 186 149 137 q 100 306 111 235 q 88 464 88 377 l 88 506 q 94 623 88 570 q 112 731 99 677 q 150 826 125 785 q 209 900 174 867 q 295 949 243 932 q 412 966 347 966 l 424 966 q 542 949 490 966 q 628 899 593 932 q 686 826 663 867 q 723 730 710 785 q 740 624 735 676 q 745 507 745 571 m 513 1030 l 418 939 l 243 1123 l 338 1215 l 513 1030 z "},"Ó":{"ha":833,"x_min":88,"x_max":745,"o":"m 424 824 l 412 824 q 308 795 347 824 q 250 696 269 766 q 231 506 231 626 l 231 464 q 275 209 231 293 q 413 125 319 125 l 424 125 q 560 209 517 126 q 603 464 603 292 l 603 507 q 585 696 603 627 q 528 795 566 766 q 424 824 490 824 m 745 507 l 745 464 q 734 306 745 377 q 704 185 723 234 q 659 99 686 136 q 605 40 632 62 q 544 5 577 19 q 483 -13 511 -8 q 424 -17 454 -17 l 413 -17 q 354 -13 382 -17 q 292 5 326 -8 q 230 41 258 19 q 175 100 202 62 q 130 186 149 137 q 100 306 111 235 q 88 464 88 377 l 88 506 q 94 623 88 570 q 112 731 99 677 q 150 826 125 785 q 209 900 174 867 q 295 949 243 932 q 412 966 347 966 l 424 966 q 542 949 490 966 q 628 899 593 932 q 686 826 663 867 q 723 730 710 785 q 740 624 735 676 q 745 507 745 571 m 431 938 l 336 1029 l 511 1214 l 606 1122 l 431 938 z "},"Ô":{"ha":833,"x_min":88,"x_max":745,"o":"m 424 824 l 412 824 q 308 795 347 824 q 250 696 269 766 q 231 506 231 626 l 231 464 q 275 209 231 293 q 413 125 319 125 l 424 125 q 560 209 517 126 q 603 464 603 292 l 603 507 q 585 696 603 627 q 528 795 566 766 q 424 824 490 824 m 745 507 l 745 464 q 734 306 745 377 q 704 185 723 234 q 659 99 686 136 q 605 40 632 62 q 544 5 577 19 q 483 -13 511 -8 q 424 -17 454 -17 l 413 -17 q 354 -13 382 -17 q 292 5 326 -8 q 230 41 258 19 q 175 100 202 62 q 130 186 149 137 q 100 306 111 235 q 88 464 88 377 l 88 506 q 94 623 88 570 q 112 731 99 677 q 150 826 125 785 q 209 900 174 867 q 295 949 243 932 q 412 966 347 966 l 424 966 q 542 949 490 966 q 628 899 593 932 q 686 826 663 867 q 723 730 710 785 q 740 624 735 676 q 745 507 745 571 m 480 1156 l 618 1080 l 570 990 l 422 1072 l 274 990 l 225 1080 l 363 1156 l 480 1156 z "},"Õ":{"ha":833,"x_min":88,"x_max":745,"o":"m 424 824 l 412 824 q 308 795 347 824 q 250 696 269 766 q 231 506 231 626 l 231 464 q 275 209 231 293 q 413 125 319 125 l 424 125 q 560 209 517 126 q 603 464 603 292 l 603 507 q 585 696 603 627 q 528 795 566 766 q 424 824 490 824 m 745 507 l 745 464 q 734 306 745 377 q 704 185 723 234 q 659 99 686 136 q 605 40 632 62 q 544 5 577 19 q 483 -13 511 -8 q 424 -17 454 -17 l 413 -17 q 354 -13 382 -17 q 292 5 326 -8 q 230 41 258 19 q 175 100 202 62 q 130 186 149 137 q 100 306 111 235 q 88 464 88 377 l 88 506 q 94 623 88 570 q 112 731 99 677 q 150 826 125 785 q 209 900 174 867 q 295 949 243 932 q 412 966 347 966 l 424 966 q 542 949 490 966 q 628 899 593 932 q 686 826 663 867 q 723 730 710 785 q 740 624 735 676 q 745 507 745 571 m 193 1108 q 320 1188 245 1188 l 331 1188 q 440 1151 398 1188 l 453 1139 q 470 1132 456 1137 q 494 1127 484 1127 l 506 1127 q 527 1136 515 1127 q 549 1160 539 1144 l 558 1177 l 646 1125 l 637 1109 q 583 1052 616 1073 q 528 1029 550 1031 l 506 1025 l 494 1025 q 433 1037 464 1025 q 385 1063 402 1048 l 373 1074 q 331 1086 359 1086 l 320 1086 q 278 1053 300 1086 l 267 1035 l 181 1090 l 193 1108 z "},"Ö":{"ha":833,"x_min":88,"x_max":745,"o":"m 424 824 l 412 824 q 308 795 347 824 q 250 696 269 766 q 231 506 231 626 l 231 464 q 275 209 231 293 q 413 125 319 125 l 424 125 q 560 209 517 126 q 603 464 603 292 l 603 507 q 585 696 603 627 q 528 795 566 766 q 424 824 490 824 m 745 507 l 745 464 q 734 306 745 377 q 704 185 723 234 q 659 99 686 136 q 605 40 632 62 q 544 5 577 19 q 483 -13 511 -8 q 424 -17 454 -17 l 413 -17 q 354 -13 382 -17 q 292 5 326 -8 q 230 41 258 19 q 175 100 202 62 q 130 186 149 137 q 100 306 111 235 q 88 464 88 377 l 88 506 q 94 623 88 570 q 112 731 99 677 q 150 826 125 785 q 209 900 174 867 q 295 949 243 932 q 412 966 347 966 l 424 966 q 542 949 490 966 q 628 899 593 932 q 686 826 663 867 q 723 730 710 785 q 740 624 735 676 q 745 507 745 571 m 348 1080 q 318 1006 348 1038 q 248 975 289 975 q 178 1005 208 975 q 148 1080 148 1036 q 178 1153 148 1124 q 248 1181 208 1181 q 319 1151 290 1181 q 348 1080 348 1120 m 694 1080 q 664 1005 694 1035 q 595 975 634 975 q 526 1006 555 975 q 496 1080 496 1037 q 525 1152 496 1122 q 595 1181 555 1181 q 664 1152 634 1181 q 694 1080 694 1124 z "},"×":{"ha":833,"x_min":183,"x_max":652,"o":"m 549 656 l 652 558 l 515 414 l 652 269 l 549 171 l 418 310 l 286 171 l 183 269 l 319 414 l 183 558 l 286 656 l 418 517 l 549 656 z "},"Ø":{"ha":833,"x_min":12,"x_max":820,"o":"m 612 600 l 273 206 q 418 125 320 125 q 529 156 488 125 q 594 267 571 186 q 616 486 616 347 q 612 600 616 553 m 759 486 q 750 328 759 398 q 719 191 742 258 q 659 80 696 125 q 560 9 621 36 q 418 -17 499 -17 q 176 94 260 -17 l 83 -14 l 12 121 l 109 233 q 79 486 79 338 q 84 612 79 555 q 104 725 90 669 q 143 824 118 781 q 205 899 168 866 q 295 949 241 932 q 418 966 349 966 q 659 873 575 966 l 753 982 l 820 842 l 730 737 q 759 486 759 638 m 418 824 q 306 795 347 824 q 243 692 264 766 q 221 486 221 618 q 227 371 221 427 l 564 762 q 418 824 519 824 z "},"Ù":{"ha":833,"x_min":88,"x_max":745,"o":"m 231 269 q 276 166 231 207 q 410 125 321 125 l 425 125 q 558 166 513 125 q 603 269 603 206 l 603 949 l 745 949 l 745 269 q 724 160 745 212 q 664 70 703 109 q 563 6 625 30 q 425 -17 501 -17 l 410 -17 q 273 6 334 -17 q 171 69 211 30 q 110 160 131 109 q 88 269 88 212 l 88 949 l 231 949 l 231 269 m 509 1029 l 414 938 l 239 1122 l 334 1214 l 509 1029 z "},"Ú":{"ha":833,"x_min":88,"x_max":745,"o":"m 231 269 q 276 166 231 207 q 410 125 321 125 l 425 125 q 558 166 513 125 q 603 269 603 206 l 603 949 l 745 949 l 745 269 q 724 160 745 212 q 664 70 703 109 q 563 6 625 30 q 425 -17 501 -17 l 410 -17 q 273 6 334 -17 q 171 69 211 30 q 110 160 131 109 q 88 269 88 212 l 88 949 l 231 949 l 231 269 m 427 939 l 332 1030 l 507 1215 l 602 1123 l 427 939 z "},"Û":{"ha":833,"x_min":88,"x_max":745,"o":"m 231 269 q 276 166 231 207 q 410 125 321 125 l 425 125 q 558 166 513 125 q 603 269 603 206 l 603 949 l 745 949 l 745 269 q 724 160 745 212 q 664 70 703 109 q 563 6 625 30 q 425 -17 501 -17 l 410 -17 q 273 6 334 -17 q 171 69 211 30 q 110 160 131 109 q 88 269 88 212 l 88 949 l 231 949 l 231 269 m 476 1155 l 614 1079 l 566 989 l 418 1071 l 270 989 l 221 1079 l 359 1155 l 476 1155 z "},"Ü":{"ha":833,"x_min":88,"x_max":745,"o":"m 231 269 q 276 166 231 207 q 410 125 321 125 l 425 125 q 558 166 513 125 q 603 269 603 206 l 603 949 l 745 949 l 745 269 q 724 160 745 212 q 664 70 703 109 q 563 6 625 30 q 425 -17 501 -17 l 410 -17 q 273 6 334 -17 q 171 69 211 30 q 110 160 131 109 q 88 269 88 212 l 88 949 l 231 949 l 231 269 m 344 1080 q 314 1007 344 1038 q 244 975 285 975 q 174 1006 203 975 q 144 1080 144 1037 q 174 1153 144 1125 q 243 1181 204 1181 q 315 1151 286 1181 q 344 1080 344 1121 m 690 1080 q 660 1005 690 1036 q 591 975 630 975 q 522 1006 551 975 q 492 1080 492 1038 q 521 1152 492 1123 q 591 1181 551 1181 q 660 1153 630 1181 q 690 1080 690 1124 z "},"Ý":{"ha":833,"x_min":50,"x_max":787,"o":"m 347 -17 l 347 332 l 50 949 l 208 949 l 418 512 l 629 949 l 787 949 l 489 332 l 489 -17 l 347 -17 m 428 938 l 333 1029 l 508 1214 l 603 1122 l 428 938 z "},"Þ":{"ha":833,"x_min":88,"x_max":745,"o":"m 231 0 l 88 0 l 88 1044 l 231 1044 l 231 892 l 425 892 q 666 811 586 892 q 745 599 745 730 l 745 515 q 724 407 745 458 q 664 318 703 357 q 563 256 625 279 q 425 234 501 234 l 231 234 l 231 0 m 425 376 q 558 415 513 376 q 603 515 603 454 l 603 599 q 564 711 603 672 q 425 749 526 749 l 231 749 l 231 376 l 425 376 z "},"ß":{"ha":833,"x_min":88,"x_max":745,"o":"m 410 824 q 328 817 363 824 q 275 801 293 810 q 246 779 257 792 q 233 758 235 766 q 231 739 231 749 l 231 -263 l 88 -263 l 88 739 q 90 764 88 751 q 98 800 91 777 q 117 844 105 824 q 153 888 129 865 q 210 928 178 911 q 294 956 243 945 q 410 966 346 966 l 425 966 q 541 951 490 966 q 621 912 591 936 q 668 857 650 889 q 693 797 687 825 q 700 737 700 768 l 700 714 q 640 536 700 602 q 745 330 745 465 l 745 262 q 667 65 745 146 q 467 -17 589 -17 l 460 -17 q 297 26 362 -17 l 377 144 q 460 125 406 125 l 467 125 q 566 165 530 125 q 603 262 603 205 l 603 330 q 425 450 603 450 l 363 450 l 363 592 l 380 592 q 446 596 417 592 q 493 606 474 600 q 524 623 511 612 q 544 643 537 634 q 553 666 550 651 q 557 690 557 681 q 557 714 557 699 l 557 737 q 425 824 557 824 l 410 824 z "},"à":{"ha":833,"x_min":88,"x_max":745,"o":"m 88 237 q 96 287 88 261 q 127 342 104 313 q 184 395 150 372 q 277 434 218 418 q 410 450 336 450 l 603 450 l 603 459 q 597 497 603 480 q 573 531 591 513 q 518 559 556 549 q 425 569 481 569 l 410 569 q 243 514 277 569 l 121 587 q 410 711 196 711 l 425 711 q 559 694 500 711 q 652 652 618 677 q 708 591 686 626 q 738 524 730 556 q 745 459 745 492 l 745 0 l 603 0 l 603 33 q 425 -17 513 -17 l 410 -17 q 269 4 333 -17 q 168 58 205 25 q 109 128 130 91 q 88 201 88 165 l 88 237 m 410 307 q 332 300 366 307 q 279 283 297 292 q 250 262 262 273 q 234 244 237 250 q 231 235 231 238 l 231 201 q 238 171 231 184 q 265 148 246 158 q 320 131 284 137 q 410 125 357 125 l 425 125 q 488 134 458 125 q 538 155 518 142 q 574 181 559 168 q 596 206 589 195 q 603 221 603 216 l 603 307 l 410 307 m 523 801 l 428 709 l 253 894 l 348 985 l 523 801 z "},"á":{"ha":833,"x_min":88,"x_max":745,"o":"m 88 237 q 96 287 88 261 q 127 342 104 313 q 184 395 150 372 q 277 434 218 418 q 410 450 336 450 l 603 450 l 603 459 q 597 497 603 480 q 573 531 591 513 q 518 559 556 549 q 425 569 481 569 l 410 569 q 243 514 277 569 l 121 587 q 410 711 196 711 l 425 711 q 559 694 500 711 q 652 652 618 677 q 708 591 686 626 q 738 524 730 556 q 745 459 745 492 l 745 0 l 603 0 l 603 33 q 425 -17 513 -17 l 410 -17 q 269 4 333 -17 q 168 58 205 25 q 109 128 130 91 q 88 201 88 165 l 88 237 m 410 307 q 332 300 366 307 q 279 283 297 292 q 250 262 262 273 q 234 244 237 250 q 231 235 231 238 l 231 201 q 238 171 231 184 q 265 148 246 158 q 320 131 284 137 q 410 125 357 125 l 425 125 q 488 134 458 125 q 538 155 518 142 q 574 181 559 168 q 596 206 589 195 q 603 221 603 216 l 603 307 l 410 307 m 441 709 l 346 801 l 521 985 l 616 894 l 441 709 z "},"â":{"ha":833,"x_min":88,"x_max":745,"o":"m 88 237 q 96 287 88 261 q 127 342 104 313 q 184 395 150 372 q 277 434 218 418 q 410 450 336 450 l 603 450 l 603 459 q 597 497 603 480 q 573 531 591 513 q 518 559 556 549 q 425 569 481 569 l 410 569 q 243 514 277 569 l 121 587 q 410 711 196 711 l 425 711 q 559 694 500 711 q 652 652 618 677 q 708 591 686 626 q 738 524 730 556 q 745 459 745 492 l 745 0 l 603 0 l 603 33 q 425 -17 513 -17 l 410 -17 q 269 4 333 -17 q 168 58 205 25 q 109 128 130 91 q 88 201 88 165 l 88 237 m 410 307 q 332 300 366 307 q 279 283 297 292 q 250 262 262 273 q 234 244 237 250 q 231 235 231 238 l 231 201 q 238 171 231 184 q 265 148 246 158 q 320 131 284 137 q 410 125 357 125 l 425 125 q 488 134 458 125 q 538 155 518 142 q 574 181 559 168 q 596 206 589 195 q 603 221 603 216 l 603 307 l 410 307 m 490 954 l 628 878 l 579 789 l 431 870 l 283 789 l 235 878 l 373 954 l 490 954 z "},"ã":{"ha":833,"x_min":88,"x_max":745,"o":"m 88 237 q 96 287 88 261 q 127 342 104 313 q 184 395 150 372 q 277 434 218 418 q 410 450 336 450 l 603 450 l 603 459 q 597 497 603 480 q 573 531 591 513 q 518 559 556 549 q 425 569 481 569 l 410 569 q 243 514 277 569 l 121 587 q 410 711 196 711 l 425 711 q 559 694 500 711 q 652 652 618 677 q 708 591 686 626 q 738 524 730 556 q 745 459 745 492 l 745 0 l 603 0 l 603 33 q 425 -17 513 -17 l 410 -17 q 269 4 333 -17 q 168 58 205 25 q 109 128 130 91 q 88 201 88 165 l 88 237 m 410 307 q 332 300 366 307 q 279 283 297 292 q 250 262 262 273 q 234 244 237 250 q 231 235 231 238 l 231 201 q 238 171 231 184 q 265 148 246 158 q 320 131 284 137 q 410 125 357 125 l 425 125 q 488 134 458 125 q 538 155 518 142 q 574 181 559 168 q 596 206 589 195 q 603 221 603 216 l 603 307 l 410 307 m 202 895 q 330 975 254 975 l 340 975 q 450 938 408 975 l 463 926 q 479 919 465 924 q 504 914 493 914 l 515 914 q 536 923 524 914 q 558 947 549 931 l 568 964 l 656 912 l 646 896 q 592 839 625 860 q 537 816 559 819 l 515 812 l 504 812 q 443 824 473 812 q 395 850 412 836 l 382 861 q 340 873 369 873 l 330 873 q 288 840 309 873 l 276 822 l 191 878 l 202 895 z "},"ä":{"ha":833,"x_min":88,"x_max":745,"o":"m 88 237 q 96 287 88 261 q 127 342 104 313 q 184 395 150 372 q 277 434 218 418 q 410 450 336 450 l 603 450 l 603 459 q 597 497 603 480 q 573 531 591 513 q 518 559 556 549 q 425 569 481 569 l 410 569 q 243 514 277 569 l 121 587 q 410 711 196 711 l 425 711 q 559 694 500 711 q 652 652 618 677 q 708 591 686 626 q 738 524 730 556 q 745 459 745 492 l 745 0 l 603 0 l 603 33 q 425 -17 513 -17 l 410 -17 q 269 4 333 -17 q 168 58 205 25 q 109 128 130 91 q 88 201 88 165 l 88 237 m 410 307 q 332 300 366 307 q 279 283 297 292 q 250 262 262 273 q 234 244 237 250 q 231 235 231 238 l 231 201 q 238 171 231 184 q 265 148 246 158 q 320 131 284 137 q 410 125 357 125 l 425 125 q 488 134 458 125 q 538 155 518 142 q 574 181 559 168 q 596 206 589 195 q 603 221 603 216 l 603 307 l 410 307 m 357 852 q 328 778 357 810 q 258 747 298 747 q 187 778 217 747 q 157 852 157 808 q 188 925 157 897 q 257 953 218 953 q 328 923 299 953 q 357 852 357 892 m 704 852 q 674 777 704 807 q 605 747 644 747 q 535 778 565 747 q 505 852 505 809 q 535 924 505 895 q 605 953 564 953 q 674 924 644 953 q 704 852 704 896 z "},"å":{"ha":833,"x_min":88,"x_max":745,"o":"m 88 237 q 96 287 88 261 q 127 342 104 313 q 184 395 150 372 q 277 434 218 418 q 410 450 336 450 l 603 450 l 603 459 q 597 497 603 480 q 573 531 591 513 q 518 559 556 549 q 425 569 481 569 l 410 569 q 243 514 277 569 l 121 587 q 410 711 196 711 l 425 711 q 559 694 500 711 q 652 652 618 677 q 708 591 686 626 q 738 524 730 556 q 745 459 745 492 l 745 0 l 603 0 l 603 33 q 425 -17 513 -17 l 410 -17 q 269 4 333 -17 q 168 58 205 25 q 109 128 130 91 q 88 201 88 165 l 88 237 m 410 307 q 332 300 366 307 q 279 283 297 292 q 250 262 262 273 q 234 244 237 250 q 231 235 231 238 l 231 201 q 238 171 231 184 q 265 148 246 158 q 320 131 284 137 q 410 125 357 125 l 425 125 q 488 134 458 125 q 538 155 518 142 q 574 181 559 168 q 596 206 589 195 q 603 221 603 216 l 603 307 l 410 307 m 328 831 q 308 851 328 831 q 288 928 288 871 q 328 1025 288 985 q 424 1065 367 1065 q 522 1025 481 1065 q 562 928 562 985 q 522 831 562 871 q 424 791 481 791 q 328 831 367 791 m 381 972 q 372 963 381 972 q 363 928 363 954 q 381 884 363 903 q 425 866 399 866 q 469 884 450 866 q 488 928 488 903 q 469 972 488 954 q 425 991 450 991 q 381 972 399 991 z "},"æ":{"ha":833,"x_min":63,"x_max":773,"o":"m 283 569 q 227 550 248 569 q 205 513 205 532 l 63 513 q 69 553 63 530 q 92 604 75 576 q 132 656 108 633 q 195 695 155 680 q 283 711 235 711 q 418 664 361 711 q 552 711 474 711 q 640 697 601 711 q 704 662 680 684 q 744 614 728 641 q 767 562 760 587 q 773 513 773 536 l 773 295 l 489 295 l 489 182 q 506 143 489 161 q 552 125 522 125 q 571 127 561 125 q 595 135 581 130 q 619 152 609 140 q 631 182 629 164 l 773 182 l 773 180 q 711 43 773 102 q 552 -17 649 -17 q 417 31 474 -17 q 283 -17 360 -17 q 126 38 189 -17 q 63 182 63 94 l 63 231 q 68 277 63 253 q 87 330 73 300 q 125 383 102 360 q 191 421 149 406 q 288 437 233 437 l 347 437 l 347 513 q 327 551 347 532 q 283 569 307 569 m 489 437 l 631 437 l 631 513 q 609 553 631 536 q 552 569 587 569 q 509 550 528 569 q 489 513 489 532 l 489 437 m 205 182 q 214 152 205 164 q 237 134 223 140 q 262 127 251 129 q 283 125 273 125 q 330 144 313 125 q 347 182 347 162 l 347 295 l 288 295 q 223 275 241 295 q 205 231 205 254 l 205 182 z "},"ç":{"ha":833,"x_min":88,"x_max":726,"o":"m 595 507 q 425 568 562 568 l 410 568 q 325 555 360 568 q 269 519 289 543 q 240 466 249 495 q 231 401 231 437 l 231 294 q 282 172 231 218 q 410 125 333 125 l 425 125 q 532 142 486 125 q 595 193 578 159 l 724 131 q 612 21 690 60 q 425 -17 534 -17 l 410 -17 q 181 71 275 -17 q 88 294 88 159 l 88 401 q 172 624 88 536 q 410 711 256 711 l 425 711 q 619 674 550 711 q 726 564 688 637 l 595 507 m 530 -192 q 446 -136 530 -136 l 392 -136 l 401 -7 l 401 3 l 503 3 l 503 -11 l 500 -52 q 631 -192 631 -74 q 605 -276 631 -241 q 539 -324 578 -310 q 454 -338 500 -338 q 285 -274 359 -338 l 351 -210 q 454 -250 397 -250 q 509 -235 489 -250 q 530 -192 530 -220 z "},"è":{"ha":833,"x_min":88,"x_max":745,"o":"m 231 307 l 231 256 q 241 214 231 235 q 271 172 251 192 q 327 138 291 151 q 410 125 363 125 l 425 125 q 544 146 503 125 q 597 197 585 168 l 730 145 q 622 26 701 70 q 425 -17 544 -17 l 410 -17 q 275 6 336 -17 q 173 68 213 30 q 111 156 133 107 q 88 256 88 205 l 88 440 q 174 635 88 559 q 410 711 260 711 l 425 711 q 660 635 575 711 q 745 440 745 559 l 745 307 l 231 307 m 231 450 l 603 450 q 585 508 601 484 q 542 545 568 532 q 486 564 515 558 q 425 569 458 569 l 410 569 q 349 564 378 569 q 294 545 321 558 q 250 508 267 532 q 231 450 233 484 m 525 802 l 430 711 l 255 895 l 350 987 l 525 802 z "},"é":{"ha":833,"x_min":88,"x_max":745,"o":"m 231 307 l 231 256 q 241 214 231 235 q 271 172 251 192 q 327 138 291 151 q 410 125 363 125 l 425 125 q 544 146 503 125 q 597 197 585 168 l 730 145 q 622 26 701 70 q 425 -17 544 -17 l 410 -17 q 275 6 336 -17 q 173 68 213 30 q 111 156 133 107 q 88 256 88 205 l 88 440 q 174 635 88 559 q 410 711 260 711 l 425 711 q 660 635 575 711 q 745 440 745 559 l 745 307 l 231 307 m 231 450 l 603 450 q 585 508 601 484 q 542 545 568 532 q 486 564 515 558 q 425 569 458 569 l 410 569 q 349 564 378 569 q 294 545 321 558 q 250 508 267 532 q 231 450 233 484 m 443 711 l 348 802 l 523 987 l 618 895 l 443 711 z "},"ê":{"ha":833,"x_min":88,"x_max":745,"o":"m 231 307 l 231 256 q 241 214 231 235 q 271 172 251 192 q 327 138 291 151 q 410 125 363 125 l 425 125 q 544 146 503 125 q 597 197 585 168 l 730 145 q 622 26 701 70 q 425 -17 544 -17 l 410 -17 q 275 6 336 -17 q 173 68 213 30 q 111 156 133 107 q 88 256 88 205 l 88 440 q 174 635 88 559 q 410 711 260 711 l 425 711 q 660 635 575 711 q 745 440 745 559 l 745 307 l 231 307 m 231 450 l 603 450 q 585 508 601 484 q 542 545 568 532 q 486 564 515 558 q 425 569 458 569 l 410 569 q 349 564 378 569 q 294 545 321 558 q 250 508 267 532 q 231 450 233 484 m 492 956 l 630 880 l 581 790 l 433 871 l 286 790 l 237 880 l 375 956 l 492 956 z "},"ë":{"ha":833,"x_min":88,"x_max":745,"o":"m 231 307 l 231 256 q 241 214 231 235 q 271 172 251 192 q 327 138 291 151 q 410 125 363 125 l 425 125 q 544 146 503 125 q 597 197 585 168 l 730 145 q 622 26 701 70 q 425 -17 544 -17 l 410 -17 q 275 6 336 -17 q 173 68 213 30 q 111 156 133 107 q 88 256 88 205 l 88 440 q 174 635 88 559 q 410 711 260 711 l 425 711 q 660 635 575 711 q 745 440 745 559 l 745 307 l 231 307 m 231 450 l 603 450 q 585 508 601 484 q 542 545 568 532 q 486 564 515 558 q 425 569 458 569 l 410 569 q 349 564 378 569 q 294 545 321 558 q 250 508 267 532 q 231 450 233 484 m 359 853 q 330 780 359 811 q 260 748 300 748 q 189 779 219 748 q 159 853 159 810 q 190 926 159 898 q 259 954 220 954 q 330 924 301 954 q 359 853 359 894 m 706 853 q 676 778 706 808 q 607 748 646 748 q 537 779 567 748 q 507 853 507 810 q 537 925 507 896 q 607 954 566 954 q 676 926 646 954 q 706 853 706 897 z "},"ì":{"ha":833,"x_min":159,"x_max":674,"o":"m 207 694 l 489 694 l 489 142 l 674 142 l 674 0 l 159 0 l 159 142 l 347 142 l 347 552 l 207 552 l 207 694 m 515 801 l 420 709 l 245 894 l 340 985 l 515 801 z "},"í":{"ha":833,"x_min":159,"x_max":674,"o":"m 207 694 l 489 694 l 489 142 l 674 142 l 674 0 l 159 0 l 159 142 l 347 142 l 347 552 l 207 552 l 207 694 m 433 709 l 338 801 l 513 985 l 608 894 l 433 709 z "},"î":{"ha":833,"x_min":159,"x_max":674,"o":"m 207 694 l 489 694 l 489 142 l 674 142 l 674 0 l 159 0 l 159 142 l 347 142 l 347 552 l 207 552 l 207 694 m 482 954 l 621 878 l 572 789 l 424 870 l 276 789 l 227 878 l 366 954 l 482 954 z "},"ï":{"ha":833,"x_min":150,"x_max":696,"o":"m 207 694 l 489 694 l 489 142 l 674 142 l 674 0 l 159 0 l 159 142 l 347 142 l 347 552 l 207 552 l 207 694 m 350 852 q 320 778 350 810 q 250 747 291 747 q 180 778 210 747 q 150 852 150 808 q 180 925 150 897 q 250 953 210 953 q 321 923 292 953 q 350 852 350 892 m 696 852 q 666 777 696 807 q 597 747 636 747 q 528 778 557 747 q 498 852 498 809 q 527 924 498 895 q 597 953 557 953 q 666 924 636 953 q 696 852 696 896 z "},"ð":{"ha":833,"x_min":88,"x_max":745,"o":"m 410 631 l 425 631 q 513 621 473 631 q 410 741 471 680 l 182 672 l 141 809 l 285 852 q 203 913 259 873 l 285 1029 q 447 901 370 970 l 654 964 l 694 827 l 562 787 q 745 416 745 582 l 745 307 q 659 74 745 164 q 425 -17 573 -17 l 410 -17 q 182 77 276 -17 q 88 307 88 170 l 88 326 q 126 477 88 408 q 238 589 164 546 q 410 631 313 631 m 603 307 l 603 326 q 593 382 603 355 q 562 435 583 410 q 506 474 542 459 q 425 489 471 489 l 410 489 q 277 442 324 489 q 231 326 231 395 l 231 307 q 283 178 231 231 q 410 125 335 125 l 425 125 q 498 136 467 125 q 550 165 530 147 q 581 207 569 182 q 598 255 593 231 q 603 307 603 279 z "},"ñ":{"ha":833,"x_min":88,"x_max":745,"o":"m 603 453 q 425 569 603 569 l 410 569 q 319 533 363 569 q 253 456 276 498 q 231 389 231 415 l 231 0 l 88 0 l 88 694 l 231 694 l 231 646 q 410 711 315 711 l 425 711 q 661 641 576 711 q 745 453 745 571 l 745 0 l 603 0 l 603 453 m 189 897 q 316 977 241 977 l 327 977 q 436 939 394 977 l 449 928 q 466 920 452 925 q 490 916 479 916 l 502 916 q 523 924 511 916 q 545 949 535 932 l 554 965 l 642 913 l 633 897 q 579 841 612 861 q 524 817 546 820 l 502 814 l 490 814 q 429 825 460 814 q 381 852 398 837 l 369 863 q 327 875 355 875 l 316 875 q 274 841 296 875 l 262 823 l 177 879 l 189 897 z "},"ò":{"ha":833,"x_min":88,"x_max":745,"o":"m 434 568 l 398 568 q 231 378 231 568 l 231 328 q 399 125 231 125 l 431 125 q 558 173 514 125 q 603 328 603 221 l 603 379 q 434 568 603 568 m 745 379 l 745 328 q 726 192 745 254 q 669 82 707 130 q 571 9 631 35 q 431 -17 510 -17 l 399 -17 q 262 10 322 -17 q 164 84 201 37 q 107 194 126 132 q 88 328 88 256 l 88 378 q 168 620 88 528 q 398 711 248 711 l 434 711 q 665 620 584 711 q 745 379 745 528 m 517 801 l 422 709 l 247 894 l 342 985 l 517 801 z "},"ó":{"ha":833,"x_min":88,"x_max":745,"o":"m 434 568 l 398 568 q 231 378 231 568 l 231 328 q 399 125 231 125 l 431 125 q 558 173 514 125 q 603 328 603 221 l 603 379 q 434 568 603 568 m 745 379 l 745 328 q 726 192 745 254 q 669 82 707 130 q 571 9 631 35 q 431 -17 510 -17 l 399 -17 q 262 10 322 -17 q 164 84 201 37 q 107 194 126 132 q 88 328 88 256 l 88 378 q 168 620 88 528 q 398 711 248 711 l 434 711 q 665 620 584 711 q 745 379 745 528 m 435 709 l 340 801 l 515 985 l 610 894 l 435 709 z "},"ô":{"ha":833,"x_min":88,"x_max":745,"o":"m 434 568 l 398 568 q 231 378 231 568 l 231 328 q 399 125 231 125 l 431 125 q 558 173 514 125 q 603 328 603 221 l 603 379 q 434 568 603 568 m 745 379 l 745 328 q 726 192 745 254 q 669 82 707 130 q 571 9 631 35 q 431 -17 510 -17 l 399 -17 q 262 10 322 -17 q 164 84 201 37 q 107 194 126 132 q 88 328 88 256 l 88 378 q 168 620 88 528 q 398 711 248 711 l 434 711 q 665 620 584 711 q 745 379 745 528 m 484 954 l 623 878 l 574 789 l 426 870 l 278 789 l 229 878 l 368 954 l 484 954 z "},"õ":{"ha":833,"x_min":88,"x_max":745,"o":"m 434 568 l 398 568 q 231 378 231 568 l 231 328 q 399 125 231 125 l 431 125 q 558 173 514 125 q 603 328 603 221 l 603 379 q 434 568 603 568 m 745 379 l 745 328 q 726 192 745 254 q 669 82 707 130 q 571 9 631 35 q 431 -17 510 -17 l 399 -17 q 262 10 322 -17 q 164 84 201 37 q 107 194 126 132 q 88 328 88 256 l 88 378 q 168 620 88 528 q 398 711 248 711 l 434 711 q 665 620 584 711 q 745 379 745 528 m 195 895 q 323 975 248 975 l 334 975 q 443 938 401 975 l 456 926 q 472 919 458 924 q 497 914 486 914 l 509 914 q 530 923 517 914 q 551 947 542 931 l 561 964 l 649 912 l 640 896 q 586 839 618 860 q 530 816 553 819 l 509 812 l 497 812 q 436 824 467 812 q 388 850 405 836 l 376 861 q 334 873 362 873 l 323 873 q 281 840 302 873 l 269 822 l 184 878 l 195 895 z "},"ö":{"ha":833,"x_min":88,"x_max":745,"o":"m 434 568 l 398 568 q 231 378 231 568 l 231 328 q 399 125 231 125 l 431 125 q 558 173 514 125 q 603 328 603 221 l 603 379 q 434 568 603 568 m 745 379 l 745 328 q 726 192 745 254 q 669 82 707 130 q 571 9 631 35 q 431 -17 510 -17 l 399 -17 q 262 10 322 -17 q 164 84 201 37 q 107 194 126 132 q 88 328 88 256 l 88 378 q 168 620 88 528 q 398 711 248 711 l 434 711 q 665 620 584 711 q 745 379 745 528 m 352 852 q 322 778 352 810 q 252 747 293 747 q 182 778 212 747 q 152 852 152 808 q 182 925 152 897 q 252 953 212 953 q 323 923 294 953 q 352 852 352 892 m 699 852 q 668 777 699 807 q 600 747 638 747 q 530 778 559 747 q 500 852 500 809 q 529 924 500 895 q 600 953 559 953 q 668 924 638 953 q 699 852 699 896 z "},"÷":{"ha":833,"x_min":138,"x_max":696,"o":"m 696 478 l 696 336 l 138 336 l 138 478 l 696 478 m 493 720 q 507 704 493 720 q 522 651 522 688 q 493 583 522 614 q 424 551 465 551 q 352 584 380 551 q 323 651 323 616 q 352 719 323 686 q 424 751 380 751 q 493 720 465 751 m 522 165 q 494 96 522 126 q 424 65 466 65 q 353 96 382 65 q 323 165 323 127 q 353 231 323 200 q 424 262 382 262 q 494 232 466 262 q 522 165 522 201 z "},"ø":{"ha":833,"x_min":98,"x_max":734,"o":"m 617 759 l 734 677 l 677 595 q 730 379 730 513 l 730 321 q 714 185 730 245 q 669 89 697 126 q 603 27 642 52 q 522 -7 564 3 q 431 -17 479 -17 l 399 -17 q 271 7 327 -17 l 215 -73 l 98 8 l 161 98 q 106 321 106 183 l 106 378 q 122 511 106 452 q 165 606 138 569 q 231 667 193 643 q 310 701 269 691 q 398 711 351 711 l 434 711 q 567 686 509 711 l 617 759 m 434 568 l 398 568 q 284 525 320 568 q 248 378 248 482 l 248 321 q 256 236 248 269 l 482 564 q 434 568 461 568 m 581 456 l 355 130 q 399 125 376 125 l 431 125 q 550 169 513 125 q 588 321 588 212 l 588 379 q 581 456 588 425 z "},"ù":{"ha":833,"x_min":88,"x_max":745,"o":"m 408 125 q 473 142 441 125 q 528 184 505 159 q 568 237 550 209 q 594 289 585 266 q 603 326 602 312 l 603 694 l 745 694 l 745 0 l 603 0 l 603 63 q 408 -17 507 -17 l 391 -17 q 254 5 313 -17 q 159 66 194 28 q 106 153 123 105 q 88 256 88 201 l 88 694 l 231 694 l 231 256 q 237 208 231 229 q 261 166 244 186 q 310 136 277 147 q 391 125 343 125 l 408 125 m 509 801 l 414 709 l 239 894 l 334 985 l 509 801 z "},"ú":{"ha":833,"x_min":88,"x_max":745,"o":"m 408 125 q 473 142 441 125 q 528 184 505 159 q 568 237 550 209 q 594 289 585 266 q 603 326 602 312 l 603 694 l 745 694 l 745 0 l 603 0 l 603 63 q 408 -17 507 -17 l 391 -17 q 254 5 313 -17 q 159 66 194 28 q 106 153 123 105 q 88 256 88 201 l 88 694 l 231 694 l 231 256 q 237 208 231 229 q 261 166 244 186 q 310 136 277 147 q 391 125 343 125 l 408 125 m 427 709 l 332 801 l 507 985 l 602 894 l 427 709 z "},"û":{"ha":833,"x_min":88,"x_max":745,"o":"m 408 125 q 473 142 441 125 q 528 184 505 159 q 568 237 550 209 q 594 289 585 266 q 603 326 602 312 l 603 694 l 745 694 l 745 0 l 603 0 l 603 63 q 408 -17 507 -17 l 391 -17 q 254 5 313 -17 q 159 66 194 28 q 106 153 123 105 q 88 256 88 201 l 88 694 l 231 694 l 231 256 q 237 208 231 229 q 261 166 244 186 q 310 136 277 147 q 391 125 343 125 l 408 125 m 476 954 l 614 878 l 566 789 l 418 870 l 270 789 l 221 878 l 359 954 l 476 954 z "},"ü":{"ha":833,"x_min":88,"x_max":745,"o":"m 408 125 q 473 142 441 125 q 528 184 505 159 q 568 237 550 209 q 594 289 585 266 q 603 326 602 312 l 603 694 l 745 694 l 745 0 l 603 0 l 603 63 q 408 -17 507 -17 l 391 -17 q 254 5 313 -17 q 159 66 194 28 q 106 153 123 105 q 88 256 88 201 l 88 694 l 231 694 l 231 256 q 237 208 231 229 q 261 166 244 186 q 310 136 277 147 q 391 125 343 125 l 408 125 m 344 852 q 314 778 344 810 q 244 747 285 747 q 174 778 203 747 q 144 852 144 808 q 174 925 144 897 q 243 953 204 953 q 315 923 286 953 q 344 852 344 892 m 690 852 q 660 777 690 807 q 591 747 630 747 q 522 778 551 747 q 492 852 492 809 q 521 924 492 895 q 591 953 551 953 q 660 924 630 953 q 690 852 690 896 z "},"ý":{"ha":833,"x_min":56,"x_max":799,"o":"m 799 694 l 528 -96 q 442 -224 500 -178 q 301 -271 383 -271 l 283 -271 q 183 -245 239 -271 q 84 -180 128 -220 l 71 -169 l 165 -62 l 185 -79 q 237 -114 209 -100 q 283 -128 264 -128 l 301 -128 q 393 -53 367 -128 l 435 72 l 56 694 l 223 694 l 495 247 l 648 694 l 799 694 m 441 709 l 346 801 l 521 985 l 616 894 l 441 709 z "},"þ":{"ha":833,"x_min":88,"x_max":745,"o":"m 431 569 l 406 569 q 278 524 326 569 q 231 419 231 479 l 231 267 q 280 164 231 203 q 409 125 330 125 l 427 125 q 558 174 513 125 q 603 336 603 222 l 603 361 q 559 521 603 473 q 431 569 515 569 m 745 361 l 745 336 q 726 195 745 258 q 670 84 707 132 q 570 9 632 36 q 427 -17 509 -17 l 409 -17 q 231 27 309 -17 l 231 -261 l 88 -261 l 88 949 l 231 949 l 231 665 q 406 711 309 711 l 431 711 q 572 685 511 711 q 671 611 633 659 q 727 500 708 563 q 745 361 745 437 z "},"ÿ":{"ha":833,"x_min":56,"x_max":799,"o":"m 799 694 l 528 -96 q 442 -224 500 -178 q 301 -271 383 -271 l 283 -271 q 183 -245 239 -271 q 84 -180 128 -220 l 71 -169 l 165 -62 l 185 -79 q 237 -114 209 -100 q 283 -128 264 -128 l 301 -128 q 393 -53 367 -128 l 435 72 l 56 694 l 223 694 l 495 247 l 648 694 l 799 694 m 357 852 q 328 778 357 810 q 258 747 298 747 q 187 778 217 747 q 157 852 157 808 q 188 925 157 897 q 257 953 218 953 q 328 923 299 953 q 357 852 357 892 m 704 852 q 674 777 704 807 q 605 747 644 747 q 535 778 565 747 q 505 852 505 809 q 535 924 505 895 q 605 953 564 953 q 674 924 644 953 q 704 852 704 896 z "},"Ā":{"ha":833,"x_min":59,"x_max":777,"o":"m 302 300 l 534 300 l 418 665 l 302 300 m 59 0 l 364 966 l 471 966 l 777 0 l 629 0 l 579 158 l 257 158 l 207 0 l 59 0 m 264 1021 l 264 1123 l 571 1123 l 571 1021 l 264 1021 z "},"ā":{"ha":833,"x_min":88,"x_max":745,"o":"m 88 237 q 96 287 88 261 q 127 342 104 313 q 184 395 150 372 q 277 434 218 418 q 410 450 336 450 l 603 450 l 603 459 q 597 497 603 480 q 573 531 591 513 q 518 559 556 549 q 425 569 481 569 l 410 569 q 243 514 277 569 l 121 587 q 410 711 196 711 l 425 711 q 559 694 500 711 q 652 652 618 677 q 708 591 686 626 q 738 524 730 556 q 745 459 745 492 l 745 0 l 603 0 l 603 33 q 425 -17 513 -17 l 410 -17 q 269 4 333 -17 q 168 58 205 25 q 109 128 130 91 q 88 201 88 165 l 88 237 m 410 307 q 332 300 366 307 q 279 283 297 292 q 250 262 262 273 q 234 244 237 250 q 231 235 231 238 l 231 201 q 238 171 231 184 q 265 148 246 158 q 320 131 284 137 q 410 125 357 125 l 425 125 q 488 134 458 125 q 538 155 518 142 q 574 181 559 168 q 596 206 589 195 q 603 221 603 216 l 603 307 l 410 307 m 277 770 l 277 871 l 584 871 l 584 770 l 277 770 z "},"Ă":{"ha":833,"x_min":59,"x_max":777,"o":"m 302 300 l 534 300 l 418 665 l 302 300 m 59 0 l 364 966 l 471 966 l 777 0 l 629 0 l 579 158 l 257 158 l 207 0 l 59 0 m 416 998 q 309 1023 359 998 q 222 1093 258 1048 l 299 1158 q 416 1100 347 1100 q 536 1158 487 1100 l 614 1093 q 526 1024 576 1049 q 416 998 475 998 z "},"ă":{"ha":833,"x_min":88,"x_max":745,"o":"m 88 237 q 96 287 88 261 q 127 342 104 313 q 184 395 150 372 q 277 434 218 418 q 410 450 336 450 l 603 450 l 603 459 q 597 497 603 480 q 573 531 591 513 q 518 559 556 549 q 425 569 481 569 l 410 569 q 243 514 277 569 l 121 587 q 410 711 196 711 l 425 711 q 559 694 500 711 q 652 652 618 677 q 708 591 686 626 q 738 524 730 556 q 745 459 745 492 l 745 0 l 603 0 l 603 33 q 425 -17 513 -17 l 410 -17 q 269 4 333 -17 q 168 58 205 25 q 109 128 130 91 q 88 201 88 165 l 88 237 m 410 307 q 332 300 366 307 q 279 283 297 292 q 250 262 262 273 q 234 244 237 250 q 231 235 231 238 l 231 201 q 238 171 231 184 q 265 148 246 158 q 320 131 284 137 q 410 125 357 125 l 425 125 q 488 134 458 125 q 538 155 518 142 q 574 181 559 168 q 596 206 589 195 q 603 221 603 216 l 603 307 l 410 307 m 429 793 q 322 818 372 793 q 235 887 271 843 l 312 952 q 429 895 360 895 q 549 953 500 895 l 627 888 q 538 818 589 844 q 429 793 488 793 z "},"Ą":{"ha":833,"x_min":59,"x_max":794,"o":"m 302 300 l 534 300 l 418 665 l 302 300 m 59 0 l 364 966 l 471 966 l 777 0 l 629 0 l 579 158 l 257 158 l 207 0 l 59 0 m 775 -248 q 685 -281 735 -281 q 588 -241 628 -281 q 547 -143 547 -200 q 586 -47 547 -87 l 657 24 l 657 52 l 759 52 l 759 -18 l 659 -117 q 649 -143 649 -127 q 660 -169 649 -158 q 685 -180 670 -180 q 709 -171 698 -180 l 726 -155 l 794 -231 l 775 -248 z "},"ą":{"ha":833,"x_min":88,"x_max":781,"o":"m 88 237 q 96 287 88 261 q 127 342 104 313 q 184 395 150 372 q 277 434 218 418 q 410 450 336 450 l 603 450 l 603 459 q 597 497 603 480 q 573 531 591 513 q 518 559 556 549 q 425 569 481 569 l 410 569 q 243 514 277 569 l 121 587 q 410 711 196 711 l 425 711 q 559 694 500 711 q 652 652 618 677 q 708 591 686 626 q 738 524 730 556 q 745 459 745 492 l 745 0 l 603 0 l 603 33 q 425 -17 513 -17 l 410 -17 q 269 4 333 -17 q 168 58 205 25 q 109 128 130 91 q 88 201 88 165 l 88 237 m 410 307 q 332 300 366 307 q 279 283 297 292 q 250 262 262 273 q 234 244 237 250 q 231 235 231 238 l 231 201 q 238 171 231 184 q 265 148 246 158 q 320 131 284 137 q 410 125 357 125 l 425 125 q 488 134 458 125 q 538 155 518 142 q 574 181 559 168 q 596 206 589 195 q 603 221 603 216 l 603 307 l 410 307 m 762 -254 q 671 -287 722 -287 q 574 -246 614 -287 q 534 -149 534 -205 q 572 -52 534 -93 l 644 19 l 644 47 l 745 47 l 745 -23 l 646 -123 q 635 -149 635 -133 q 646 -174 635 -163 q 671 -185 656 -185 q 695 -176 684 -185 l 713 -161 l 781 -237 l 762 -254 z "},"Ć":{"ha":833,"x_min":88,"x_max":746,"o":"m 442 -17 l 421 -17 q 360 -12 390 -17 q 297 7 331 -7 q 234 44 263 22 q 177 104 205 66 q 131 191 150 142 q 100 310 111 239 q 88 464 88 380 l 88 506 q 420 966 88 966 l 442 966 q 633 913 555 966 q 746 751 711 860 l 610 707 q 551 797 591 769 q 442 824 511 824 l 420 824 q 276 752 322 824 q 231 506 231 681 l 231 464 q 421 125 231 125 l 442 125 q 538 153 499 125 q 600 246 577 180 l 734 200 q 625 40 699 97 q 442 -17 552 -17 m 454 939 l 359 1031 l 534 1215 l 629 1124 l 454 939 z "},"ć":{"ha":833,"x_min":88,"x_max":726,"o":"m 595 507 q 425 568 562 568 l 410 568 q 325 555 360 568 q 269 519 289 543 q 240 466 249 495 q 231 401 231 437 l 231 294 q 282 172 231 218 q 410 125 333 125 l 425 125 q 532 142 486 125 q 595 193 578 159 l 724 131 q 612 21 690 60 q 425 -17 534 -17 l 410 -17 q 181 71 275 -17 q 88 294 88 159 l 88 401 q 172 624 88 536 q 410 711 256 711 l 425 711 q 619 674 550 711 q 726 564 688 637 l 595 507 m 461 709 l 366 801 l 541 985 l 636 894 l 461 709 z "},"Ĉ":{"ha":833,"x_min":88,"x_max":746,"o":"m 442 -17 l 421 -17 q 360 -12 390 -17 q 297 7 331 -7 q 234 44 263 22 q 177 104 205 66 q 131 191 150 142 q 100 310 111 239 q 88 464 88 380 l 88 506 q 420 966 88 966 l 442 966 q 633 913 555 966 q 746 751 711 860 l 610 707 q 551 797 591 769 q 442 824 511 824 l 420 824 q 276 752 322 824 q 231 506 231 681 l 231 464 q 421 125 231 125 l 442 125 q 538 153 499 125 q 600 246 577 180 l 734 200 q 625 40 699 97 q 442 -17 552 -17 m 503 1156 l 641 1080 l 592 990 l 444 1072 l 296 990 l 248 1080 l 386 1156 l 503 1156 z "},"ĉ":{"ha":833,"x_min":88,"x_max":726,"o":"m 595 507 q 425 568 562 568 l 410 568 q 325 555 360 568 q 269 519 289 543 q 240 466 249 495 q 231 401 231 437 l 231 294 q 282 172 231 218 q 410 125 333 125 l 425 125 q 532 142 486 125 q 595 193 578 159 l 724 131 q 612 21 690 60 q 425 -17 534 -17 l 410 -17 q 181 71 275 -17 q 88 294 88 159 l 88 401 q 172 624 88 536 q 410 711 256 711 l 425 711 q 619 674 550 711 q 726 564 688 637 l 595 507 m 510 954 l 648 878 l 600 789 l 452 870 l 304 789 l 255 878 l 393 954 l 510 954 z "},"Ċ":{"ha":833,"x_min":88,"x_max":746,"o":"m 442 -17 l 421 -17 q 360 -12 390 -17 q 297 7 331 -7 q 234 44 263 22 q 177 104 205 66 q 131 191 150 142 q 100 310 111 239 q 88 464 88 380 l 88 506 q 420 966 88 966 l 442 966 q 633 913 555 966 q 746 751 711 860 l 610 707 q 551 797 591 769 q 442 824 511 824 l 420 824 q 276 752 322 824 q 231 506 231 681 l 231 464 q 421 125 231 125 l 442 125 q 538 153 499 125 q 600 246 577 180 l 734 200 q 625 40 699 97 q 442 -17 552 -17 m 365 1007 q 350 1022 365 1007 q 334 1082 334 1038 q 365 1158 334 1127 q 440 1189 395 1189 q 516 1158 485 1189 q 547 1082 547 1127 q 516 1007 547 1038 q 440 976 485 976 q 365 1007 395 976 z "},"ċ":{"ha":833,"x_min":88,"x_max":726,"o":"m 595 507 q 425 568 562 568 l 410 568 q 325 555 360 568 q 269 519 289 543 q 240 466 249 495 q 231 401 231 437 l 231 294 q 282 172 231 218 q 410 125 333 125 l 425 125 q 532 142 486 125 q 595 193 578 159 l 724 131 q 612 21 690 60 q 425 -17 534 -17 l 410 -17 q 181 71 275 -17 q 88 294 88 159 l 88 401 q 172 624 88 536 q 410 711 256 711 l 425 711 q 619 674 550 711 q 726 564 688 637 l 595 507 m 372 804 q 357 819 372 804 q 342 880 342 835 q 372 955 342 924 q 448 986 403 986 q 524 955 492 986 q 555 880 555 924 q 524 804 555 835 q 448 773 492 773 q 372 804 403 773 z "},"Č":{"ha":833,"x_min":88,"x_max":746,"o":"m 442 -17 l 421 -17 q 360 -12 390 -17 q 297 7 331 -7 q 234 44 263 22 q 177 104 205 66 q 131 191 150 142 q 100 310 111 239 q 88 464 88 380 l 88 506 q 420 966 88 966 l 442 966 q 633 913 555 966 q 746 751 711 860 l 610 707 q 551 797 591 769 q 442 824 511 824 l 420 824 q 276 752 322 824 q 231 506 231 681 l 231 464 q 421 125 231 125 l 442 125 q 538 153 499 125 q 600 246 577 180 l 734 200 q 625 40 699 97 q 442 -17 552 -17 m 444 1093 l 592 1175 l 641 1085 l 503 1009 l 386 1009 l 248 1085 l 296 1175 l 444 1093 z "},"č":{"ha":833,"x_min":88,"x_max":726,"o":"m 595 507 q 425 568 562 568 l 410 568 q 325 555 360 568 q 269 519 289 543 q 240 466 249 495 q 231 401 231 437 l 231 294 q 282 172 231 218 q 410 125 333 125 l 425 125 q 532 142 486 125 q 595 193 578 159 l 724 131 q 612 21 690 60 q 425 -17 534 -17 l 410 -17 q 181 71 275 -17 q 88 294 88 159 l 88 401 q 172 624 88 536 q 410 711 256 711 l 425 711 q 619 674 550 711 q 726 564 688 637 l 595 507 m 452 892 l 600 973 l 648 884 l 510 808 l 393 808 l 255 884 l 304 973 l 452 892 z "},"Ď":{"ha":833,"x_min":88,"x_max":745,"o":"m 408 807 l 231 807 l 231 142 l 408 142 q 444 145 427 142 q 480 155 460 147 q 517 175 501 162 q 550 211 534 188 q 578 266 567 235 q 596 343 589 297 q 603 448 603 390 l 603 513 q 582 692 603 628 q 520 782 562 756 q 408 807 479 807 m 745 513 l 745 448 q 733 303 745 369 q 702 193 722 238 q 655 112 683 147 q 598 57 627 77 q 534 23 568 36 q 470 5 500 9 q 408 0 439 0 l 88 0 l 88 949 l 408 949 q 547 927 487 949 q 644 867 606 905 q 704 773 681 829 q 736 654 728 716 q 745 513 745 591 m 418 1093 l 566 1174 l 614 1084 l 476 1008 l 359 1008 l 221 1084 l 270 1174 l 418 1093 z "},"ď":{"ha":833,"x_min":26,"x_max":843,"o":"m 313 711 l 327 711 q 485 669 418 711 l 485 949 l 612 949 l 612 0 l 485 0 l 485 24 q 327 -17 420 -17 l 313 -17 q 169 22 234 -17 q 65 133 104 61 q 26 294 26 205 l 26 401 q 103 626 26 541 q 313 711 180 711 m 153 401 l 153 294 q 199 172 153 218 q 313 125 245 125 l 327 125 q 485 294 485 125 l 485 401 q 478 464 485 435 q 454 516 471 492 q 405 555 437 541 q 327 569 372 569 l 313 569 q 191 523 228 569 q 153 401 153 477 z "},"Đ":{"ha":833,"x_min":54,"x_max":744,"o":"m 399 807 l 288 807 l 288 573 l 391 573 l 391 431 l 288 431 l 288 142 l 399 142 q 550 220 499 142 q 602 466 602 298 l 602 506 q 589 655 602 595 q 550 748 576 715 q 487 794 523 781 q 399 807 452 807 m 744 506 l 744 466 q 732 316 744 384 q 700 200 720 248 q 652 116 680 153 q 593 58 623 80 q 528 23 563 37 q 462 5 492 9 q 399 0 431 0 l 145 0 l 145 431 l 54 431 l 54 573 l 145 573 l 145 949 l 399 949 q 541 926 479 949 q 640 864 602 903 q 702 767 678 825 q 735 646 726 709 q 744 506 744 583 z "},"đ":{"ha":833,"x_min":88,"x_max":787,"o":"m 391 691 l 407 691 q 565 657 499 691 l 565 749 l 387 749 l 387 892 l 565 892 l 565 949 l 707 949 l 707 892 l 787 892 l 787 749 l 707 749 l 707 0 l 565 0 l 565 17 q 407 -17 499 -17 l 391 -17 q 174 69 259 -17 q 88 294 88 155 l 88 381 q 166 608 88 526 q 391 691 245 691 m 231 381 l 231 294 q 273 172 231 218 q 391 125 315 125 l 407 125 q 525 162 484 125 q 565 294 565 199 l 565 381 q 525 512 565 475 q 407 549 484 549 l 391 549 q 272 512 314 549 q 231 381 231 475 z "},"Ē":{"ha":833,"x_min":88,"x_max":745,"o":"m 231 450 l 231 143 l 745 143 l 745 0 l 88 0 l 88 949 l 745 949 l 745 807 l 231 807 l 231 592 l 636 592 l 636 450 l 231 450 m 263 1019 l 263 1121 l 570 1121 l 570 1019 l 263 1019 z "},"ē":{"ha":833,"x_min":88,"x_max":745,"o":"m 231 307 l 231 256 q 241 214 231 235 q 271 172 251 192 q 327 138 291 151 q 410 125 363 125 l 425 125 q 544 146 503 125 q 597 197 585 168 l 730 145 q 622 26 701 70 q 425 -17 544 -17 l 410 -17 q 275 6 336 -17 q 173 68 213 30 q 111 156 133 107 q 88 256 88 205 l 88 440 q 174 635 88 559 q 410 711 260 711 l 425 711 q 660 635 575 711 q 745 440 745 559 l 745 307 l 231 307 m 231 450 l 603 450 q 585 508 601 484 q 542 545 568 532 q 486 564 515 558 q 425 569 458 569 l 410 569 q 349 564 378 569 q 294 545 321 558 q 250 508 267 532 q 231 450 233 484 m 279 771 l 279 873 l 586 873 l 586 771 l 279 771 z "},"Ĕ":{"ha":833,"x_min":88,"x_max":745,"o":"m 231 450 l 231 143 l 745 143 l 745 0 l 88 0 l 88 949 l 745 949 l 745 807 l 231 807 l 231 592 l 636 592 l 636 450 l 231 450 m 416 995 q 308 1020 359 995 q 221 1089 258 1045 l 298 1154 q 416 1097 347 1097 q 536 1155 486 1097 l 613 1090 q 525 1020 576 1046 q 416 995 474 995 z "},"ĕ":{"ha":833,"x_min":88,"x_max":745,"o":"m 231 307 l 231 256 q 241 214 231 235 q 271 172 251 192 q 327 138 291 151 q 410 125 363 125 l 425 125 q 544 146 503 125 q 597 197 585 168 l 730 145 q 622 26 701 70 q 425 -17 544 -17 l 410 -17 q 275 6 336 -17 q 173 68 213 30 q 111 156 133 107 q 88 256 88 205 l 88 440 q 174 635 88 559 q 410 711 260 711 l 425 711 q 660 635 575 711 q 745 440 745 559 l 745 307 l 231 307 m 231 450 l 603 450 q 585 508 601 484 q 542 545 568 532 q 486 564 515 558 q 425 569 458 569 l 410 569 q 349 564 378 569 q 294 545 321 558 q 250 508 267 532 q 231 450 233 484 m 431 794 q 324 819 374 794 q 237 888 273 844 l 314 954 q 431 896 362 896 q 551 954 502 896 l 629 889 q 541 820 591 845 q 431 794 490 794 z "},"Ė":{"ha":833,"x_min":88,"x_max":745,"o":"m 231 450 l 231 143 l 745 143 l 745 0 l 88 0 l 88 949 l 745 949 l 745 807 l 231 807 l 231 592 l 636 592 l 636 450 l 231 450 m 338 1005 q 323 1021 338 1005 q 308 1081 308 1036 q 338 1157 308 1126 q 414 1187 369 1187 q 490 1157 458 1187 q 521 1081 521 1126 q 490 1005 521 1036 q 414 975 458 975 q 338 1005 369 975 z "},"ė":{"ha":833,"x_min":88,"x_max":745,"o":"m 231 307 l 231 256 q 241 214 231 235 q 271 172 251 192 q 327 138 291 151 q 410 125 363 125 l 425 125 q 544 146 503 125 q 597 197 585 168 l 730 145 q 622 26 701 70 q 425 -17 544 -17 l 410 -17 q 275 6 336 -17 q 173 68 213 30 q 111 156 133 107 q 88 256 88 205 l 88 440 q 174 635 88 559 q 410 711 260 711 l 425 711 q 660 635 575 711 q 745 440 745 559 l 745 307 l 231 307 m 231 450 l 603 450 q 585 508 601 484 q 542 545 568 532 q 486 564 515 558 q 425 569 458 569 l 410 569 q 349 564 378 569 q 294 545 321 558 q 250 508 267 532 q 231 450 233 484 m 354 805 q 339 821 354 805 q 323 881 323 836 q 354 957 323 926 q 429 987 385 987 q 505 957 474 987 q 536 881 536 926 q 505 805 536 836 q 429 774 474 774 q 354 805 385 774 z "},"Ę":{"ha":833,"x_min":88,"x_max":745,"o":"m 231 450 l 231 143 l 745 143 l 745 0 l 88 0 l 88 949 l 745 949 l 745 807 l 231 807 l 231 592 l 636 592 l 636 450 l 231 450 m 523 -248 q 433 -281 483 -281 q 335 -240 376 -281 q 295 -142 295 -199 q 334 -46 295 -87 l 405 25 l 405 53 l 507 53 l 507 -17 l 407 -117 q 397 -142 397 -127 q 407 -168 397 -157 q 433 -179 418 -179 q 456 -170 446 -179 l 474 -155 l 542 -231 l 523 -248 z "},"ę":{"ha":833,"x_min":88,"x_max":745,"o":"m 231 307 l 231 256 q 241 214 231 235 q 271 172 251 192 q 327 138 291 151 q 410 125 363 125 l 425 125 q 544 146 503 125 q 597 197 585 168 l 730 145 q 622 26 701 70 q 425 -17 544 -17 l 410 -17 q 275 6 336 -17 q 173 68 213 30 q 111 156 133 107 q 88 256 88 205 l 88 440 q 174 635 88 559 q 410 711 260 711 l 425 711 q 660 635 575 711 q 745 440 745 559 l 745 307 l 231 307 m 231 450 l 603 450 q 585 508 601 484 q 542 545 568 532 q 486 564 515 558 q 425 569 458 569 l 410 569 q 349 564 378 569 q 294 545 321 558 q 250 508 267 532 q 231 450 233 484 m 498 -259 q 408 -292 458 -292 q 311 -252 351 -292 q 271 -154 271 -211 q 309 -58 271 -98 l 380 14 l 380 41 l 482 41 l 482 -28 l 382 -128 q 372 -154 372 -138 q 383 -180 372 -169 q 408 -191 393 -191 q 432 -182 421 -191 l 450 -166 l 517 -242 l 498 -259 z "},"Ě":{"ha":833,"x_min":88,"x_max":745,"o":"m 231 450 l 231 143 l 745 143 l 745 0 l 88 0 l 88 949 l 745 949 l 745 807 l 231 807 l 231 592 l 636 592 l 636 450 l 231 450 m 418 1094 l 566 1175 l 614 1086 l 476 1010 l 359 1010 l 221 1086 l 270 1175 l 418 1094 z "},"ě":{"ha":833,"x_min":88,"x_max":745,"o":"m 231 307 l 231 256 q 241 214 231 235 q 271 172 251 192 q 327 138 291 151 q 410 125 363 125 l 425 125 q 544 146 503 125 q 597 197 585 168 l 730 145 q 622 26 701 70 q 425 -17 544 -17 l 410 -17 q 275 6 336 -17 q 173 68 213 30 q 111 156 133 107 q 88 256 88 205 l 88 440 q 174 635 88 559 q 410 711 260 711 l 425 711 q 660 635 575 711 q 745 440 745 559 l 745 307 l 231 307 m 231 450 l 603 450 q 585 508 601 484 q 542 545 568 532 q 486 564 515 558 q 425 569 458 569 l 410 569 q 349 564 378 569 q 294 545 321 558 q 250 508 267 532 q 231 450 233 484 m 433 893 l 581 975 l 630 885 l 492 809 l 375 809 l 237 885 l 286 975 l 433 893 z "},"Ĝ":{"ha":833,"x_min":88,"x_max":746,"o":"m 745 173 q 697 92 728 127 q 635 36 667 56 q 566 4 604 16 q 500 -13 529 -9 q 442 -17 471 -17 l 425 -17 q 364 -12 394 -17 q 299 8 334 -6 q 236 46 265 23 q 178 107 206 69 q 131 193 151 144 q 100 312 112 242 q 88 464 88 381 l 88 506 q 425 966 88 966 l 442 966 q 633 913 555 966 q 746 751 711 860 l 610 707 q 551 797 591 769 q 442 824 511 824 l 425 824 q 318 794 359 824 q 253 694 276 765 q 231 506 231 623 l 231 464 q 235 375 231 417 q 251 286 239 334 q 284 204 264 238 q 341 148 305 170 q 425 125 377 125 l 442 125 q 544 149 503 125 q 603 202 585 172 l 603 342 l 458 342 l 458 485 l 745 485 l 745 173 m 510 1156 l 648 1080 l 600 991 l 452 1072 l 304 991 l 255 1080 l 393 1156 l 510 1156 z "},"ĝ":{"ha":833,"x_min":88,"x_max":763,"o":"m 146 313 q 88 449 88 379 l 88 478 q 104 558 88 522 q 143 618 119 594 q 200 660 168 642 q 264 687 233 677 q 326 702 294 696 q 377 710 358 708 q 410 711 396 711 l 425 711 q 624 658 533 711 q 763 701 686 701 l 763 559 q 728 553 744 559 q 745 478 745 516 l 745 449 q 721 348 745 393 q 662 276 697 303 q 581 232 626 250 q 497 207 536 214 q 425 200 458 200 l 410 200 q 264 231 338 200 q 250 210 258 224 q 243 189 243 195 l 243 146 q 253 127 243 141 q 273 107 264 113 q 410 130 340 130 l 425 130 q 565 109 501 130 q 666 54 628 87 q 725 -16 704 21 q 745 -86 745 -52 l 745 -100 q 715 -189 745 -149 q 645 -249 686 -228 q 555 -285 604 -271 q 474 -303 507 -299 q 425 -308 442 -308 l 410 -308 q 285 -294 341 -308 q 193 -257 229 -279 q 133 -207 157 -235 q 98 -152 109 -178 q 88 -100 88 -125 l 88 -86 q 142 31 88 -22 q 111 84 122 52 q 100 146 100 117 l 100 189 q 114 256 100 221 q 146 313 127 291 m 603 478 q 592 500 603 486 q 562 530 582 514 q 506 557 542 546 q 425 569 469 569 l 410 569 q 287 538 342 569 q 231 478 231 507 l 231 449 q 282 381 231 420 q 410 342 334 342 l 425 342 q 547 378 491 342 q 603 449 603 414 l 603 478 m 425 -165 q 516 -153 473 -165 q 581 -124 559 -140 q 603 -100 603 -109 l 603 -90 q 556 -34 603 -55 q 425 -12 510 -12 l 410 -12 q 345 -19 376 -12 q 294 -37 314 -26 q 259 -58 274 -47 q 237 -76 244 -68 q 231 -86 231 -84 l 231 -100 q 235 -108 231 -102 q 253 -125 240 -115 q 286 -144 267 -135 q 337 -159 304 -153 q 410 -165 370 -165 l 425 -165 m 452 962 l 590 886 l 541 796 l 393 878 l 245 796 l 197 886 l 335 962 l 452 962 z "},"Ğ":{"ha":833,"x_min":88,"x_max":746,"o":"m 745 173 q 697 92 728 127 q 635 36 667 56 q 566 4 604 16 q 500 -13 529 -9 q 442 -17 471 -17 l 425 -17 q 364 -12 394 -17 q 299 8 334 -6 q 236 46 265 23 q 178 107 206 69 q 131 193 151 144 q 100 312 112 242 q 88 464 88 381 l 88 506 q 425 966 88 966 l 442 966 q 633 913 555 966 q 746 751 711 860 l 610 707 q 551 797 591 769 q 442 824 511 824 l 425 824 q 318 794 359 824 q 253 694 276 765 q 231 506 231 623 l 231 464 q 235 375 231 417 q 251 286 239 334 q 284 204 264 238 q 341 148 305 170 q 425 125 377 125 l 442 125 q 544 149 503 125 q 603 202 585 172 l 603 342 l 458 342 l 458 485 l 745 485 l 745 173 m 450 994 q 342 1019 393 994 q 255 1088 292 1044 l 332 1154 q 450 1096 380 1096 q 570 1154 520 1096 l 647 1089 q 559 1020 610 1045 q 450 994 508 994 z "},"ğ":{"ha":833,"x_min":88,"x_max":763,"o":"m 146 313 q 88 449 88 379 l 88 478 q 104 558 88 522 q 143 618 119 594 q 200 660 168 642 q 264 687 233 677 q 326 702 294 696 q 377 710 358 708 q 410 711 396 711 l 425 711 q 624 658 533 711 q 763 701 686 701 l 763 559 q 728 553 744 559 q 745 478 745 516 l 745 449 q 721 348 745 393 q 662 276 697 303 q 581 232 626 250 q 497 207 536 214 q 425 200 458 200 l 410 200 q 264 231 338 200 q 250 210 258 224 q 243 189 243 195 l 243 146 q 253 127 243 141 q 273 107 264 113 q 410 130 340 130 l 425 130 q 565 109 501 130 q 666 54 628 87 q 725 -16 704 21 q 745 -86 745 -52 l 745 -100 q 715 -189 745 -149 q 645 -249 686 -228 q 555 -285 604 -271 q 474 -303 507 -299 q 425 -308 442 -308 l 410 -308 q 285 -294 341 -308 q 193 -257 229 -279 q 133 -207 157 -235 q 98 -152 109 -178 q 88 -100 88 -125 l 88 -86 q 142 31 88 -22 q 111 84 122 52 q 100 146 100 117 l 100 189 q 114 256 100 221 q 146 313 127 291 m 603 478 q 592 500 603 486 q 562 530 582 514 q 506 557 542 546 q 425 569 469 569 l 410 569 q 287 538 342 569 q 231 478 231 507 l 231 449 q 282 381 231 420 q 410 342 334 342 l 425 342 q 547 378 491 342 q 603 449 603 414 l 603 478 m 425 -165 q 516 -153 473 -165 q 581 -124 559 -140 q 603 -100 603 -109 l 603 -90 q 556 -34 603 -55 q 425 -12 510 -12 l 410 -12 q 345 -19 376 -12 q 294 -37 314 -26 q 259 -58 274 -47 q 237 -76 244 -68 q 231 -86 231 -84 l 231 -100 q 235 -108 231 -102 q 253 -125 240 -115 q 286 -144 267 -135 q 337 -159 304 -153 q 410 -165 370 -165 l 425 -165 m 391 800 q 284 825 334 800 q 197 895 233 850 l 274 960 q 391 902 322 902 q 511 960 462 902 l 589 895 q 500 826 551 851 q 391 800 450 800 z "},"Ġ":{"ha":833,"x_min":88,"x_max":746,"o":"m 745 173 q 697 92 728 127 q 635 36 667 56 q 566 4 604 16 q 500 -13 529 -9 q 442 -17 471 -17 l 425 -17 q 364 -12 394 -17 q 299 8 334 -6 q 236 46 265 23 q 178 107 206 69 q 131 193 151 144 q 100 312 112 242 q 88 464 88 381 l 88 506 q 425 966 88 966 l 442 966 q 633 913 555 966 q 746 751 711 860 l 610 707 q 551 797 591 769 q 442 824 511 824 l 425 824 q 318 794 359 824 q 253 694 276 765 q 231 506 231 623 l 231 464 q 235 375 231 417 q 251 286 239 334 q 284 204 264 238 q 341 148 305 170 q 425 125 377 125 l 442 125 q 544 149 503 125 q 603 202 585 172 l 603 342 l 458 342 l 458 485 l 745 485 l 745 173 m 372 1006 q 357 1021 372 1006 q 342 1082 342 1037 q 372 1157 342 1126 q 448 1188 403 1188 q 524 1157 492 1188 q 555 1082 555 1126 q 524 1006 555 1037 q 448 975 492 975 q 372 1006 403 975 z "},"ġ":{"ha":833,"x_min":88,"x_max":763,"o":"m 146 313 q 88 449 88 379 l 88 478 q 104 558 88 522 q 143 618 119 594 q 200 660 168 642 q 264 687 233 677 q 326 702 294 696 q 377 710 358 708 q 410 711 396 711 l 425 711 q 624 658 533 711 q 763 701 686 701 l 763 559 q 728 553 744 559 q 745 478 745 516 l 745 449 q 721 348 745 393 q 662 276 697 303 q 581 232 626 250 q 497 207 536 214 q 425 200 458 200 l 410 200 q 264 231 338 200 q 250 210 258 224 q 243 189 243 195 l 243 146 q 253 127 243 141 q 273 107 264 113 q 410 130 340 130 l 425 130 q 565 109 501 130 q 666 54 628 87 q 725 -16 704 21 q 745 -86 745 -52 l 745 -100 q 715 -189 745 -149 q 645 -249 686 -228 q 555 -285 604 -271 q 474 -303 507 -299 q 425 -308 442 -308 l 410 -308 q 285 -294 341 -308 q 193 -257 229 -279 q 133 -207 157 -235 q 98 -152 109 -178 q 88 -100 88 -125 l 88 -86 q 142 31 88 -22 q 111 84 122 52 q 100 146 100 117 l 100 189 q 114 256 100 221 q 146 313 127 291 m 603 478 q 592 500 603 486 q 562 530 582 514 q 506 557 542 546 q 425 569 469 569 l 410 569 q 287 538 342 569 q 231 478 231 507 l 231 449 q 282 381 231 420 q 410 342 334 342 l 425 342 q 547 378 491 342 q 603 449 603 414 l 603 478 m 425 -165 q 516 -153 473 -165 q 581 -124 559 -140 q 603 -100 603 -109 l 603 -90 q 556 -34 603 -55 q 425 -12 510 -12 l 410 -12 q 345 -19 376 -12 q 294 -37 314 -26 q 259 -58 274 -47 q 237 -76 244 -68 q 231 -86 231 -84 l 231 -100 q 235 -108 231 -102 q 253 -125 240 -115 q 286 -144 267 -135 q 337 -159 304 -153 q 410 -165 370 -165 l 425 -165 m 314 811 q 299 827 314 811 q 283 887 283 842 q 314 963 283 932 q 389 994 345 994 q 465 963 434 994 q 496 887 496 932 q 465 811 496 842 q 389 781 434 781 q 314 811 345 781 z "},"Ģ":{"ha":833,"x_min":88,"x_max":746,"o":"m 745 173 q 697 92 728 127 q 635 36 667 56 q 566 4 604 16 q 500 -13 529 -9 q 442 -17 471 -17 l 425 -17 q 364 -12 394 -17 q 299 8 334 -6 q 236 46 265 23 q 178 107 206 69 q 131 193 151 144 q 100 312 112 242 q 88 464 88 381 l 88 506 q 425 966 88 966 l 442 966 q 633 913 555 966 q 746 751 711 860 l 610 707 q 551 797 591 769 q 442 824 511 824 l 425 824 q 318 794 359 824 q 253 694 276 765 q 231 506 231 623 l 231 464 q 235 375 231 417 q 251 286 239 334 q 284 204 264 238 q 341 148 305 170 q 425 125 377 125 l 442 125 q 544 149 503 125 q 603 202 585 172 l 603 342 l 458 342 l 458 485 l 745 485 l 745 173 z "},"ģ":{"ha":833,"x_min":88,"x_max":763,"o":"m 146 313 q 88 449 88 379 l 88 478 q 104 558 88 522 q 143 618 119 594 q 200 660 168 642 q 264 687 233 677 q 326 702 294 696 q 377 710 358 708 q 410 711 396 711 l 425 711 q 624 658 533 711 q 763 701 686 701 l 763 559 q 728 553 744 559 q 745 478 745 516 l 745 449 q 721 348 745 393 q 662 276 697 303 q 581 232 626 250 q 497 207 536 214 q 425 200 458 200 l 410 200 q 264 231 338 200 q 250 210 258 224 q 243 189 243 195 l 243 146 q 253 127 243 141 q 273 107 264 113 q 410 130 340 130 l 425 130 q 565 109 501 130 q 666 54 628 87 q 725 -16 704 21 q 745 -86 745 -52 l 745 -100 q 715 -189 745 -149 q 645 -249 686 -228 q 555 -285 604 -271 q 474 -303 507 -299 q 425 -308 442 -308 l 410 -308 q 285 -294 341 -308 q 193 -257 229 -279 q 133 -207 157 -235 q 98 -152 109 -178 q 88 -100 88 -125 l 88 -86 q 142 31 88 -22 q 111 84 122 52 q 100 146 100 117 l 100 189 q 114 256 100 221 q 146 313 127 291 m 603 478 q 592 500 603 486 q 562 530 582 514 q 506 557 542 546 q 425 569 469 569 l 410 569 q 287 538 342 569 q 231 478 231 507 l 231 449 q 282 381 231 420 q 410 342 334 342 l 425 342 q 547 378 491 342 q 603 449 603 414 l 603 478 m 425 -165 q 516 -153 473 -165 q 581 -124 559 -140 q 603 -100 603 -109 l 603 -90 q 556 -34 603 -55 q 425 -12 510 -12 l 410 -12 q 345 -19 376 -12 q 294 -37 314 -26 q 259 -58 274 -47 q 237 -76 244 -68 q 231 -86 231 -84 l 231 -100 q 235 -108 231 -102 q 253 -125 240 -115 q 286 -144 267 -135 q 337 -159 304 -153 q 410 -165 370 -165 l 425 -165 z "},"Ĥ":{"ha":833,"x_min":88,"x_max":745,"o":"m 231 0 l 88 0 l 88 949 l 231 949 l 231 557 l 603 557 l 603 949 l 745 949 l 745 0 l 603 0 l 603 415 l 231 415 l 231 0 m 476 1156 l 614 1080 l 566 991 l 418 1072 l 270 991 l 221 1080 l 359 1156 l 476 1156 z "},"ĥ":{"ha":833,"x_min":88,"x_max":745,"o":"m 410 569 q 342 554 374 569 q 291 519 311 540 q 257 473 271 498 q 237 430 243 449 q 231 401 231 412 l 231 0 l 88 0 l 88 949 l 231 949 l 231 650 q 410 711 317 711 l 425 711 q 659 637 572 711 q 745 459 745 563 l 745 0 l 603 0 l 603 459 q 555 537 603 505 q 425 569 507 569 l 410 569 m 557 1155 l 696 1079 l 647 989 l 499 1071 l 351 989 l 302 1079 l 441 1155 l 557 1155 z "},"Ħ":{"ha":833,"x_min":54,"x_max":779,"o":"m 286 0 l 144 0 l 144 713 l 54 713 l 54 855 l 144 855 l 144 949 l 286 949 l 286 855 l 548 855 l 548 949 l 690 949 l 690 855 l 779 855 l 779 713 l 690 713 l 690 0 l 548 0 l 548 415 l 286 415 l 286 0 m 286 557 l 548 557 l 548 713 l 286 713 l 286 557 z "},"ħ":{"ha":833,"x_min":54,"x_max":745,"o":"m 603 453 q 588 510 603 486 q 550 546 574 534 q 502 564 526 558 q 450 569 477 569 l 435 569 q 353 531 390 569 q 299 449 316 492 q 281 376 281 406 l 281 0 l 139 0 l 139 780 l 54 780 l 54 922 l 139 922 l 139 949 l 281 949 l 281 922 l 448 922 l 448 780 l 281 780 l 281 657 q 435 711 353 711 l 450 711 q 663 640 580 711 q 745 453 745 568 l 745 0 l 603 0 l 603 453 z "},"Ĩ":{"ha":833,"x_min":156,"x_max":677,"o":"m 677 949 l 677 807 l 489 807 l 489 142 l 677 142 l 677 0 l 156 0 l 156 142 l 347 142 l 347 807 l 156 807 l 156 949 l 677 949 m 189 1111 q 316 1191 241 1191 l 327 1191 q 436 1154 394 1191 l 449 1142 q 466 1135 452 1139 q 490 1130 479 1130 l 502 1130 q 523 1138 511 1130 q 545 1163 535 1147 l 554 1179 l 642 1128 l 633 1112 q 579 1055 612 1076 q 524 1031 546 1034 l 502 1028 l 490 1028 q 429 1040 460 1028 q 381 1066 398 1051 l 369 1077 q 327 1089 355 1089 l 316 1089 q 274 1055 296 1089 l 262 1038 l 177 1093 l 189 1111 z "},"ĩ":{"ha":833,"x_min":159,"x_max":674,"o":"m 207 694 l 489 694 l 489 142 l 674 142 l 674 0 l 159 0 l 159 142 l 347 142 l 347 552 l 207 552 l 207 694 m 194 895 q 321 975 246 975 l 332 975 q 441 938 399 975 l 454 926 q 471 919 457 924 q 496 914 485 914 l 507 914 q 528 923 516 914 q 550 947 541 931 l 559 964 l 648 912 l 638 896 q 584 839 617 860 q 529 816 551 819 l 507 812 l 496 812 q 434 824 465 812 q 387 850 404 836 l 374 861 q 332 873 361 873 l 321 873 q 279 840 301 873 l 268 822 l 182 878 l 194 895 z "},"Ī":{"ha":833,"x_min":156,"x_max":677,"o":"m 677 949 l 677 807 l 489 807 l 489 142 l 677 142 l 677 0 l 156 0 l 156 142 l 347 142 l 347 807 l 156 807 l 156 949 l 677 949 m 264 1019 l 264 1121 l 571 1121 l 571 1019 l 264 1019 z "},"ī":{"ha":833,"x_min":159,"x_max":674,"o":"m 207 694 l 489 694 l 489 142 l 674 142 l 674 0 l 159 0 l 159 142 l 347 142 l 347 552 l 207 552 l 207 694 m 269 770 l 269 871 l 576 871 l 576 770 l 269 770 z "},"Ĭ":{"ha":833,"x_min":156,"x_max":677,"o":"m 677 949 l 677 807 l 489 807 l 489 142 l 677 142 l 677 0 l 156 0 l 156 142 l 347 142 l 347 807 l 156 807 l 156 949 l 677 949 m 416 995 q 309 1020 359 995 q 222 1089 258 1045 l 299 1154 q 416 1097 347 1097 q 536 1155 487 1097 l 614 1090 q 526 1020 576 1046 q 416 995 475 995 z "},"ĭ":{"ha":833,"x_min":159,"x_max":674,"o":"m 207 694 l 489 694 l 489 142 l 674 142 l 674 0 l 159 0 l 159 142 l 347 142 l 347 552 l 207 552 l 207 694 m 422 793 q 314 818 365 793 q 227 887 264 843 l 304 952 q 422 895 353 895 q 542 953 492 895 l 619 888 q 531 818 582 844 q 422 793 480 793 z "},"Į":{"ha":833,"x_min":156,"x_max":677,"o":"m 677 949 l 677 807 l 489 807 l 489 142 l 677 142 l 677 0 l 156 0 l 156 142 l 347 142 l 347 807 l 156 807 l 156 949 l 677 949 m 484 -243 q 394 -276 444 -276 q 297 -235 337 -276 q 256 -138 256 -195 q 295 -41 256 -82 l 366 30 l 366 58 l 468 58 l 468 -12 l 368 -112 q 358 -138 358 -122 q 369 -163 358 -153 q 394 -174 379 -174 q 418 -165 407 -174 l 435 -150 l 503 -226 l 484 -243 z "},"į":{"ha":833,"x_min":159,"x_max":674,"o":"m 207 694 l 489 694 l 489 142 l 674 142 l 674 0 l 159 0 l 159 142 l 347 142 l 347 552 l 207 552 l 207 694 m 347 804 q 331 819 347 804 q 316 880 316 835 q 347 955 316 924 q 422 986 377 986 q 498 955 467 986 q 529 880 529 924 q 498 804 529 835 q 422 773 467 773 q 347 804 377 773 m 484 -243 q 394 -276 444 -276 q 297 -235 337 -276 q 256 -138 256 -195 q 295 -41 256 -82 l 366 30 l 366 58 l 468 58 l 468 -12 l 368 -112 q 358 -138 358 -122 q 369 -163 358 -153 q 394 -174 379 -174 q 418 -165 407 -174 l 435 -150 l 503 -226 l 484 -243 z "},"İ":{"ha":833,"x_min":156,"x_max":677,"o":"m 677 949 l 677 807 l 489 807 l 489 142 l 677 142 l 677 0 l 156 0 l 156 142 l 347 142 l 347 807 l 156 807 l 156 949 l 677 949 m 339 1005 q 324 1021 339 1005 q 309 1081 309 1036 q 339 1157 309 1126 q 414 1187 370 1187 q 490 1157 459 1187 q 522 1081 522 1126 q 490 1005 522 1036 q 414 975 459 975 q 339 1005 370 975 z "},"ı":{"ha":833,"x_min":159,"x_max":674,"o":"m 207 694 l 489 694 l 489 142 l 674 142 l 674 0 l 159 0 l 159 142 l 347 142 l 347 552 l 207 552 l 207 694 z "},"Ĳ":{"ha":833,"x_min":54,"x_max":779,"o":"m 460 309 q 488 338 479 309 q 497 401 497 367 l 497 807 l 338 807 l 338 142 l 497 142 l 497 0 l 54 0 l 54 142 l 195 142 l 195 807 l 54 807 l 54 949 l 779 949 l 779 807 l 640 807 l 640 401 q 630 316 640 354 q 607 254 621 277 q 574 212 593 230 q 538 186 555 195 q 503 173 522 178 q 476 167 484 168 q 460 166 467 166 l 391 166 l 391 309 l 460 309 z "},"ĳ":{"ha":833,"x_min":74,"x_max":829,"o":"m 121 695 l 404 695 l 404 143 l 589 143 l 589 1 l 74 1 l 74 143 l 261 143 l 261 553 l 121 553 l 121 695 m 261 805 q 246 820 261 805 q 231 880 231 836 q 261 956 231 925 q 336 987 292 987 q 412 956 381 987 q 444 880 444 925 q 412 805 444 836 q 336 774 381 774 q 261 805 292 774 m 829 -35 q 770 -195 829 -131 q 600 -258 710 -258 q 373 -35 394 -258 l 515 -35 q 543 -93 519 -70 q 600 -116 567 -116 q 661 -93 635 -116 q 687 -35 687 -69 l 687 564 l 461 564 l 461 707 l 829 707 l 829 -35 m 638 816 q 623 832 638 816 q 608 892 608 847 q 638 967 608 937 q 713 998 669 998 q 789 967 758 998 q 821 892 821 937 q 789 816 821 847 q 713 785 758 785 q 638 816 669 785 z "},"Ĵ":{"ha":833,"x_min":68,"x_max":745,"o":"m 745 949 l 745 807 l 608 807 l 608 250 q 535 58 608 132 q 342 -17 463 -17 l 327 -17 q 165 18 229 -17 q 68 127 102 52 l 198 185 q 218 154 207 165 q 257 134 230 142 q 327 125 284 125 l 342 125 q 404 137 378 125 q 442 167 429 148 q 460 207 455 186 q 466 250 466 227 l 466 807 l 274 807 l 274 949 l 745 949 m 559 1156 l 697 1080 l 648 991 l 500 1072 l 353 991 l 304 1080 l 442 1156 l 559 1156 z "},"ĵ":{"ha":833,"x_min":204,"x_max":750,"o":"m 661 -47 q 601 -207 661 -143 q 431 -271 541 -271 q 204 -47 225 -271 l 347 -47 q 374 -105 351 -82 q 431 -128 398 -128 q 492 -105 467 -128 q 518 -47 518 -81 l 518 552 l 292 552 l 292 694 l 661 694 l 661 -47 m 612 954 l 750 878 l 701 789 l 553 870 l 406 789 l 357 878 l 495 954 l 612 954 z "},"Ķ":{"ha":833,"x_min":87,"x_max":806,"o":"m 87 0 l 87 949 l 230 949 l 230 522 l 605 949 l 795 949 l 430 534 l 806 0 q 632 0 806 0 l 334 424 l 230 306 l 230 0 l 87 0 z "},"ķ":{"ha":833,"x_min":88,"x_max":790,"o":"m 88 0 l 88 966 l 231 966 l 231 422 l 627 772 l 721 665 l 438 416 l 790 0 q 604 0 790 0 l 332 321 l 231 233 l 231 0 l 88 0 z "},"ĸ":{"ha":833,"x_min":88,"x_max":802,"o":"z "},"Ĺ":{"ha":833,"x_min":88,"x_max":745,"o":"m 231 143 l 745 143 l 745 0 l 88 0 l 88 949 l 231 949 l 231 143 m 393 938 l 298 1029 l 473 1214 l 568 1122 l 393 938 z "},"ĺ":{"ha":833,"x_min":159,"x_max":674,"o":"m 159 930 l 489 930 l 489 139 l 674 139 l 674 0 l 159 0 l 159 139 l 347 139 l 347 790 l 159 790 l 159 930 m 427 939 l 332 1030 l 507 1215 l 602 1123 l 427 939 z "},"Ļ":{"ha":833,"x_min":88,"x_max":745,"o":"m 231 143 l 745 143 l 745 0 l 88 0 l 88 949 l 231 949 l 231 143 z "},"ļ":{"ha":833,"x_min":159,"x_max":674,"o":"m 159 949 l 489 949 l 489 142 l 674 142 l 674 0 l 159 0 l 159 142 l 347 142 l 347 807 l 159 807 l 159 949 z "},"Ľ":{"ha":833,"x_min":88,"x_max":745,"o":"m 231 143 l 745 143 l 745 0 l 88 0 l 88 949 l 231 949 l 231 143 z "},"ľ":{"ha":833,"x_min":112,"x_max":734,"o":"m 112 949 l 441 949 l 441 142 l 627 142 l 627 0 l 112 0 l 112 142 l 299 142 l 299 807 l 112 807 l 112 949 z "},"Ŀ":{"ha":833,"x_min":88,"x_max":745,"o":"m 231 143 l 745 143 l 745 0 l 88 0 l 88 949 l 231 949 l 231 143 m 698 482 q 660 389 698 429 q 566 350 623 350 q 472 389 510 350 q 434 482 434 428 q 471 575 434 536 q 566 614 508 614 q 660 575 623 614 q 698 482 698 536 z "},"ŀ":{"ha":833,"x_min":112,"x_max":733,"o":"m 112 949 l 441 949 l 441 142 l 627 142 l 627 0 l 112 0 l 112 142 l 299 142 l 299 807 l 112 807 l 112 949 m 733 507 q 695 414 733 453 q 601 374 658 374 q 507 413 545 374 q 469 507 469 452 q 506 600 469 560 q 601 639 543 639 q 695 600 658 639 q 733 507 733 561 z "},"Ł":{"ha":833,"x_min":37,"x_max":745,"o":"m 283 143 l 745 143 l 745 0 l 141 0 l 141 296 l 72 278 l 37 416 l 141 444 l 141 949 l 283 949 l 283 480 l 566 554 l 602 416 l 283 333 l 283 143 z "},"ł":{"ha":833,"x_min":115,"x_max":723,"o":"m 690 554 l 723 416 l 489 359 l 489 142 l 674 142 l 674 0 l 159 0 l 159 142 l 347 142 l 347 326 l 147 278 l 115 416 l 347 472 l 347 807 l 159 807 l 159 949 l 489 949 l 489 506 l 690 554 z "},"Ń":{"ha":833,"x_min":88,"x_max":745,"o":"m 231 0 l 88 0 l 88 949 l 210 949 l 603 308 l 603 949 l 745 949 l 745 0 q 625 0 745 0 l 231 643 l 231 0 m 427 939 l 332 1030 l 507 1215 l 602 1123 l 427 939 z "},"ń":{"ha":833,"x_min":88,"x_max":745,"o":"m 603 453 q 425 569 603 569 l 410 569 q 319 533 363 569 q 253 456 276 498 q 231 389 231 415 l 231 0 l 88 0 l 88 694 l 231 694 l 231 646 q 410 711 315 711 l 425 711 q 661 641 576 711 q 745 453 745 571 l 745 0 l 603 0 l 603 453 m 429 711 l 334 802 l 509 987 l 604 895 l 429 711 z "},"Ņ":{"ha":833,"x_min":88,"x_max":745,"o":"m 231 0 l 88 0 l 88 949 l 210 949 l 603 308 l 603 949 l 745 949 l 745 0 q 625 0 745 0 l 231 643 l 231 0 z "},"ņ":{"ha":833,"x_min":88,"x_max":745,"o":"m 603 453 q 425 569 603 569 l 410 569 q 319 533 363 569 q 253 456 276 498 q 231 389 231 415 l 231 0 l 88 0 l 88 694 l 231 694 l 231 646 q 410 711 315 711 l 425 711 q 661 641 576 711 q 745 453 745 571 l 745 0 l 603 0 l 603 453 z "},"Ň":{"ha":833,"x_min":88,"x_max":745,"o":"m 231 0 l 88 0 l 88 949 l 210 949 l 603 308 l 603 949 l 745 949 l 745 0 q 625 0 745 0 l 231 643 l 231 0 m 418 1090 l 566 1172 l 614 1082 l 476 1006 l 359 1006 l 221 1082 l 270 1172 l 418 1090 z "},"ň":{"ha":833,"x_min":88,"x_max":745,"o":"m 603 453 q 425 569 603 569 l 410 569 q 319 533 363 569 q 253 456 276 498 q 231 389 231 415 l 231 0 l 88 0 l 88 694 l 231 694 l 231 646 q 410 711 315 711 l 425 711 q 661 641 576 711 q 745 453 745 571 l 745 0 l 603 0 l 603 453 m 418 893 l 566 975 l 614 885 l 476 809 l 359 809 l 221 885 l 270 975 l 418 893 z "},"ŉ":{"ha":833,"x_min":87,"x_max":800,"o":"m 657 453 q 479 569 657 569 l 464 569 q 374 533 417 569 q 308 456 330 498 q 285 389 285 415 l 285 0 l 142 0 l 142 694 l 285 694 l 285 646 q 464 711 369 711 l 479 711 q 715 641 631 711 q 800 453 800 571 l 800 0 l 657 0 l 657 453 m 220 835 q 194 811 213 821 q 153 801 174 801 q 105 824 123 801 q 87 873 87 847 l 87 890 l 140 1074 q 174 1122 145 1101 q 236 1143 202 1143 q 300 1115 277 1143 q 324 1048 324 1087 q 314 1001 324 1018 l 220 835 z "},"Ŋ":{"ha":833,"x_min":88,"x_max":745,"o":"m 359 -91 q 393 -119 372 -109 q 431 -128 413 -128 l 477 -128 q 568 -84 534 -128 q 603 12 603 -41 l 603 694 q 559 788 603 751 q 425 824 515 824 l 410 824 q 320 784 363 824 q 254 693 277 744 q 231 604 231 642 l 231 0 l 88 0 l 88 949 l 231 949 l 231 895 q 410 966 314 966 l 425 966 q 562 945 500 966 q 663 886 623 924 q 724 800 703 849 q 745 694 745 751 l 745 12 q 727 -90 745 -39 q 674 -180 708 -140 q 589 -245 641 -220 q 477 -271 538 -271 l 431 -271 q 237 -164 317 -271 l 359 -91 z "},"ŋ":{"ha":833,"x_min":88,"x_max":745,"o":"m 346 -75 q 431 -128 404 -128 l 477 -128 q 568 -84 534 -128 q 603 12 603 -41 l 603 453 q 425 569 603 569 l 410 569 q 340 546 374 569 q 282 491 305 523 q 245 427 259 459 q 231 376 231 395 l 231 0 l 88 0 l 88 694 l 231 694 l 231 642 q 410 711 315 711 l 425 711 q 661 641 576 711 q 745 453 745 571 l 745 12 q 727 -90 745 -39 q 674 -180 708 -140 q 589 -245 641 -220 q 477 -271 538 -271 l 431 -271 q 340 -247 382 -271 q 250 -180 298 -223 l 346 -75 z "},"Ō":{"ha":833,"x_min":88,"x_max":745,"o":"m 424 824 l 412 824 q 308 795 347 824 q 250 696 269 766 q 231 506 231 626 l 231 464 q 275 209 231 293 q 413 125 319 125 l 424 125 q 560 209 517 126 q 603 464 603 292 l 603 507 q 585 696 603 627 q 528 795 566 766 q 424 824 490 824 m 745 507 l 745 464 q 734 306 745 377 q 704 185 723 234 q 659 99 686 136 q 605 40 632 62 q 544 5 577 19 q 483 -13 511 -8 q 424 -17 454 -17 l 413 -17 q 354 -13 382 -17 q 292 5 326 -8 q 230 41 258 19 q 175 100 202 62 q 130 186 149 137 q 100 306 111 235 q 88 464 88 377 l 88 506 q 94 623 88 570 q 112 731 99 677 q 150 826 125 785 q 209 900 174 867 q 295 949 243 932 q 412 966 347 966 l 424 966 q 542 949 490 966 q 628 899 593 932 q 686 826 663 867 q 723 730 710 785 q 740 624 735 676 q 745 507 745 571 m 267 1019 l 267 1121 l 574 1121 l 574 1019 l 267 1019 z "},"ō":{"ha":833,"x_min":88,"x_max":745,"o":"m 434 568 l 398 568 q 231 378 231 568 l 231 328 q 399 125 231 125 l 431 125 q 558 173 514 125 q 603 328 603 221 l 603 379 q 434 568 603 568 m 745 379 l 745 328 q 726 192 745 254 q 669 82 707 130 q 571 9 631 35 q 431 -17 510 -17 l 399 -17 q 262 10 322 -17 q 164 84 201 37 q 107 194 126 132 q 88 328 88 256 l 88 378 q 168 620 88 528 q 398 711 248 711 l 434 711 q 665 620 584 711 q 745 379 745 528 m 271 770 l 271 871 l 578 871 l 578 770 l 271 770 z "},"Ŏ":{"ha":833,"x_min":88,"x_max":745,"o":"m 424 824 l 412 824 q 308 795 347 824 q 250 696 269 766 q 231 506 231 626 l 231 464 q 275 209 231 293 q 413 125 319 125 l 424 125 q 560 209 517 126 q 603 464 603 292 l 603 507 q 585 696 603 627 q 528 795 566 766 q 424 824 490 824 m 745 507 l 745 464 q 734 306 745 377 q 704 185 723 234 q 659 99 686 136 q 605 40 632 62 q 544 5 577 19 q 483 -13 511 -8 q 424 -17 454 -17 l 413 -17 q 354 -13 382 -17 q 292 5 326 -8 q 230 41 258 19 q 175 100 202 62 q 130 186 149 137 q 100 306 111 235 q 88 464 88 377 l 88 506 q 94 623 88 570 q 112 731 99 677 q 150 826 125 785 q 209 900 174 867 q 295 949 243 932 q 412 966 347 966 l 424 966 q 542 949 490 966 q 628 899 593 932 q 686 826 663 867 q 723 730 710 785 q 740 624 735 676 q 745 507 745 571 m 420 996 q 312 1021 363 996 q 225 1090 262 1046 l 302 1156 q 420 1098 351 1098 q 540 1156 490 1098 l 617 1091 q 529 1022 580 1047 q 420 996 478 996 z "},"ŏ":{"ha":833,"x_min":88,"x_max":745,"o":"m 434 568 l 398 568 q 231 378 231 568 l 231 328 q 399 125 231 125 l 431 125 q 558 173 514 125 q 603 328 603 221 l 603 379 q 434 568 603 568 m 745 379 l 745 328 q 726 192 745 254 q 669 82 707 130 q 571 9 631 35 q 431 -17 510 -17 l 399 -17 q 262 10 322 -17 q 164 84 201 37 q 107 194 126 132 q 88 328 88 256 l 88 378 q 168 620 88 528 q 398 711 248 711 l 434 711 q 665 620 584 711 q 745 379 745 528 m 424 793 q 316 818 367 793 q 229 887 266 843 l 307 952 q 424 895 355 895 q 544 953 494 895 l 621 888 q 533 818 584 844 q 424 793 482 793 z "},"Ő":{"ha":833,"x_min":88,"x_max":745,"o":"m 424 824 l 412 824 q 308 795 347 824 q 250 696 269 766 q 231 506 231 626 l 231 464 q 275 209 231 293 q 413 125 319 125 l 424 125 q 560 209 517 126 q 603 464 603 292 l 603 507 q 585 696 603 627 q 528 795 566 766 q 424 824 490 824 m 745 507 l 745 464 q 734 306 745 377 q 704 185 723 234 q 659 99 686 136 q 605 40 632 62 q 544 5 577 19 q 483 -13 511 -8 q 424 -17 454 -17 l 413 -17 q 354 -13 382 -17 q 292 5 326 -8 q 230 41 258 19 q 175 100 202 62 q 130 186 149 137 q 100 306 111 235 q 88 464 88 377 l 88 506 q 94 623 88 570 q 112 731 99 677 q 150 826 125 785 q 209 900 174 867 q 295 949 243 932 q 412 966 347 966 l 424 966 q 542 949 490 966 q 628 899 593 932 q 686 826 663 867 q 723 730 710 785 q 740 624 735 676 q 745 507 745 571 z "},"ő":{"ha":833,"x_min":88,"x_max":745,"o":"m 434 568 l 398 568 q 231 378 231 568 l 231 328 q 399 125 231 125 l 431 125 q 558 173 514 125 q 603 328 603 221 l 603 379 q 434 568 603 568 m 745 379 l 745 328 q 726 192 745 254 q 669 82 707 130 q 571 9 631 35 q 431 -17 510 -17 l 399 -17 q 262 10 322 -17 q 164 84 201 37 q 107 194 126 132 q 88 328 88 256 l 88 378 q 168 620 88 528 q 398 711 248 711 l 434 711 q 665 620 584 711 q 745 379 745 528 z "},"Œ":{"ha":833,"x_min":88,"x_max":745,"o":"m 299 949 l 318 949 q 376 940 356 949 l 376 949 l 745 949 l 745 807 l 519 807 l 519 557 l 637 557 l 637 415 l 519 415 l 519 142 l 745 142 l 745 0 l 376 0 l 376 8 q 318 0 350 0 l 299 0 q 209 18 250 0 q 142 66 168 37 q 102 131 116 96 q 88 203 88 167 l 88 739 q 104 831 88 791 q 144 892 121 871 q 198 928 168 914 q 253 945 229 941 q 299 949 277 949 m 299 807 q 250 788 269 807 q 231 739 231 769 l 231 203 q 233 188 231 197 q 242 169 235 180 q 263 150 248 157 q 299 142 278 142 l 318 142 q 355 156 340 142 q 373 181 369 169 q 376 203 376 194 l 376 739 q 358 792 376 777 q 318 807 339 807 l 299 807 z "},"œ":{"ha":833,"x_min":88,"x_max":745,"o":"m 231 513 l 231 182 q 290 125 231 125 q 320 133 308 125 q 337 150 332 140 q 345 168 342 160 q 347 182 347 176 l 347 513 q 345 527 347 519 q 337 545 342 535 q 320 562 332 555 q 290 569 308 569 q 231 513 231 569 m 489 182 q 492 160 489 171 q 509 137 495 149 q 546 125 523 125 q 603 182 603 125 l 745 182 q 691 40 745 97 q 546 -17 637 -17 q 418 28 471 -17 q 290 -17 364 -17 q 142 40 197 -17 q 88 182 88 98 l 88 513 q 143 654 88 597 q 290 711 198 711 q 418 667 365 711 q 546 711 471 711 q 692 655 638 711 q 745 513 745 598 l 745 295 l 489 295 l 489 182 m 489 513 l 489 437 l 603 437 l 603 513 q 546 569 603 569 q 516 562 528 569 q 498 545 503 555 q 491 527 493 535 q 489 513 489 519 z "},"Ŕ":{"ha":833,"x_min":88,"x_max":816,"o":"m 745 640 q 744 611 745 625 q 738 577 743 597 q 725 539 733 557 q 701 501 717 522 q 665 465 686 481 q 613 436 644 450 q 542 415 581 422 l 816 0 l 646 0 l 378 406 l 231 406 l 231 0 l 88 0 l 88 949 l 425 949 q 579 935 517 949 q 679 890 642 920 q 730 818 715 859 q 745 719 745 777 l 745 640 m 425 548 q 537 559 498 548 q 590 588 576 570 q 603 640 603 607 l 603 719 q 600 747 603 736 q 587 771 597 758 q 558 790 577 783 q 506 802 540 798 q 425 807 473 807 l 231 807 l 231 548 l 425 548 m 288 939 l 193 1030 l 368 1215 l 463 1123 l 288 939 z "},"ŕ":{"ha":833,"x_min":88,"x_max":739,"o":"m 490 569 l 475 569 q 384 545 430 569 q 306 485 338 521 q 252 404 273 448 q 231 321 231 359 l 231 0 l 88 0 l 88 694 l 231 694 l 231 610 q 475 711 344 711 l 490 711 q 739 613 663 711 l 626 526 q 490 569 593 569 m 425 711 l 330 802 l 505 987 l 600 895 l 425 711 z "},"Ŗ":{"ha":833,"x_min":88,"x_max":816,"o":"m 745 640 q 744 611 745 625 q 738 577 743 597 q 725 539 733 557 q 701 501 717 522 q 665 465 686 481 q 613 436 644 450 q 542 415 581 422 l 816 0 l 646 0 l 378 406 l 231 406 l 231 0 l 88 0 l 88 949 l 425 949 q 579 935 517 949 q 679 890 642 920 q 730 818 715 859 q 745 719 745 777 l 745 640 m 425 548 q 537 559 498 548 q 590 588 576 570 q 603 640 603 607 l 603 719 q 600 747 603 736 q 587 771 597 758 q 558 790 577 783 q 506 802 540 798 q 425 807 473 807 l 231 807 l 231 548 l 425 548 z "},"ŗ":{"ha":833,"x_min":88,"x_max":739,"o":"m 490 569 l 475 569 q 384 545 430 569 q 306 485 338 521 q 252 404 273 448 q 231 321 231 359 l 231 0 l 88 0 l 88 694 l 231 694 l 231 610 q 475 711 344 711 l 490 711 q 739 613 663 711 l 626 526 q 490 569 593 569 z "},"Ř":{"ha":833,"x_min":88,"x_max":816,"o":"m 745 640 q 744 611 745 625 q 738 577 743 597 q 725 539 733 557 q 701 501 717 522 q 665 465 686 481 q 613 436 644 450 q 542 415 581 422 l 816 0 l 646 0 l 378 406 l 231 406 l 231 0 l 88 0 l 88 949 l 425 949 q 579 935 517 949 q 679 890 642 920 q 730 818 715 859 q 745 719 745 777 l 745 640 m 425 548 q 537 559 498 548 q 590 588 576 570 q 603 640 603 607 l 603 719 q 600 747 603 736 q 587 771 597 758 q 558 790 577 783 q 506 802 540 798 q 425 807 473 807 l 231 807 l 231 548 l 425 548 m 387 1093 l 535 1175 l 584 1085 l 446 1009 l 329 1009 l 191 1085 l 239 1175 l 387 1093 z "},"ř":{"ha":833,"x_min":88,"x_max":739,"o":"m 490 569 l 475 569 q 384 545 430 569 q 306 485 338 521 q 252 404 273 448 q 231 321 231 359 l 231 0 l 88 0 l 88 694 l 231 694 l 231 610 q 475 711 344 711 l 490 711 q 739 613 663 711 l 626 526 q 490 569 593 569 m 416 893 l 564 975 l 612 885 l 474 809 l 357 809 l 219 885 l 268 975 l 416 893 z "},"Ś":{"ha":833,"x_min":87,"x_max":745,"o":"m 410 125 l 425 125 q 486 132 458 125 q 532 150 514 139 q 563 174 549 161 q 584 201 577 187 q 596 225 591 214 q 602 243 601 236 l 603 250 l 603 269 q 512 384 603 352 l 271 469 q 207 506 234 481 q 166 555 180 530 q 144 611 152 580 q 134 661 136 642 q 132 701 132 681 l 132 719 q 152 806 132 762 q 205 885 171 849 q 295 944 240 921 q 416 966 351 966 l 422 966 q 613 928 536 966 q 724 819 690 890 l 595 758 q 422 824 563 824 l 416 824 q 349 812 378 824 q 305 783 320 801 q 282 749 290 766 q 275 719 275 732 l 275 701 q 289 638 275 668 q 318 603 304 608 l 561 518 q 626 487 595 506 q 684 439 656 468 q 729 366 712 410 q 745 269 745 322 l 745 250 q 736 187 745 220 q 704 117 727 154 q 646 51 680 80 q 553 2 611 22 q 425 -17 496 -17 l 410 -17 q 181 63 276 -17 q 87 250 87 142 l 229 250 q 280 166 229 206 q 410 125 332 125 m 380 939 l 286 1030 l 460 1215 l 555 1123 l 380 939 z "},"ś":{"ha":833,"x_min":88,"x_max":745,"o":"m 425 125 q 553 142 504 125 q 603 185 603 159 l 603 214 q 592 237 603 223 q 564 256 581 251 l 262 334 q 194 366 224 345 q 148 413 164 387 q 124 465 132 439 q 116 515 116 491 l 116 522 q 123 571 116 547 q 149 621 130 595 q 200 667 169 648 q 285 699 231 686 q 410 711 339 711 l 425 711 q 594 675 512 711 q 718 574 676 640 l 597 498 q 533 547 580 524 q 425 569 486 569 l 410 569 q 349 565 376 569 q 305 555 321 561 q 278 543 289 549 q 262 531 267 536 q 258 522 258 526 l 258 515 q 268 492 258 507 q 296 473 277 478 l 599 394 q 703 327 661 378 q 745 214 745 275 l 745 185 q 720 92 745 132 q 648 29 694 52 q 547 -6 603 5 q 425 -17 491 -17 l 382 -17 q 303 -7 344 -17 q 225 22 263 2 q 156 71 186 43 q 107 139 125 98 q 88 224 88 179 l 231 224 q 236 201 231 215 q 256 169 242 187 q 303 138 271 151 q 382 125 336 125 l 425 125 m 385 711 l 290 802 l 465 987 l 560 895 l 385 711 z "},"Ŝ":{"ha":833,"x_min":87,"x_max":745,"o":"m 410 125 l 425 125 q 486 132 458 125 q 532 150 514 139 q 563 174 549 161 q 584 201 577 187 q 596 225 591 214 q 602 243 601 236 l 603 250 l 603 269 q 512 384 603 352 l 271 469 q 207 506 234 481 q 166 555 180 530 q 144 611 152 580 q 134 661 136 642 q 132 701 132 681 l 132 719 q 152 806 132 762 q 205 885 171 849 q 295 944 240 921 q 416 966 351 966 l 422 966 q 613 928 536 966 q 724 819 690 890 l 595 758 q 422 824 563 824 l 416 824 q 349 812 378 824 q 305 783 320 801 q 282 749 290 766 q 275 719 275 732 l 275 701 q 289 638 275 668 q 318 603 304 608 l 561 518 q 626 487 595 506 q 684 439 656 468 q 729 366 712 410 q 745 269 745 322 l 745 250 q 736 187 745 220 q 704 117 727 154 q 646 51 680 80 q 553 2 611 22 q 425 -17 496 -17 l 410 -17 q 181 63 276 -17 q 87 250 87 142 l 229 250 q 280 166 229 206 q 410 125 332 125 m 490 1156 l 628 1080 l 579 990 l 431 1072 l 283 990 l 235 1080 l 373 1156 l 490 1156 z "},"ŝ":{"ha":833,"x_min":88,"x_max":745,"o":"m 425 125 q 553 142 504 125 q 603 185 603 159 l 603 214 q 592 237 603 223 q 564 256 581 251 l 262 334 q 194 366 224 345 q 148 413 164 387 q 124 465 132 439 q 116 515 116 491 l 116 522 q 123 571 116 547 q 149 621 130 595 q 200 667 169 648 q 285 699 231 686 q 410 711 339 711 l 425 711 q 594 675 512 711 q 718 574 676 640 l 597 498 q 533 547 580 524 q 425 569 486 569 l 410 569 q 349 565 376 569 q 305 555 321 561 q 278 543 289 549 q 262 531 267 536 q 258 522 258 526 l 258 515 q 268 492 258 507 q 296 473 277 478 l 599 394 q 703 327 661 378 q 745 214 745 275 l 745 185 q 720 92 745 132 q 648 29 694 52 q 547 -6 603 5 q 425 -17 491 -17 l 382 -17 q 303 -7 344 -17 q 225 22 263 2 q 156 71 186 43 q 107 139 125 98 q 88 224 88 179 l 231 224 q 236 201 231 215 q 256 169 242 187 q 303 138 271 151 q 382 125 336 125 l 425 125 m 495 956 l 633 880 l 585 790 l 437 871 l 289 790 l 240 880 l 378 956 l 495 956 z "},"Ş":{"ha":833,"x_min":87,"x_max":745,"o":"m 410 125 l 425 125 q 486 132 458 125 q 532 150 514 139 q 563 174 549 161 q 584 201 577 187 q 596 225 591 214 q 602 243 601 236 l 603 250 l 603 269 q 512 384 603 352 l 271 469 q 207 506 234 481 q 166 555 180 530 q 144 611 152 580 q 134 661 136 642 q 132 701 132 681 l 132 719 q 152 806 132 762 q 205 885 171 849 q 295 944 240 921 q 416 966 351 966 l 422 966 q 613 928 536 966 q 724 819 690 890 l 595 758 q 422 824 563 824 l 416 824 q 349 812 378 824 q 305 783 320 801 q 282 749 290 766 q 275 719 275 732 l 275 701 q 289 638 275 668 q 318 603 304 608 l 561 518 q 626 487 595 506 q 684 439 656 468 q 729 366 712 410 q 745 269 745 322 l 745 250 q 736 187 745 220 q 704 117 727 154 q 646 51 680 80 q 553 2 611 22 q 425 -17 496 -17 l 410 -17 q 181 63 276 -17 q 87 250 87 142 l 229 250 q 280 166 229 206 q 410 125 332 125 m 496 -191 q 413 -134 496 -134 l 359 -134 l 368 -5 l 368 5 l 470 5 l 470 -9 l 467 -50 q 598 -191 598 -73 q 571 -274 598 -240 q 506 -323 545 -309 q 421 -337 467 -337 q 252 -273 326 -337 l 318 -209 q 421 -249 364 -249 q 476 -234 456 -249 q 496 -191 496 -218 z "},"ş":{"ha":833,"x_min":88,"x_max":745,"o":"m 425 125 q 553 142 504 125 q 603 185 603 159 l 603 214 q 592 237 603 223 q 564 256 581 251 l 262 334 q 194 366 224 345 q 148 413 164 387 q 124 465 132 439 q 116 515 116 491 l 116 522 q 123 571 116 547 q 149 621 130 595 q 200 667 169 648 q 285 699 231 686 q 410 711 339 711 l 425 711 q 594 675 512 711 q 718 574 676 640 l 597 498 q 533 547 580 524 q 425 569 486 569 l 410 569 q 349 565 376 569 q 305 555 321 561 q 278 543 289 549 q 262 531 267 536 q 258 522 258 526 l 258 515 q 268 492 258 507 q 296 473 277 478 l 599 394 q 703 327 661 378 q 745 214 745 275 l 745 185 q 720 92 745 132 q 648 29 694 52 q 547 -6 603 5 q 425 -17 491 -17 l 382 -17 q 303 -7 344 -17 q 225 22 263 2 q 156 71 186 43 q 107 139 125 98 q 88 224 88 179 l 231 224 q 236 201 231 215 q 256 169 242 187 q 303 138 271 151 q 382 125 336 125 l 425 125 m 505 -191 q 421 -134 505 -134 l 367 -134 l 376 -5 l 376 5 l 478 5 l 478 -9 l 475 -50 q 606 -191 606 -73 q 579 -274 606 -240 q 514 -323 553 -309 q 429 -337 475 -337 q 260 -273 334 -337 l 326 -209 q 429 -249 372 -249 q 484 -234 464 -249 q 505 -191 505 -218 z "},"Š":{"ha":833,"x_min":87,"x_max":745,"o":"m 410 125 l 425 125 q 486 132 458 125 q 532 150 514 139 q 563 174 549 161 q 584 201 577 187 q 596 225 591 214 q 602 243 601 236 l 603 250 l 603 269 q 512 384 603 352 l 271 469 q 207 506 234 481 q 166 555 180 530 q 144 611 152 580 q 134 661 136 642 q 132 701 132 681 l 132 719 q 152 806 132 762 q 205 885 171 849 q 295 944 240 921 q 416 966 351 966 l 422 966 q 613 928 536 966 q 724 819 690 890 l 595 758 q 422 824 563 824 l 416 824 q 349 812 378 824 q 305 783 320 801 q 282 749 290 766 q 275 719 275 732 l 275 701 q 289 638 275 668 q 318 603 304 608 l 561 518 q 626 487 595 506 q 684 439 656 468 q 729 366 712 410 q 745 269 745 322 l 745 250 q 736 187 745 220 q 704 117 727 154 q 646 51 680 80 q 553 2 611 22 q 425 -17 496 -17 l 410 -17 q 181 63 276 -17 q 87 250 87 142 l 229 250 q 280 166 229 206 q 410 125 332 125 m 431 1092 l 579 1173 l 628 1084 l 490 1008 l 373 1008 l 235 1084 l 283 1173 l 431 1092 z "},"š":{"ha":833,"x_min":88,"x_max":745,"o":"m 425 125 q 553 142 504 125 q 603 185 603 159 l 603 214 q 592 237 603 223 q 564 256 581 251 l 262 334 q 194 366 224 345 q 148 413 164 387 q 124 465 132 439 q 116 515 116 491 l 116 522 q 123 571 116 547 q 149 621 130 595 q 200 667 169 648 q 285 699 231 686 q 410 711 339 711 l 425 711 q 594 675 512 711 q 718 574 676 640 l 597 498 q 533 547 580 524 q 425 569 486 569 l 410 569 q 349 565 376 569 q 305 555 321 561 q 278 543 289 549 q 262 531 267 536 q 258 522 258 526 l 258 515 q 268 492 258 507 q 296 473 277 478 l 599 394 q 703 327 661 378 q 745 214 745 275 l 745 185 q 720 92 745 132 q 648 29 694 52 q 547 -6 603 5 q 425 -17 491 -17 l 382 -17 q 303 -7 344 -17 q 225 22 263 2 q 156 71 186 43 q 107 139 125 98 q 88 224 88 179 l 231 224 q 236 201 231 215 q 256 169 242 187 q 303 138 271 151 q 382 125 336 125 l 425 125 m 437 893 l 585 975 l 633 885 l 495 809 l 378 809 l 240 885 l 289 975 l 437 893 z "},"Ţ":{"ha":833,"x_min":88,"x_max":745,"o":"m 745 949 l 745 807 l 489 807 l 489 0 l 347 0 l 347 807 l 88 807 l 88 949 l 745 949 m 502 -174 q 418 -118 502 -118 l 364 -118 l 374 11 l 374 21 l 475 21 l 475 7 l 473 -34 q 604 -174 604 -56 q 577 -258 604 -224 q 511 -307 550 -292 q 427 -321 473 -321 q 257 -256 332 -321 l 323 -193 q 427 -233 370 -233 q 481 -217 461 -233 q 502 -174 502 -202 z "},"ţ":{"ha":833,"x_min":89,"x_max":708,"o":"m 490 -17 l 475 -17 q 308 50 379 -17 q 236 213 236 117 l 259 542 l 89 542 l 89 684 l 270 684 l 291 966 l 433 966 l 412 684 l 611 684 l 611 542 l 402 542 l 378 221 l 378 213 q 407 152 378 179 q 475 125 435 125 l 490 125 q 547 145 525 125 q 578 186 568 165 l 708 127 q 626 27 683 71 q 490 -17 569 -17 m 549 -187 q 466 -131 549 -131 l 412 -131 l 421 -2 l 421 8 l 523 8 l 523 -6 l 520 -47 q 651 -187 651 -69 q 624 -271 651 -237 q 559 -319 597 -305 q 474 -334 520 -334 q 304 -269 379 -334 l 371 -205 q 474 -245 417 -245 q 529 -230 509 -245 q 549 -187 549 -215 z "},"Ť":{"ha":833,"x_min":88,"x_max":745,"o":"m 745 949 l 745 807 l 489 807 l 489 0 l 347 0 l 347 807 l 88 807 l 88 949 l 745 949 m 418 1093 l 566 1175 l 614 1085 l 476 1009 l 359 1009 l 221 1085 l 270 1175 l 418 1093 z "},"ť":{"ha":833,"x_min":89,"x_max":715,"o":"m 490 -17 l 475 -17 q 308 50 379 -17 q 236 213 236 117 l 259 542 l 89 542 l 89 684 l 270 684 l 291 966 l 433 966 l 412 684 l 611 684 l 611 542 l 402 542 l 378 221 l 378 213 q 407 152 378 179 q 475 125 435 125 l 490 125 q 547 145 525 125 q 578 186 568 165 l 708 127 q 626 27 683 71 q 490 -17 569 -17 z "},"Ŧ":{"ha":833,"x_min":88,"x_max":745,"o":"m 745 949 l 745 807 l 489 807 l 489 449 l 745 449 l 745 307 l 489 307 l 489 0 l 347 0 l 347 307 l 88 307 l 88 449 l 347 449 l 347 807 l 88 807 l 88 949 l 745 949 z "},"ŧ":{"ha":833,"x_min":88,"x_max":745,"o":"m 475 -17 q 382 -1 424 -17 q 314 39 340 14 q 270 95 288 63 q 244 156 252 126 q 237 214 237 186 l 237 233 l 242 307 l 88 307 l 88 449 l 253 449 l 260 542 l 115 542 l 115 684 l 270 684 l 291 966 l 433 966 l 413 684 l 617 684 l 617 542 l 402 542 l 395 449 l 745 449 l 745 307 l 385 307 l 379 227 q 409 149 380 172 q 475 125 439 125 l 490 125 q 543 144 517 127 q 574 177 568 162 l 712 143 q 665 64 694 98 q 603 15 635 31 q 542 -9 570 -2 q 490 -17 514 -17 l 475 -17 z "},"Ũ":{"ha":833,"x_min":88,"x_max":745,"o":"m 231 269 q 276 166 231 207 q 410 125 321 125 l 425 125 q 558 166 513 125 q 603 269 603 206 l 603 949 l 745 949 l 745 269 q 724 160 745 212 q 664 70 703 109 q 563 6 625 30 q 425 -17 501 -17 l 410 -17 q 273 6 334 -17 q 171 69 211 30 q 110 160 131 109 q 88 269 88 212 l 88 949 l 231 949 l 231 269 m 189 1106 q 316 1186 241 1186 l 327 1186 q 436 1149 394 1186 l 449 1137 q 466 1130 452 1135 q 490 1125 479 1125 l 502 1125 q 523 1134 511 1125 q 545 1158 535 1142 l 554 1175 l 642 1123 l 633 1107 q 579 1050 612 1071 q 524 1027 546 1029 l 502 1023 l 490 1023 q 429 1035 460 1023 q 381 1061 398 1046 l 369 1072 q 327 1084 355 1084 l 316 1084 q 274 1050 296 1084 l 262 1033 l 177 1088 l 189 1106 z "},"ũ":{"ha":833,"x_min":88,"x_max":745,"o":"m 408 125 q 473 142 441 125 q 528 184 505 159 q 568 237 550 209 q 594 289 585 266 q 603 326 602 312 l 603 694 l 745 694 l 745 0 l 603 0 l 603 63 q 408 -17 507 -17 l 391 -17 q 254 5 313 -17 q 159 66 194 28 q 106 153 123 105 q 88 256 88 201 l 88 694 l 231 694 l 231 256 q 237 208 231 229 q 261 166 244 186 q 310 136 277 147 q 391 125 343 125 l 408 125 m 189 895 q 316 975 241 975 l 327 975 q 436 938 394 975 l 449 926 q 466 919 452 924 q 490 914 479 914 l 502 914 q 523 923 511 914 q 545 947 535 931 l 554 964 l 642 912 l 633 896 q 579 839 612 860 q 524 816 546 819 l 502 812 l 490 812 q 429 824 460 812 q 381 850 398 836 l 369 861 q 327 873 355 873 l 316 873 q 274 840 296 873 l 262 822 l 177 878 l 189 895 z "},"Ū":{"ha":833,"x_min":88,"x_max":745,"o":"m 231 269 q 276 166 231 207 q 410 125 321 125 l 425 125 q 558 166 513 125 q 603 269 603 206 l 603 949 l 745 949 l 745 269 q 724 160 745 212 q 664 70 703 109 q 563 6 625 30 q 425 -17 501 -17 l 410 -17 q 273 6 334 -17 q 171 69 211 30 q 110 160 131 109 q 88 269 88 212 l 88 949 l 231 949 l 231 269 m 263 1019 l 263 1121 l 570 1121 l 570 1019 l 263 1019 z "},"ū":{"ha":833,"x_min":88,"x_max":745,"o":"m 408 125 q 473 142 441 125 q 528 184 505 159 q 568 237 550 209 q 594 289 585 266 q 603 326 602 312 l 603 694 l 745 694 l 745 0 l 603 0 l 603 63 q 408 -17 507 -17 l 391 -17 q 254 5 313 -17 q 159 66 194 28 q 106 153 123 105 q 88 256 88 201 l 88 694 l 231 694 l 231 256 q 237 208 231 229 q 261 166 244 186 q 310 136 277 147 q 391 125 343 125 l 408 125 m 263 770 l 263 871 l 570 871 l 570 770 l 263 770 z "},"Ŭ":{"ha":833,"x_min":88,"x_max":745,"o":"m 231 269 q 276 166 231 207 q 410 125 321 125 l 425 125 q 558 166 513 125 q 603 269 603 206 l 603 949 l 745 949 l 745 269 q 724 160 745 212 q 664 70 703 109 q 563 6 625 30 q 425 -17 501 -17 l 410 -17 q 273 6 334 -17 q 171 69 211 30 q 110 160 131 109 q 88 269 88 212 l 88 949 l 231 949 l 231 269 m 416 995 q 308 1020 359 995 q 221 1089 258 1045 l 298 1154 q 416 1097 347 1097 q 536 1155 486 1097 l 613 1090 q 525 1020 576 1046 q 416 995 474 995 z "},"ŭ":{"ha":833,"x_min":88,"x_max":745,"o":"m 408 125 q 473 142 441 125 q 528 184 505 159 q 568 237 550 209 q 594 289 585 266 q 603 326 602 312 l 603 694 l 745 694 l 745 0 l 603 0 l 603 63 q 408 -17 507 -17 l 391 -17 q 254 5 313 -17 q 159 66 194 28 q 106 153 123 105 q 88 256 88 201 l 88 694 l 231 694 l 231 256 q 237 208 231 229 q 261 166 244 186 q 310 136 277 147 q 391 125 343 125 l 408 125 m 416 793 q 308 818 359 793 q 221 887 258 843 l 298 952 q 416 895 347 895 q 536 953 486 895 l 613 888 q 525 818 576 844 q 416 793 474 793 z "},"Ů":{"ha":833,"x_min":88,"x_max":745,"o":"m 231 245 q 276 151 231 189 q 410 114 321 114 l 425 114 q 558 151 513 114 q 603 245 603 188 l 603 871 l 745 871 l 745 245 q 724 146 745 193 q 664 62 703 99 q 563 5 625 26 q 425 -17 501 -17 l 410 -17 q 273 5 334 -17 q 171 62 211 26 q 110 146 131 98 q 88 245 88 193 l 88 871 l 231 871 l 231 245 m 314 915 q 294 935 314 915 q 275 1012 275 955 q 314 1109 275 1069 q 410 1149 353 1149 q 508 1109 467 1149 q 549 1012 549 1069 q 508 915 549 955 q 410 875 467 875 q 314 915 353 875 m 367 1056 q 358 1047 367 1056 q 349 1012 349 1038 q 367 968 349 986 q 411 949 385 949 q 455 968 437 949 q 474 1012 474 986 q 455 1056 474 1038 q 411 1074 437 1074 q 367 1056 385 1074 z "},"ů":{"ha":833,"x_min":88,"x_max":745,"o":"m 408 125 q 473 142 441 125 q 528 184 505 159 q 568 237 550 209 q 594 289 585 266 q 603 326 602 312 l 603 694 l 745 694 l 745 0 l 603 0 l 603 63 q 408 -17 507 -17 l 391 -17 q 254 5 313 -17 q 159 66 194 28 q 106 153 123 105 q 88 256 88 201 l 88 694 l 231 694 l 231 256 q 237 208 231 229 q 261 166 244 186 q 310 136 277 147 q 391 125 343 125 l 408 125 m 314 831 q 294 851 314 831 q 275 928 275 871 q 314 1025 275 985 q 410 1065 353 1065 q 508 1025 467 1065 q 549 928 549 985 q 508 831 549 871 q 410 791 467 791 q 314 831 353 791 m 367 972 q 358 963 367 972 q 349 928 349 954 q 367 884 349 903 q 411 866 385 866 q 455 884 437 866 q 474 928 474 903 q 455 972 474 954 q 411 991 437 991 q 367 972 385 991 z "},"Ű":{"ha":833,"x_min":88,"x_max":745,"o":"m 231 269 q 276 166 231 207 q 410 125 321 125 l 425 125 q 558 166 513 125 q 603 269 603 206 l 603 949 l 745 949 l 745 269 q 724 160 745 212 q 664 70 703 109 q 563 6 625 30 q 425 -17 501 -17 l 410 -17 q 273 6 334 -17 q 171 69 211 30 q 110 160 131 109 q 88 269 88 212 l 88 949 l 231 949 l 231 269 z "},"ű":{"ha":833,"x_min":88,"x_max":745,"o":"m 408 125 q 473 142 441 125 q 528 184 505 159 q 568 237 550 209 q 594 289 585 266 q 603 326 602 312 l 603 694 l 745 694 l 745 0 l 603 0 l 603 63 q 408 -17 507 -17 l 391 -17 q 254 5 313 -17 q 159 66 194 28 q 106 153 123 105 q 88 256 88 201 l 88 694 l 231 694 l 231 256 q 237 208 231 229 q 261 166 244 186 q 310 136 277 147 q 391 125 343 125 l 408 125 z "},"Ų":{"ha":833,"x_min":88,"x_max":745,"o":"m 231 269 q 276 166 231 207 q 410 125 321 125 l 425 125 q 558 166 513 125 q 603 269 603 206 l 603 949 l 745 949 l 745 269 q 724 160 745 212 q 664 70 703 109 q 563 6 625 30 q 425 -17 501 -17 l 410 -17 q 273 6 334 -17 q 171 69 211 30 q 110 160 131 109 q 88 269 88 212 l 88 949 l 231 949 l 231 269 m 484 -260 q 393 -294 444 -294 q 296 -253 336 -294 q 256 -155 256 -212 q 294 -59 256 -100 l 366 12 l 366 40 l 467 40 l 467 -30 l 368 -130 q 357 -155 357 -140 q 368 -181 357 -170 q 393 -192 378 -192 q 417 -183 406 -192 l 435 -168 l 503 -243 l 484 -260 z "},"ų":{"ha":833,"x_min":88,"x_max":781,"o":"m 408 125 q 473 142 441 125 q 528 184 505 159 q 568 237 550 209 q 594 289 585 266 q 603 326 602 312 l 603 694 l 745 694 l 745 0 l 603 0 l 603 63 q 408 -17 507 -17 l 391 -17 q 254 5 313 -17 q 159 66 194 28 q 106 153 123 105 q 88 256 88 201 l 88 694 l 231 694 l 231 256 q 237 208 231 229 q 261 166 244 186 q 310 136 277 147 q 391 125 343 125 l 408 125 m 762 -260 q 671 -294 722 -294 q 574 -253 614 -294 q 534 -155 534 -212 q 572 -59 534 -100 l 644 12 l 644 40 l 745 40 l 745 -30 l 646 -130 q 635 -155 635 -140 q 646 -181 635 -170 q 671 -192 656 -192 q 695 -183 684 -192 l 713 -168 l 781 -243 l 762 -260 z "},"Ŵ":{"ha":833,"x_min":50,"x_max":787,"o":"m 145 0 l 50 949 l 193 949 l 250 379 l 368 796 l 467 796 l 585 378 l 644 949 l 787 949 l 690 0 q 544 0 690 0 l 418 448 l 291 0 q 145 0 291 0 m 477 1154 l 615 1078 l 566 988 l 418 1069 l 271 988 l 222 1078 l 360 1154 l 477 1154 z "},"ŵ":{"ha":833,"x_min":41,"x_max":795,"o":"m 147 0 l 41 694 l 185 694 l 242 320 l 365 623 l 471 623 l 593 320 l 651 694 l 795 694 l 688 0 q 570 0 688 0 l 418 374 l 266 0 q 147 0 266 0 m 477 954 l 615 878 l 566 789 l 418 870 l 271 789 l 222 878 l 360 954 l 477 954 z "},"Ŷ":{"ha":833,"x_min":50,"x_max":787,"o":"m 347 -17 l 347 332 l 50 949 l 208 949 l 418 512 l 629 949 l 787 949 l 489 332 l 489 -17 l 347 -17 m 477 1149 l 615 1074 l 566 984 l 418 1065 l 271 984 l 222 1074 l 360 1149 l 477 1149 z "},"ŷ":{"ha":833,"x_min":56,"x_max":799,"o":"m 799 694 l 528 -96 q 442 -224 500 -178 q 301 -271 383 -271 l 283 -271 q 183 -245 239 -271 q 84 -180 128 -220 l 71 -169 l 165 -62 l 185 -79 q 237 -114 209 -100 q 283 -128 264 -128 l 301 -128 q 393 -53 367 -128 l 435 72 l 56 694 l 223 694 l 495 247 l 648 694 l 799 694 m 490 954 l 628 878 l 579 789 l 431 870 l 283 789 l 235 878 l 373 954 l 490 954 z "},"Ÿ":{"ha":833,"x_min":50,"x_max":787,"o":"m 347 -17 l 347 332 l 50 949 l 208 949 l 418 512 l 629 949 l 787 949 l 489 332 l 489 -17 l 347 -17 m 345 1081 q 315 1007 345 1039 q 245 976 286 976 q 174 1007 204 976 q 144 1081 144 1038 q 175 1154 144 1126 q 244 1182 205 1182 q 315 1152 286 1182 q 345 1081 345 1122 m 691 1081 q 661 1006 691 1036 q 592 976 631 976 q 522 1007 552 976 q 492 1081 492 1038 q 522 1153 492 1124 q 592 1182 551 1182 q 661 1154 631 1182 q 691 1081 691 1125 z "},"Ź":{"ha":833,"x_min":88,"x_max":745,"o":"m 88 807 l 88 949 l 745 949 l 745 817 l 271 143 l 745 143 l 745 0 l 88 0 l 88 130 l 565 807 l 88 807 m 425 938 l 330 1029 l 505 1214 l 600 1122 l 425 938 z "},"ź":{"ha":833,"x_min":87,"x_max":744,"o":"m 87 140 l 515 552 l 100 552 l 100 694 l 744 694 l 744 574 l 295 142 l 744 142 l 744 0 l 87 0 l 87 140 m 426 709 l 331 801 l 506 985 l 601 894 l 426 709 z "},"Ż":{"ha":833,"x_min":88,"x_max":745,"o":"m 88 807 l 88 949 l 745 949 l 745 817 l 271 143 l 745 143 l 745 0 l 88 0 l 88 130 l 565 807 l 88 807 m 336 1006 q 321 1021 336 1006 q 306 1082 306 1037 q 336 1157 306 1126 q 412 1188 367 1188 q 488 1157 456 1188 q 519 1082 519 1126 q 488 1006 519 1037 q 412 975 456 975 q 336 1006 367 975 z "},"ż":{"ha":833,"x_min":87,"x_max":744,"o":"m 87 140 l 515 552 l 100 552 l 100 694 l 744 694 l 744 574 l 295 142 l 744 142 l 744 0 l 87 0 l 87 140 m 337 804 q 322 819 337 804 q 307 880 307 835 q 337 955 307 924 q 412 986 368 986 q 488 955 457 986 q 519 880 519 924 q 488 804 519 835 q 412 773 457 773 q 337 804 368 773 z "},"Ž":{"ha":833,"x_min":88,"x_max":745,"o":"m 88 807 l 88 949 l 745 949 l 745 817 l 271 143 l 745 143 l 745 0 l 88 0 l 88 130 l 565 807 l 88 807 m 416 1092 l 564 1173 l 612 1084 l 474 1008 l 357 1008 l 219 1084 l 268 1173 l 416 1092 z "},"ž":{"ha":833,"x_min":87,"x_max":744,"o":"m 87 140 l 515 552 l 100 552 l 100 694 l 744 694 l 744 574 l 295 142 l 744 142 l 744 0 l 87 0 l 87 140 m 416 892 l 564 973 l 613 884 l 475 808 l 358 808 l 220 884 l 269 973 l 416 892 z "},"ſ":{"ha":833,"x_min":88,"x_max":745,"o":"m 425 125 q 553 142 504 125 q 603 185 603 159 l 603 214 q 592 237 603 223 q 564 256 581 251 l 262 334 q 194 366 224 345 q 148 413 164 387 q 124 465 132 439 q 116 515 116 491 l 116 522 q 123 571 116 547 q 149 621 130 595 q 200 667 169 648 q 285 699 231 686 q 410 711 339 711 l 425 711 q 594 675 512 711 q 718 574 676 640 l 597 498 q 533 547 580 524 q 425 569 486 569 l 410 569 q 349 565 376 569 q 305 555 321 561 q 278 543 289 549 q 262 531 267 536 q 258 522 258 526 l 258 515 q 268 492 258 507 q 296 473 277 478 l 599 394 q 703 327 661 378 q 745 214 745 275 l 745 185 q 720 92 745 132 q 648 29 694 52 q 547 -6 603 5 q 425 -17 491 -17 l 382 -17 q 303 -7 344 -17 q 225 22 263 2 q 156 71 186 43 q 107 139 125 98 q 88 224 88 179 l 231 224 q 236 201 231 215 q 256 169 242 187 q 303 138 271 151 q 382 125 336 125 l 425 125 z "},"ƒ":{"ha":833,"x_min":64,"x_max":754,"o":"m 650 784 q 615 817 627 809 q 580 824 602 824 q 520 755 525 824 l 511 618 l 674 618 l 674 475 l 500 475 l 464 -53 q 444 -150 460 -108 q 405 -215 427 -192 q 354 -254 382 -239 q 302 -273 325 -269 q 256 -278 279 -278 q 137 -236 191 -278 q 64 -133 83 -194 l 200 -90 q 223 -122 205 -108 q 256 -136 240 -136 q 303 -110 287 -136 q 321 -43 319 -85 l 358 475 l 206 475 l 206 618 l 368 618 l 378 765 q 440 912 385 858 q 580 966 496 966 q 679 944 640 966 q 754 882 719 921 l 650 784 z "},"ȷ":{"ha":833,"x_min":204,"x_max":661,"o":"m 661 -47 q 601 -207 661 -143 q 431 -271 541 -271 q 204 -47 225 -271 l 347 -47 q 374 -105 351 -82 q 431 -128 398 -128 q 492 -105 467 -128 q 518 -47 518 -81 l 518 552 l 292 552 l 292 694 l 661 694 l 661 -47 z "},"ˆ":{"ha":833,"x_min":221,"x_max":614,"o":"m 476 1111 l 614 1035 l 566 945 l 418 1027 l 270 945 l 221 1035 l 359 1111 l 476 1111 z "},"ˇ":{"ha":833,"x_min":221,"x_max":614,"o":"m 418 1048 l 566 1130 l 614 1040 l 476 964 l 359 964 l 221 1040 l 270 1130 l 418 1048 z "},"ˉ":{"ha":833,"x_min":263,"x_max":570,"o":"m 263 992 l 263 1094 l 570 1094 l 570 992 l 263 992 z "},"ˋ":{"ha":833,"x_min":302,"x_max":572,"o":"m 572 986 l 477 895 l 302 1079 l 397 1171 l 572 986 z "},"˘":{"ha":833,"x_min":221,"x_max":613,"o":"m 416 953 q 308 978 359 953 q 221 1047 258 1003 l 298 1112 q 416 1055 347 1055 q 536 1113 486 1055 l 613 1048 q 525 978 576 1004 q 416 953 474 953 z "},"˙":{"ha":833,"x_min":308,"x_max":521,"o":"m 338 946 q 323 962 338 946 q 308 1022 308 977 q 338 1098 308 1067 q 414 1128 369 1128 q 490 1098 458 1128 q 521 1022 521 1067 q 490 946 521 977 q 414 916 458 916 q 338 946 369 916 z "},"˚":{"ha":833,"x_min":275,"x_max":549,"o":"m 314 869 q 294 889 314 869 q 275 966 275 909 q 314 1063 275 1023 q 410 1103 353 1103 q 508 1063 467 1103 q 549 966 549 1023 q 508 869 549 909 q 410 829 467 829 q 314 869 353 829 m 367 1010 q 358 1001 367 1010 q 349 966 349 992 q 367 922 349 941 q 411 904 385 904 q 455 922 437 904 q 474 966 474 941 q 455 1010 474 992 q 411 1029 437 1029 q 367 1010 385 1029 z "},"˛":{"ha":833,"x_min":303,"x_max":550,"o":"m 531 -252 q 441 -285 491 -285 q 343 -244 384 -285 q 303 -146 303 -203 q 342 -50 303 -91 l 413 21 l 413 49 l 515 49 l 515 -21 l 415 -121 q 405 -146 405 -131 q 415 -172 405 -161 q 441 -183 426 -183 q 465 -174 454 -183 l 482 -159 l 550 -235 l 531 -252 z "},"˜":{"ha":833,"x_min":185,"x_max":650,"o":"m 197 1064 q 324 1144 249 1144 l 335 1144 q 444 1107 402 1144 l 457 1095 q 474 1088 460 1093 q 498 1083 488 1083 l 510 1083 q 531 1092 519 1083 q 553 1116 543 1100 l 562 1133 l 650 1081 l 641 1065 q 587 1008 620 1029 q 532 985 554 987 l 510 981 l 498 981 q 437 993 468 981 q 389 1019 406 1004 l 377 1030 q 335 1042 363 1042 l 324 1042 q 282 1008 304 1042 l 271 991 l 185 1046 l 197 1064 z "},"˝":{"ha":833,"x_min":110,"x_max":677,"o":"m 205 890 l 110 982 l 285 1166 l 380 1075 l 205 890 m 502 895 l 407 986 l 582 1171 l 677 1079 l 502 895 z "},"̀":{"ha":833,"x_min":302,"x_max":572,"o":"m 572 986 l 477 895 l 302 1079 l 397 1171 l 572 986 z "},"́":{"ha":833,"x_min":262,"x_max":532,"o":"m 357 895 l 262 986 l 437 1171 l 532 1079 l 357 895 z "},"̃":{"ha":833,"x_min":185,"x_max":650,"o":"m 197 1064 q 324 1144 249 1144 l 335 1144 q 444 1107 402 1144 l 457 1095 q 474 1088 460 1093 q 498 1083 488 1083 l 510 1083 q 531 1092 519 1083 q 553 1116 543 1100 l 562 1133 l 650 1081 l 641 1065 q 587 1008 620 1029 q 532 985 554 987 l 510 981 l 498 981 q 437 993 468 981 q 389 1019 406 1004 l 377 1030 q 335 1042 363 1042 l 324 1042 q 282 1008 304 1042 l 271 991 l 185 1046 l 197 1064 z "},"̈":{"ha":833,"x_min":176,"x_max":650,"o":"m 328 927 q 305 872 328 896 q 252 848 283 848 q 199 871 222 848 q 176 927 176 895 q 199 981 176 960 q 252 1002 222 1002 q 306 980 283 1002 q 328 927 328 958 m 650 927 q 628 870 650 893 q 576 848 605 848 q 524 871 546 848 q 501 927 501 895 q 523 981 501 960 q 576 1002 545 1002 q 628 981 605 1002 q 650 927 650 960 z "},"̉":{"ha":833,"x_min":266,"x_max":607,"o":"m 607 1014 q 596 964 607 986 q 571 929 586 942 q 536 908 556 917 q 502 897 516 900 q 473 892 487 893 l 473 851 l 371 851 l 371 971 l 422 971 q 505 1014 505 971 q 480 1047 505 1036 q 430 1059 456 1059 q 321 1028 368 1059 l 266 1093 q 430 1140 337 1140 q 553 1107 500 1140 q 607 1014 607 1074 z "},"̌":{"ha":833,"x_min":221,"x_max":614,"o":"m 418 1048 l 566 1130 l 614 1040 l 476 964 l 359 964 l 221 1040 l 270 1130 l 418 1048 z "},"̒":{"ha":833,"x_min":275,"x_max":621,"o":"m 519 -183 q 436 -127 519 -127 l 382 -127 l 391 2 l 391 12 l 493 12 l 493 -2 l 490 -43 q 621 -183 621 -65 q 594 -267 621 -233 q 529 -315 568 -301 q 444 -330 490 -330 q 275 -265 349 -330 l 341 -201 q 444 -241 387 -241 q 499 -226 479 -241 q 519 -183 519 -211 z "},"̕":{"ha":833,"x_min":481,"x_max":745,"o":"m 557 781 q 506 814 532 789 q 481 869 481 840 q 518 962 481 922 q 612 1002 555 1002 q 707 963 669 1002 q 745 869 745 924 q 513 604 745 629 l 500 654 q 556 688 530 666 q 583 735 583 709 q 575 763 583 747 q 557 781 567 779 z "},"̣":{"ha":833,"x_min":338,"x_max":497,"o":"m 361 -228 q 350 -216 361 -228 q 338 -172 338 -205 q 361 -115 338 -138 q 417 -92 384 -92 q 474 -115 450 -92 q 497 -172 497 -138 q 474 -228 497 -205 q 417 -251 450 -251 q 361 -228 384 -251 z "},"̦":{"ha":833,"x_min":295,"x_max":559,"o":"m 372 -241 q 320 -208 346 -233 q 295 -153 295 -182 q 332 -60 295 -100 q 427 -20 369 -20 q 521 -59 484 -20 q 559 -153 559 -98 q 328 -418 559 -393 l 314 -368 q 371 -334 345 -356 q 397 -287 397 -313 q 389 -259 397 -275 q 372 -241 381 -243 z "},"΄":{"ha":833,"x_min":262,"x_max":532,"o":"m 357 895 l 262 986 l 437 1171 l 532 1079 l 357 895 z "},"Α":{"ha":833,"x_min":59,"x_max":777,"o":"m 302 300 l 534 300 l 418 665 l 302 300 m 59 0 l 364 966 l 471 966 l 777 0 l 629 0 l 579 158 l 257 158 l 207 0 l 59 0 z "},"Β":{"ha":833,"x_min":88,"x_max":745,"o":"m 557 739 q 548 779 557 766 q 500 800 538 792 q 380 807 461 807 l 231 807 l 231 592 l 380 592 q 465 597 431 592 q 517 611 498 603 q 544 633 535 618 q 555 661 553 648 q 557 694 557 673 l 557 739 m 603 330 q 594 383 603 361 q 572 418 586 405 q 534 438 557 431 q 485 447 510 445 q 425 450 460 450 l 231 450 l 231 142 l 425 142 q 507 149 472 142 q 559 165 541 156 q 588 189 577 175 q 601 214 598 203 q 603 237 603 224 l 603 330 m 745 237 q 744 210 745 224 q 736 172 743 197 q 717 126 729 147 q 681 80 705 104 q 624 39 656 56 q 540 11 591 22 q 425 0 489 0 l 88 0 l 88 949 l 380 949 q 475 946 435 949 q 561 929 516 942 q 634 894 605 916 q 681 832 663 871 q 700 739 700 793 l 700 694 q 651 535 700 594 q 745 330 745 467 l 745 237 z "},"Γ":{"ha":833,"x_min":88,"x_max":745,"o":"m 88 0 l 88 949 l 745 949 l 745 807 l 231 807 l 231 0 l 88 0 z "},"Δ":{"ha":833,"x_min":63,"x_max":770,"o":"m 578 143 l 418 677 l 256 142 l 578 143 m 63 0 l 356 966 l 479 966 l 770 0 l 63 0 z "},"Ε":{"ha":833,"x_min":88,"x_max":745,"o":"m 231 450 l 231 143 l 745 143 l 745 0 l 88 0 l 88 949 l 745 949 l 745 807 l 231 807 l 231 592 l 636 592 l 636 450 l 231 450 z "},"Ζ":{"ha":833,"x_min":88,"x_max":745,"o":"m 88 807 l 88 949 l 745 949 l 745 817 l 271 143 l 745 143 l 745 0 l 88 0 l 88 130 l 565 807 l 88 807 z "},"Η":{"ha":833,"x_min":88,"x_max":745,"o":"m 231 0 l 88 0 l 88 949 l 231 949 l 231 557 l 603 557 l 603 949 l 745 949 l 745 0 l 603 0 l 603 415 l 231 415 l 231 0 z "},"Θ":{"ha":833,"x_min":88,"x_max":745,"o":"m 507 537 l 507 395 l 328 395 l 328 537 l 507 537 m 424 824 l 412 824 q 338 803 370 824 q 286 748 305 781 q 253 669 266 715 q 235 581 240 624 q 231 492 231 538 l 231 450 q 235 367 231 408 q 253 281 240 326 q 286 203 266 237 q 338 147 305 169 q 413 125 371 125 l 424 125 q 498 148 465 125 q 550 203 530 170 q 582 282 569 237 q 598 368 594 327 q 603 450 603 409 l 603 494 q 594 600 603 547 q 567 706 586 653 q 512 791 549 759 q 424 824 475 824 m 745 494 l 745 450 q 658 107 745 231 q 424 -17 570 -17 l 413 -17 q 177 109 266 -17 q 88 450 88 234 l 88 492 q 99 630 88 564 q 134 758 109 696 q 195 866 159 820 q 288 939 232 911 q 412 966 343 966 l 424 966 q 657 836 568 966 q 745 494 745 706 z "},"Ι":{"ha":833,"x_min":156,"x_max":677,"o":"m 677 949 l 677 807 l 489 807 l 489 142 l 677 142 l 677 0 l 156 0 l 156 142 l 347 142 l 347 807 l 156 807 l 156 949 l 677 949 z "},"Κ":{"ha":833,"x_min":87,"x_max":806,"o":"m 87 0 l 87 949 l 230 949 l 230 522 l 605 949 l 795 949 l 430 534 l 806 0 q 632 0 806 0 l 334 424 l 230 306 l 230 0 l 87 0 z "},"Λ":{"ha":833,"x_min":59,"x_max":777,"o":"m 72 0 l 59 4 l 357 966 l 479 966 l 777 4 l 764 0 q 629 0 764 0 l 418 683 l 207 0 q 72 0 207 0 z "},"Μ":{"ha":833,"x_min":45,"x_max":789,"o":"m 45 0 l 142 949 l 288 949 l 418 503 l 546 949 l 692 949 l 789 0 q 646 0 789 0 l 587 578 l 466 157 l 370 157 l 248 579 l 188 0 l 45 0 z "},"Ν":{"ha":833,"x_min":88,"x_max":745,"o":"m 231 0 l 88 0 l 88 949 l 210 949 l 603 308 l 603 949 l 745 949 l 745 0 q 625 0 745 0 l 231 643 l 231 0 z "},"Ξ":{"ha":833,"x_min":88,"x_max":745,"o":"m 88 710 l 88 949 l 745 949 l 745 710 l 603 710 l 603 807 l 231 807 l 231 710 l 88 710 m 536 537 l 536 395 l 300 395 l 300 537 l 536 537 m 231 142 l 603 142 l 603 237 l 745 237 l 745 0 l 88 0 l 88 237 l 231 237 l 231 142 z "},"Ο":{"ha":833,"x_min":88,"x_max":745,"o":"m 424 824 l 412 824 q 308 795 347 824 q 250 696 269 766 q 231 506 231 626 l 231 464 q 275 209 231 293 q 413 125 319 125 l 424 125 q 560 209 517 126 q 603 464 603 292 l 603 507 q 585 696 603 627 q 528 795 566 766 q 424 824 490 824 m 745 507 l 745 464 q 734 306 745 377 q 704 185 723 234 q 659 99 686 136 q 605 40 632 62 q 544 5 577 19 q 483 -13 511 -8 q 424 -17 454 -17 l 413 -17 q 354 -13 382 -17 q 292 5 326 -8 q 230 41 258 19 q 175 100 202 62 q 130 186 149 137 q 100 306 111 235 q 88 464 88 377 l 88 506 q 94 623 88 570 q 112 731 99 677 q 150 826 125 785 q 209 900 174 867 q 295 949 243 932 q 412 966 347 966 l 424 966 q 542 949 490 966 q 628 899 593 932 q 686 826 663 867 q 723 730 710 785 q 740 624 735 676 q 745 507 745 571 z "},"Π":{"ha":833,"x_min":88,"x_max":745,"o":"m 88 0 l 88 949 l 745 949 l 745 0 l 603 0 l 603 807 l 231 807 l 231 0 l 88 0 z "},"Ρ":{"ha":833,"x_min":88,"x_max":745,"o":"m 425 537 q 536 553 496 537 q 589 595 576 568 q 603 669 603 623 l 603 719 q 591 769 603 752 q 540 797 579 787 q 425 807 501 807 l 231 807 l 231 537 l 425 537 m 745 719 l 745 669 q 668 467 745 539 q 425 395 591 395 l 231 395 l 231 0 l 88 0 l 88 949 l 425 949 q 579 935 517 949 q 679 890 642 920 q 730 818 715 859 q 745 719 745 777 z "},"Σ":{"ha":833,"x_min":88,"x_max":745,"o":"m 88 949 l 745 949 l 745 807 l 269 807 l 528 490 l 260 125 l 745 125 l 745 -17 l 88 -17 l 88 132 l 347 486 l 88 804 l 88 949 z "},"Τ":{"ha":833,"x_min":88,"x_max":745,"o":"m 745 949 l 745 807 l 489 807 l 489 0 l 347 0 l 347 807 l 88 807 l 88 949 l 745 949 z "},"Υ":{"ha":833,"x_min":50,"x_max":787,"o":"m 347 -17 l 347 332 l 50 949 l 208 949 l 418 512 l 629 949 l 787 949 l 489 332 l 489 -17 l 347 -17 z "},"Φ":{"ha":833,"x_min":88,"x_max":745,"o":"m 745 484 q 729 332 745 401 q 687 218 713 262 q 629 143 662 174 q 564 99 596 112 q 500 85 531 85 l 489 85 l 489 -17 l 347 -17 l 347 85 l 337 85 q 230 123 279 85 q 152 220 182 161 q 105 348 121 279 q 88 484 88 416 l 88 519 q 104 671 88 603 q 146 782 121 740 q 206 853 172 825 q 272 894 239 882 q 336 905 304 905 l 347 905 l 347 966 l 489 966 l 489 905 l 500 905 q 624 850 567 905 q 713 706 682 795 q 745 519 745 617 l 745 484 m 603 519 q 591 622 603 574 q 561 700 578 670 q 527 746 544 729 q 500 763 510 763 l 489 763 l 489 228 l 500 228 q 518 236 507 228 q 545 263 530 243 q 572 311 559 283 q 594 384 585 338 q 603 484 603 430 l 603 519 m 231 484 q 248 360 231 420 q 290 263 265 299 q 337 228 315 228 l 347 228 l 347 763 l 336 763 q 317 757 328 763 q 290 734 305 751 q 261 691 274 717 q 240 620 249 665 q 231 519 231 575 l 231 484 z "},"Χ":{"ha":833,"x_min":52,"x_max":785,"o":"m 52 0 l 335 475 l 52 949 l 218 949 l 418 614 l 618 949 l 785 949 l 501 475 l 785 0 q 618 0 785 0 l 418 336 l 218 0 q 52 0 218 0 z "},"Ψ":{"ha":833,"x_min":62,"x_max":774,"o":"m 204 522 q 237 447 204 476 q 312 418 270 418 l 347 418 l 347 966 l 489 966 l 489 418 l 524 418 q 601 449 569 418 q 632 515 632 480 l 632 895 l 774 895 l 774 515 q 702 349 774 422 q 524 276 629 276 l 489 276 l 489 -16 l 347 -16 l 347 276 l 312 276 q 219 291 261 276 q 148 331 176 307 q 99 388 119 356 q 71 452 79 419 q 62 515 62 484 l 62 895 l 204 895 l 204 522 z "},"Ω":{"ha":833,"x_min":87,"x_max":745,"o":"m 239 142 l 239 185 q 165 256 196 212 q 118 349 134 299 q 95 444 102 398 q 87 534 87 490 l 87 568 q 176 859 87 751 q 412 967 265 967 l 424 967 q 657 859 569 967 q 745 570 745 751 l 745 534 q 705 320 745 413 q 595 184 665 227 l 595 142 l 745 142 l 745 0 l 453 0 l 453 281 l 503 296 q 577 378 551 311 q 603 534 603 446 l 603 570 q 595 656 603 615 q 568 738 587 698 q 512 801 549 777 q 424 825 475 825 l 412 825 q 323 801 360 825 q 266 739 286 778 q 238 657 247 699 q 230 568 230 615 l 230 534 q 258 382 230 451 q 335 295 286 313 l 381 278 l 381 0 l 87 0 l 87 142 l 239 142 z "},"Ϊ":{"ha":833,"x_min":144,"x_max":691,"o":"m 677 949 l 677 807 l 489 807 l 489 142 l 677 142 l 677 0 l 156 0 l 156 142 l 347 142 l 347 807 l 156 807 l 156 949 l 677 949 m 345 1081 q 315 1007 345 1039 q 245 976 286 976 q 174 1007 204 976 q 144 1081 144 1038 q 175 1154 144 1126 q 244 1182 205 1182 q 315 1152 286 1182 q 345 1081 345 1122 m 691 1081 q 661 1006 691 1036 q 592 976 631 976 q 522 1007 552 976 q 492 1081 492 1038 q 522 1153 492 1124 q 592 1182 551 1182 q 661 1154 631 1182 q 691 1081 691 1125 z "},"Ϋ":{"ha":833,"x_min":50,"x_max":787,"o":"m 347 -17 l 347 332 l 50 949 l 208 949 l 418 512 l 629 949 l 787 949 l 489 332 l 489 -17 l 347 -17 m 345 1080 q 315 1006 345 1038 q 245 975 286 975 q 174 1005 204 975 q 144 1080 144 1036 q 175 1153 144 1124 q 244 1181 205 1181 q 315 1151 286 1181 q 345 1080 345 1120 m 691 1080 q 661 1005 691 1035 q 592 975 631 975 q 522 1006 552 975 q 492 1080 492 1037 q 522 1152 492 1122 q 592 1181 551 1181 q 661 1152 631 1181 q 691 1080 691 1124 z "},"ά":{"ha":833,"x_min":88,"x_max":768,"o":"m 231 337 q 265 188 231 250 q 342 125 300 125 l 355 125 q 402 144 385 125 q 434 201 418 162 l 490 348 l 434 493 q 400 554 416 539 q 355 569 383 569 l 342 569 q 310 557 328 569 q 273 521 292 545 q 243 455 255 498 q 231 358 231 412 l 231 337 m 355 711 q 386 710 371 711 q 429 699 401 708 q 478 673 456 689 q 525 624 500 656 q 566 546 550 591 l 633 720 l 766 669 l 643 349 l 768 26 l 635 -26 l 567 151 q 538 92 553 117 q 498 40 523 66 q 437 -2 473 13 q 355 -17 400 -17 l 342 -17 q 215 31 273 -17 q 122 159 156 78 q 88 337 88 241 l 88 358 q 110 508 88 440 q 166 620 131 576 q 248 688 202 664 q 342 711 293 711 l 355 711 m 326 709 l 231 801 l 406 985 l 500 894 l 326 709 z "},"έ":{"ha":833,"x_min":88,"x_max":699,"o":"m 378 -17 q 274 -6 321 -17 q 198 21 227 5 q 146 60 168 37 q 114 103 125 83 q 97 148 103 123 q 89 184 90 172 q 88 210 88 197 l 88 220 q 153 359 88 301 q 111 417 127 380 q 92 473 95 454 q 88 507 89 492 q 104 591 88 554 q 145 650 119 627 q 210 686 172 672 q 289 706 248 701 q 378 711 329 711 l 445 711 q 602 687 537 711 q 699 631 666 663 l 600 528 q 546 555 585 542 q 445 569 507 569 l 378 569 q 280 561 313 569 q 239 542 247 553 q 231 507 231 530 q 236 481 231 492 q 256 457 241 469 q 302 439 270 446 q 382 432 334 432 l 566 432 l 566 290 l 382 290 q 307 283 338 290 q 260 265 275 276 q 237 243 244 254 q 231 220 231 232 l 231 210 q 235 185 231 197 q 254 158 240 173 q 299 134 267 143 q 378 125 331 125 l 445 125 q 521 134 488 125 q 569 152 554 142 q 600 175 584 161 l 694 68 q 445 -17 596 -17 l 378 -17 m 360 718 l 265 809 l 440 994 l 535 902 l 360 718 z "},"ή":{"ha":833,"x_min":88,"x_max":745,"o":"m 410 569 q 341 554 373 569 q 290 518 310 539 q 256 473 271 497 q 236 430 242 448 q 231 401 231 411 l 231 0 l 88 0 l 88 694 l 231 694 l 231 650 q 410 711 317 711 l 425 711 q 539 701 488 711 q 623 674 591 690 q 680 635 656 659 q 716 592 704 612 q 735 547 728 571 q 744 508 743 522 q 745 478 745 493 l 745 -261 l 603 -261 l 603 478 q 601 501 603 492 q 589 525 600 511 q 562 547 579 538 q 509 563 544 556 q 425 569 474 569 l 410 569 m 393 716 l 298 808 l 473 992 l 568 901 l 393 716 z "},"ί":{"ha":833,"x_min":159,"x_max":674,"o":"m 300 709 l 205 801 l 380 985 l 475 894 l 300 709 z "},"ΰ":{"ha":833,"x_min":62,"x_max":745,"o":"m 361 906 l 266 998 l 441 1182 l 536 1090 l 361 906 z "},"α":{"ha":833,"x_min":88,"x_max":768,"o":"m 231 337 q 265 188 231 250 q 342 125 300 125 l 355 125 q 402 144 385 125 q 434 201 418 162 l 490 348 l 434 493 q 400 554 416 539 q 355 569 383 569 l 342 569 q 310 557 328 569 q 273 521 292 545 q 243 455 255 498 q 231 358 231 412 l 231 337 m 355 711 q 386 710 371 711 q 429 699 401 708 q 478 673 456 689 q 525 624 500 656 q 566 546 550 591 l 633 720 l 766 669 l 643 349 l 768 26 l 635 -26 l 567 151 q 538 92 553 117 q 498 40 523 66 q 437 -2 473 13 q 355 -17 400 -17 l 342 -17 q 215 31 273 -17 q 122 159 156 78 q 88 337 88 241 l 88 358 q 110 508 88 440 q 166 620 131 576 q 248 688 202 664 q 342 711 293 711 l 355 711 z "},"β":{"ha":833,"x_min":88,"x_max":745,"o":"m 88 421 q 110 530 88 478 q 172 623 132 582 q 274 687 212 663 q 411 711 336 711 l 427 711 q 549 698 496 711 q 633 664 602 684 q 683 615 663 644 q 708 563 702 587 q 715 511 715 538 l 715 502 q 671 385 715 430 q 745 229 745 328 l 745 213 q 663 42 745 100 q 439 -17 580 -17 l 405 -17 q 231 22 304 -17 l 231 -218 l 88 -218 l 88 421 m 572 511 q 534 556 572 543 q 427 569 496 569 l 411 569 q 277 526 323 569 q 231 421 231 483 l 231 239 q 240 203 231 222 q 268 167 249 185 q 323 137 287 149 q 405 125 359 125 l 439 125 q 603 213 603 125 l 603 229 q 597 258 603 247 q 576 280 591 270 q 529 295 560 290 q 450 300 498 300 l 326 300 l 326 442 l 420 442 q 461 444 441 442 q 510 451 481 446 q 555 469 538 456 q 572 502 572 482 l 572 511 z "},"γ":{"ha":833,"x_min":71,"x_max":764,"o":"m 346 -261 l 346 40 l 71 694 l 225 694 l 417 238 l 609 694 l 764 694 l 488 40 l 488 -261 l 346 -261 z "},"δ":{"ha":833,"x_min":88,"x_max":745,"o":"m 231 376 l 231 326 q 283 186 231 248 q 410 125 336 125 l 425 125 q 498 139 466 125 q 550 173 530 152 q 581 221 569 193 q 598 274 593 248 q 603 326 603 299 l 603 376 q 598 427 603 402 q 581 479 593 452 q 550 525 569 505 q 498 556 530 544 q 425 569 466 569 l 410 569 q 336 556 368 569 q 284 524 304 543 q 253 477 265 504 q 235 426 240 451 q 231 376 231 401 m 112 949 l 674 949 l 674 807 l 376 807 l 589 671 q 705 550 664 629 q 745 376 745 471 l 745 326 q 708 153 745 231 q 596 30 670 76 q 425 -17 523 -17 l 410 -17 q 284 12 344 -17 q 181 87 224 40 q 113 197 138 134 q 88 326 88 259 l 88 376 q 142 571 88 486 q 292 692 195 657 l 112 807 l 112 949 z "},"ε":{"ha":833,"x_min":88,"x_max":699,"o":"m 378 -17 q 274 -6 321 -17 q 198 21 227 5 q 146 60 168 37 q 114 103 125 83 q 97 148 103 123 q 89 184 90 172 q 88 210 88 197 l 88 220 q 153 359 88 301 q 111 417 127 380 q 92 473 95 454 q 88 507 89 492 q 104 591 88 554 q 145 650 119 627 q 210 686 172 672 q 289 706 248 701 q 378 711 329 711 l 445 711 q 602 687 537 711 q 699 631 666 663 l 600 528 q 546 555 585 542 q 445 569 507 569 l 378 569 q 280 561 313 569 q 239 542 247 553 q 231 507 231 530 q 236 481 231 492 q 256 457 241 469 q 302 439 270 446 q 382 432 334 432 l 566 432 l 566 290 l 382 290 q 307 283 338 290 q 260 265 275 276 q 237 243 244 254 q 231 220 231 232 l 231 210 q 235 185 231 197 q 254 158 240 173 q 299 134 267 143 q 378 125 331 125 l 445 125 q 521 134 488 125 q 569 152 554 142 q 600 175 584 161 l 694 68 q 445 -17 596 -17 l 378 -17 z "},"ζ":{"ha":833,"x_min":88,"x_max":745,"o":"m 378 -17 q 275 -6 321 -17 q 199 20 229 4 q 148 59 170 35 q 115 105 126 83 q 97 154 104 126 q 90 199 91 181 q 88 237 88 216 l 88 250 q 145 394 88 325 q 298 498 203 463 l 484 566 q 323 635 411 587 l 302 648 l 370 772 l 405 753 q 457 727 435 737 q 535 706 480 718 q 654 694 591 694 l 745 694 l 745 566 l 726 551 q 532 432 610 460 l 347 363 q 289 334 314 351 q 253 299 264 316 q 236 270 241 282 q 231 250 231 257 l 231 237 q 235 196 231 212 q 252 162 239 180 q 297 135 266 144 q 378 125 329 125 l 482 125 q 592 113 544 125 q 668 81 640 100 q 714 36 696 62 q 739 -15 732 9 q 745 -64 745 -39 l 745 -79 q 679 -218 745 -166 q 494 -271 612 -271 l 418 -271 l 418 -128 l 494 -128 q 603 -79 603 -128 l 603 -64 q 588 -38 603 -48 q 550 -23 574 -27 q 512 -18 527 -19 q 482 -17 497 -17 l 378 -17 z "},"η":{"ha":833,"x_min":88,"x_max":745,"o":"m 410 569 q 341 554 373 569 q 290 518 310 539 q 256 473 271 497 q 236 430 242 448 q 231 401 231 411 l 231 0 l 88 0 l 88 694 l 231 694 l 231 650 q 410 711 317 711 l 425 711 q 539 701 488 711 q 623 674 591 690 q 680 635 656 659 q 716 592 704 612 q 735 547 728 571 q 744 508 743 522 q 745 478 745 493 l 745 -261 l 603 -261 l 603 478 q 601 501 603 492 q 589 525 600 511 q 562 547 579 538 q 509 563 544 556 q 425 569 474 569 l 410 569 z "},"θ":{"ha":833,"x_min":88,"x_max":745,"o":"m 434 568 l 398 568 q 287 528 330 568 q 233 418 243 487 l 600 418 q 552 526 591 483 q 434 568 513 568 m 745 379 l 745 321 q 659 75 745 168 q 431 -17 573 -17 l 399 -17 q 174 78 260 -17 q 88 321 88 173 l 88 378 q 174 616 88 522 q 398 711 260 711 l 434 711 q 660 619 574 711 q 745 379 745 528 m 600 276 l 234 276 q 288 166 245 207 q 399 125 330 125 l 431 125 q 551 168 511 125 q 600 276 591 210 z "},"ι":{"ha":833,"x_min":159,"x_max":674,"o":"m 207 694 l 489 694 l 489 142 l 674 142 l 674 0 l 159 0 l 159 142 l 347 142 l 347 552 l 207 552 l 207 694 z "},"κ":{"ha":833,"x_min":88,"x_max":802,"o":"m 231 0 l 88 0 l 88 694 l 231 694 l 231 282 l 623 694 l 726 597 l 460 317 l 802 0 q 592 0 802 0 l 361 214 l 231 75 l 231 0 z "},"λ":{"ha":833,"x_min":77,"x_max":757,"o":"m 77 0 l 350 645 l 229 956 l 380 956 l 757 0 q 603 0 757 0 l 423 453 l 231 0 q 77 0 231 0 z "},"μ":{"ha":833,"x_min":43,"x_max":760,"o":"m 745 87 q 746 62 745 71 q 749 45 746 54 q 760 31 753 35 l 677 -85 q 606 40 616 -42 q 425 -17 519 -17 l 410 -17 q 231 28 308 -17 l 231 -17 q 217 -163 231 -111 q 160 -277 204 -215 l 43 -195 q 80 -122 73 -153 q 88 -17 88 -91 l 88 694 l 231 694 l 231 275 q 276 169 231 212 q 410 125 322 125 l 425 125 q 507 144 471 125 q 563 188 544 162 q 593 237 583 214 q 603 275 603 260 l 603 694 l 745 694 l 745 87 z "},"ν":{"ha":833,"x_min":53,"x_max":783,"o":"m 372 -17 l 53 694 l 209 694 l 418 229 l 627 694 l 783 694 l 464 -17 l 372 -17 z "},"ξ":{"ha":833,"x_min":89,"x_max":745,"o":"m 378 -17 q 273 -7 320 -17 q 197 18 227 3 q 146 55 168 33 q 114 95 124 77 q 97 136 103 114 q 90 171 91 159 q 89 195 89 182 l 89 205 q 161 350 89 293 q 122 388 138 366 q 100 431 106 410 q 91 465 94 452 q 89 485 89 477 l 89 502 q 109 571 89 538 q 157 626 130 604 q 219 666 184 648 q 276 692 254 684 q 313 704 298 700 l 349 713 q 300 747 321 729 q 271 776 279 764 l 258 795 l 376 875 l 389 856 q 436 824 402 836 q 548 802 469 811 l 581 798 l 581 654 l 572 648 q 446 595 530 620 l 345 566 q 254 532 277 545 q 231 502 231 518 l 231 485 q 287 440 231 461 q 413 419 342 419 l 590 419 l 590 277 l 413 277 q 323 270 361 277 q 267 252 286 263 q 239 229 248 240 q 231 205 231 218 l 231 195 q 232 176 231 184 q 242 158 234 168 q 266 141 251 147 q 310 130 281 135 q 378 125 338 125 l 482 125 q 592 113 544 125 q 668 81 640 100 q 714 36 696 62 q 739 -15 732 9 q 745 -64 745 -39 l 745 -79 q 674 -217 745 -164 q 494 -271 604 -271 l 418 -271 l 418 -128 l 494 -128 q 567 -116 531 -128 q 603 -79 603 -104 l 603 -64 q 588 -38 603 -48 q 550 -23 574 -27 q 512 -18 527 -19 q 482 -17 497 -17 l 378 -17 z "},"ο":{"ha":833,"x_min":88,"x_max":745,"o":"m 434 568 l 398 568 q 231 378 231 568 l 231 328 q 399 125 231 125 l 431 125 q 558 173 514 125 q 603 328 603 221 l 603 379 q 434 568 603 568 m 745 379 l 745 328 q 726 192 745 254 q 669 82 707 130 q 571 9 631 35 q 431 -17 510 -17 l 399 -17 q 262 10 322 -17 q 164 84 201 37 q 107 194 126 132 q 88 328 88 256 l 88 378 q 168 620 88 528 q 398 711 248 711 l 434 711 q 665 620 584 711 q 745 379 745 528 z "},"π":{"ha":833,"x_min":49,"x_max":785,"o":"m 49 655 q 262 694 144 694 l 573 694 q 785 769 706 694 l 785 599 q 678 563 736 574 l 678 168 q 710 96 678 140 q 785 14 743 51 l 785 0 l 604 0 q 536 168 536 91 l 536 552 l 284 552 l 284 168 q 230 0 284 85 l 49 0 l 49 7 q 115 87 89 40 q 142 168 142 134 l 142 536 q 49 494 88 522 l 49 655 z "},"ρ":{"ha":833,"x_min":88,"x_max":745,"o":"m 425 -17 l 410 -17 q 231 31 308 -17 l 231 -261 l 88 -261 l 88 401 q 172 624 88 537 q 410 711 256 711 l 425 711 q 587 672 513 711 q 703 562 660 633 q 745 401 745 490 l 745 313 q 709 146 745 220 q 598 28 672 73 q 425 -17 525 -17 m 603 313 l 603 401 q 552 523 603 477 q 425 569 502 569 l 410 569 q 272 524 314 569 q 231 401 231 478 l 231 313 q 239 249 231 279 q 266 190 248 219 q 322 143 285 161 q 410 125 359 125 l 425 125 q 513 143 476 125 q 568 189 549 160 q 595 249 587 218 q 603 313 603 279 z "},"ς":{"ha":833,"x_min":88,"x_max":745,"o":"m 603 -64 q 588 -38 603 -48 q 550 -23 574 -27 q 512 -18 527 -19 q 482 -17 497 -17 l 378 -17 q 170 77 252 -17 q 88 319 88 170 l 88 382 q 116 504 88 445 q 191 609 143 564 q 309 683 239 655 q 460 711 380 711 l 503 711 q 690 654 584 711 l 733 631 l 665 506 l 618 531 q 561 555 596 543 q 503 568 526 568 l 460 568 q 295 511 359 568 q 231 382 231 453 l 231 319 q 271 178 231 231 q 378 125 311 125 l 482 125 q 592 113 544 125 q 668 81 640 100 q 714 36 696 62 q 739 -15 732 9 q 745 -64 745 -39 l 745 -79 q 674 -217 745 -164 q 494 -271 604 -271 l 418 -271 l 418 -128 l 494 -128 q 525 -126 509 -128 q 560 -120 541 -125 q 591 -104 579 -115 q 603 -79 603 -94 l 603 -64 z "},"σ":{"ha":833,"x_min":88,"x_max":779,"o":"m 433 568 l 397 568 q 275 516 319 568 q 231 378 231 463 l 231 334 q 277 184 231 243 q 398 125 323 125 l 431 125 q 555 184 508 125 q 603 334 603 243 l 603 379 q 557 516 603 463 q 433 568 511 568 m 745 379 l 745 334 q 707 158 745 237 q 595 31 668 78 q 431 -17 523 -17 l 398 -17 q 236 31 307 -17 q 126 158 165 78 q 88 334 88 238 l 88 378 q 174 617 88 523 q 397 711 259 711 l 433 711 q 564 684 504 711 l 779 684 l 779 542 l 709 542 q 745 379 745 468 z "},"τ":{"ha":833,"x_min":88,"x_max":745,"o":"m 294 694 l 535 694 q 631 730 572 694 q 745 812 690 765 l 745 633 q 535 552 624 552 l 489 552 l 489 250 q 461 115 489 185 q 386 -17 433 45 l 184 -17 q 293 100 239 16 q 347 250 347 184 l 347 552 l 294 552 q 198 528 255 552 q 88 469 140 503 l 88 633 q 294 694 207 694 z "},"υ":{"ha":833,"x_min":88,"x_max":745,"o":"m 451 712 q 583 686 525 712 q 675 613 640 659 q 728 507 710 566 q 745 379 745 448 l 745 324 q 705 153 745 231 q 591 29 664 75 q 427 -17 517 -17 l 408 -17 q 287 3 341 -17 q 196 58 232 24 q 135 140 159 93 q 99 239 110 187 q 88 348 88 291 l 88 694 l 231 694 l 231 348 q 235 286 231 315 q 251 226 239 256 q 282 174 263 196 q 333 139 301 153 q 408 125 366 125 l 427 125 q 554 183 505 125 q 603 324 603 241 l 603 379 q 451 570 603 570 l 371 570 l 371 712 l 451 712 z "},"φ":{"ha":833,"x_min":88,"x_max":745,"o":"m 347 488 q 358 581 347 540 q 388 645 370 621 q 430 685 406 669 q 476 706 454 701 q 521 711 498 711 l 536 711 q 687 616 629 711 q 745 375 745 522 l 745 342 q 730 220 745 278 q 686 111 715 161 q 606 28 656 61 q 489 -14 555 -5 l 489 -261 l 347 -261 l 347 -14 q 247 16 291 -7 q 173 73 202 39 q 124 151 144 106 q 97 241 105 195 q 88 340 88 288 l 88 640 l 231 640 l 231 340 q 347 130 231 158 l 347 488 m 521 569 q 508 563 514 569 q 495 537 501 556 q 489 488 489 517 l 489 132 q 603 342 602 162 l 603 375 q 581 512 603 454 q 536 569 559 569 l 521 569 z "},"χ":{"ha":833,"x_min":29,"x_max":823,"o":"m 57 -261 l 337 214 l 288 355 q 227 481 264 422 q 161 568 190 541 l 29 694 l 236 694 l 258 673 q 351 551 306 628 q 422 402 396 475 l 431 375 l 619 694 l 784 694 l 494 199 l 513 144 q 662 -159 610 -124 l 798 -251 q 801 -253 798 -252 q 811 -256 804 -254 q 823 -261 817 -258 l 564 -261 q 398 37 471 -174 l 222 -261 l 57 -261 z "},"ψ":{"ha":833,"x_min":88,"x_max":745,"o":"m 498 125 q 567 192 532 125 q 603 348 603 258 l 603 640 l 745 640 l 745 348 q 724 198 745 268 q 668 82 703 129 q 589 9 633 36 q 498 -17 545 -17 l 489 -17 l 489 -261 l 347 -261 l 347 -17 l 336 -17 q 246 3 286 -17 q 179 57 205 24 q 135 130 153 91 q 106 212 116 169 q 92 288 96 255 q 88 348 88 321 l 88 640 l 231 640 l 231 348 q 245 247 231 299 q 285 160 260 195 q 336 125 310 125 l 347 125 l 347 710 l 489 710 l 489 125 l 498 125 z "},"ω":{"ha":833,"x_min":88,"x_max":745,"o":"m 277 -17 q 229 -9 253 -17 q 178 17 204 -2 q 133 63 153 35 q 101 136 113 91 q 88 237 88 181 l 88 488 q 107 594 88 538 q 150 683 127 650 l 157 694 l 331 694 l 264 599 q 242 548 254 585 q 231 488 231 511 l 231 237 q 245 157 231 188 q 277 125 260 125 l 292 125 q 312 127 304 125 q 329 136 320 130 q 342 158 338 143 q 347 198 347 174 l 347 486 l 489 486 l 489 198 q 537 125 489 125 l 554 125 q 590 149 576 125 q 603 237 603 172 l 603 488 q 593 552 603 521 q 572 597 583 583 l 495 694 l 677 694 l 681 689 q 730 589 715 646 q 745 488 745 532 l 745 237 q 728 120 745 170 q 687 45 710 70 q 634 5 664 20 q 586 -14 604 -10 q 554 -17 568 -17 l 537 -17 q 419 24 468 -17 q 292 -17 368 -17 l 277 -17 z "},"ϊ":{"ha":833,"x_min":144,"x_max":691,"o":"m 207 694 l 489 694 l 489 142 l 674 142 l 674 0 l 159 0 l 159 142 l 347 142 l 347 552 l 207 552 l 207 694 m 345 852 q 315 778 345 810 q 245 747 286 747 q 174 778 204 747 q 144 852 144 808 q 175 925 144 897 q 244 953 205 953 q 315 923 286 953 q 345 852 345 892 m 691 852 q 661 777 691 807 q 592 747 631 747 q 522 778 552 747 q 492 852 492 809 q 522 924 492 895 q 592 953 551 953 q 661 924 631 953 q 691 852 691 896 z "},"ϋ":{"ha":833,"x_min":62,"x_max":745,"o":"m 451 712 q 583 686 525 712 q 675 613 640 659 q 728 507 710 566 q 745 379 745 448 l 745 324 q 705 153 745 231 q 591 29 664 75 q 427 -17 517 -17 l 408 -17 q 287 3 341 -17 q 196 58 232 24 q 135 140 159 93 q 99 239 110 187 q 88 348 88 291 l 88 694 l 231 694 l 231 348 q 235 286 231 315 q 251 226 239 256 q 282 174 263 196 q 333 139 301 153 q 408 125 366 125 l 427 125 q 554 183 505 125 q 603 324 603 241 l 603 379 q 451 570 603 570 l 371 570 l 371 712 l 451 712 m 262 852 q 233 778 262 810 q 163 747 203 747 q 92 778 122 747 q 62 852 62 808 q 93 925 62 897 q 162 953 123 953 q 233 923 204 953 q 262 852 262 892 m 609 852 q 579 777 609 807 q 510 747 549 747 q 440 778 470 747 q 410 852 410 809 q 440 924 410 895 q 510 953 469 953 q 579 924 549 953 q 609 852 609 896 z "},"ό":{"ha":833,"x_min":88,"x_max":745,"o":"m 434 568 l 398 568 q 231 378 231 568 l 231 328 q 399 125 231 125 l 431 125 q 558 173 514 125 q 603 328 603 221 l 603 379 q 434 568 603 568 m 745 379 l 745 328 q 726 192 745 254 q 669 82 707 130 q 571 9 631 35 q 431 -17 510 -17 l 399 -17 q 262 10 322 -17 q 164 84 201 37 q 107 194 126 132 q 88 328 88 256 l 88 378 q 168 620 88 528 q 398 711 248 711 l 434 711 q 665 620 584 711 q 745 379 745 528 m 368 709 l 273 801 l 448 985 l 543 894 l 368 709 z "},"ύ":{"ha":833,"x_min":88,"x_max":745,"o":"m 451 712 q 583 686 525 712 q 675 613 640 659 q 728 507 710 566 q 745 379 745 448 l 745 324 q 705 153 745 231 q 591 29 664 75 q 427 -17 517 -17 l 408 -17 q 287 3 341 -17 q 196 58 232 24 q 135 140 159 93 q 99 239 110 187 q 88 348 88 291 l 88 694 l 231 694 l 231 348 q 235 286 231 315 q 251 226 239 256 q 282 174 263 196 q 333 139 301 153 q 408 125 366 125 l 427 125 q 554 183 505 125 q 603 324 603 241 l 603 379 q 451 570 603 570 l 371 570 l 371 712 l 451 712 m 361 709 l 266 801 l 441 985 l 536 894 l 361 709 z "},"ώ":{"ha":833,"x_min":88,"x_max":745,"o":"m 277 -17 q 229 -9 253 -17 q 178 17 204 -2 q 133 63 153 35 q 101 136 113 91 q 88 237 88 181 l 88 488 q 107 594 88 538 q 150 683 127 650 l 157 694 l 331 694 l 264 599 q 242 548 254 585 q 231 488 231 511 l 231 237 q 245 157 231 188 q 277 125 260 125 l 292 125 q 312 127 304 125 q 329 136 320 130 q 342 158 338 143 q 347 198 347 174 l 347 486 l 489 486 l 489 198 q 537 125 489 125 l 554 125 q 590 149 576 125 q 603 237 603 172 l 603 488 q 593 552 603 521 q 572 597 583 583 l 495 694 l 677 694 l 681 689 q 730 589 715 646 q 745 488 745 532 l 745 237 q 728 120 745 170 q 687 45 710 70 q 634 5 664 20 q 586 -14 604 -10 q 554 -17 568 -17 l 537 -17 q 419 24 468 -17 q 292 -17 368 -17 l 277 -17 m 361 709 l 266 801 l 441 985 l 536 894 l 361 709 z "},"Ϝ":{"ha":833,"x_min":88,"x_max":745,"o":"m 231 450 l 231 -17 l 88 -17 l 88 949 l 745 949 l 745 807 l 231 807 l 231 592 l 636 592 l 636 450 l 231 450 z "},"ϲ":{"ha":833,"x_min":88,"x_max":745,"o":"m 603 -64 q 588 -38 603 -48 q 550 -23 574 -27 q 512 -18 527 -19 q 482 -17 497 -17 l 378 -17 q 170 77 252 -17 q 88 319 88 170 l 88 382 q 116 504 88 445 q 191 609 143 564 q 309 683 239 655 q 460 711 380 711 l 503 711 q 690 654 584 711 l 733 631 l 665 506 l 618 531 q 561 555 596 543 q 503 568 526 568 l 460 568 q 295 511 359 568 q 231 382 231 453 l 231 319 q 271 178 231 231 q 378 125 311 125 l 482 125 q 592 113 544 125 q 668 81 640 100 q 714 36 696 62 q 739 -15 732 9 q 745 -64 745 -39 l 745 -79 q 674 -217 745 -164 q 494 -271 604 -271 l 418 -271 l 418 -128 l 494 -128 q 525 -126 509 -128 q 560 -120 541 -125 q 591 -104 579 -115 q 603 -79 603 -94 l 603 -64 z "},"ϳ":{"ha":833,"x_min":204,"x_max":661,"o":"m 661 -47 q 601 -207 661 -143 q 431 -271 541 -271 q 204 -47 225 -271 l 347 -47 q 374 -105 351 -82 q 431 -128 398 -128 q 492 -105 467 -128 q 518 -47 518 -81 l 518 552 l 292 552 l 292 694 l 661 694 l 661 -47 m 469 804 q 454 819 469 804 q 439 880 439 835 q 469 955 439 924 q 545 986 500 986 q 621 955 589 986 q 652 880 652 924 q 621 804 652 835 q 545 773 589 773 q 469 804 500 773 z "},"Ѐ":{"ha":833,"x_min":88,"x_max":745,"o":"m 543 1029 l 448 937 l 273 1122 l 368 1213 l 543 1029 z "},"Ё":{"ha":833,"x_min":88,"x_max":745,"o":"m 344 1080 q 314 1006 344 1038 q 244 975 285 975 q 174 1005 203 975 q 144 1080 144 1036 q 174 1153 144 1124 q 243 1181 204 1181 q 315 1151 286 1181 q 344 1080 344 1120 m 690 1080 q 660 1005 690 1035 q 591 975 630 975 q 522 1006 551 975 q 492 1080 492 1037 q 521 1152 492 1122 q 591 1181 551 1181 q 660 1152 630 1181 q 690 1080 690 1124 z "},"Ђ":{"ha":833,"x_min":88,"x_max":745,"o":"m 510 524 q 478 508 498 524 q 437 464 458 492 q 401 389 416 436 q 386 288 386 341 l 386 0 l 243 0 l 243 807 l 88 807 l 88 949 l 745 949 l 745 807 l 386 807 l 386 615 q 510 666 436 658 l 527 666 q 681 602 616 666 q 745 434 745 538 l 745 268 q 736 173 745 216 q 713 104 727 131 q 681 56 700 77 q 645 25 662 36 q 607 9 627 15 q 574 1 587 3 q 551 0 562 0 l 484 0 l 484 142 l 551 142 q 589 174 575 142 q 602 268 602 206 l 602 434 q 600 461 602 448 q 589 489 597 474 q 566 514 582 505 q 527 524 550 524 l 510 524 z "},"Ѓ":{"ha":833,"x_min":88,"x_max":745,"o":"m 88 0 l 88 949 l 745 949 l 745 807 l 231 807 l 231 0 l 88 0 m 427 938 l 332 1029 l 507 1214 l 602 1122 l 427 938 z "},"Є":{"ha":833,"x_min":88,"x_max":721,"o":"m 454 573 l 454 431 l 231 431 q 280 201 235 277 q 413 125 324 125 l 424 125 q 512 151 476 126 q 572 238 549 176 l 706 189 q 600 39 671 94 q 424 -17 529 -16 l 413 -17 q 354 -13 382 -17 q 292 5 326 -8 q 230 41 258 19 q 175 100 202 62 q 130 186 149 137 q 100 306 111 235 q 88 464 88 377 l 88 506 q 94 623 88 570 q 112 731 99 677 q 150 826 125 785 q 209 900 174 867 q 295 949 243 932 q 412 966 347 966 l 424 966 q 515 956 472 966 q 598 921 557 945 q 671 852 639 897 q 721 746 703 808 l 584 705 q 528 795 566 766 q 424 824 491 824 l 412 824 q 282 767 324 824 q 232 573 239 711 l 454 573 z "},"Ѕ":{"ha":833,"x_min":87,"x_max":745,"o":"m 410 125 l 425 125 q 486 132 458 125 q 532 150 514 139 q 563 174 549 161 q 584 201 577 187 q 596 225 591 214 q 602 243 601 236 l 603 250 l 603 269 q 512 384 603 352 l 271 469 q 207 506 234 481 q 166 555 180 530 q 144 611 152 580 q 134 661 136 642 q 132 701 132 681 l 132 719 q 152 806 132 762 q 205 885 171 849 q 295 944 240 921 q 416 966 351 966 l 422 966 q 613 928 536 966 q 724 819 690 890 l 595 758 q 422 824 563 824 l 416 824 q 349 812 378 824 q 305 783 320 801 q 282 749 290 766 q 275 719 275 732 l 275 701 q 289 638 275 668 q 318 603 304 608 l 561 518 q 626 487 595 506 q 684 439 656 468 q 729 366 712 410 q 745 269 745 322 l 745 250 q 736 187 745 220 q 704 117 727 154 q 646 51 680 80 q 553 2 611 22 q 425 -17 496 -17 l 410 -17 q 181 63 276 -17 q 87 250 87 142 l 229 250 q 280 166 229 206 q 410 125 332 125 z "},"І":{"ha":833,"x_min":156,"x_max":677,"o":"m 677 949 l 677 807 l 489 807 l 489 142 l 677 142 l 677 0 l 156 0 l 156 142 l 347 142 l 347 807 l 156 807 l 156 949 l 677 949 z "},"Ї":{"ha":833,"x_min":144,"x_max":691,"o":"m 677 949 l 677 807 l 489 807 l 489 142 l 677 142 l 677 0 l 156 0 l 156 142 l 347 142 l 347 807 l 156 807 l 156 949 l 677 949 m 345 1081 q 315 1007 345 1039 q 245 976 286 976 q 174 1007 204 976 q 144 1081 144 1038 q 175 1154 144 1126 q 244 1182 205 1182 q 315 1152 286 1182 q 345 1081 345 1122 m 691 1081 q 661 1006 691 1036 q 592 976 631 976 q 522 1007 552 976 q 492 1081 492 1038 q 522 1153 492 1124 q 592 1182 551 1182 q 661 1154 631 1182 q 691 1081 691 1125 z "},"Ј":{"ha":833,"x_min":68,"x_max":745,"o":"m 745 949 l 745 807 l 608 807 l 608 250 q 535 58 608 132 q 342 -17 463 -17 l 327 -17 q 165 18 229 -17 q 68 127 102 52 l 198 185 q 218 154 207 165 q 257 134 230 142 q 327 125 284 125 l 342 125 q 404 137 378 125 q 442 167 429 148 q 460 207 455 186 q 466 250 466 227 l 466 807 l 274 807 l 274 949 l 745 949 z "},"Љ":{"ha":833,"x_min":46,"x_max":745,"o":"m 488 456 l 488 142 l 496 142 q 574 174 545 142 q 603 288 603 206 l 603 337 q 496 456 603 456 l 488 456 m 153 736 q 164 784 156 759 q 186 840 172 810 q 220 894 201 870 q 269 933 239 918 q 332 949 298 949 l 488 949 l 488 599 l 496 599 q 678 527 610 599 q 745 337 745 456 l 745 288 q 677 75 745 151 q 496 0 609 0 l 346 0 l 346 807 l 332 807 q 321 799 328 807 q 306 768 314 790 q 294 717 298 747 l 190 0 l 46 0 l 153 736 z "},"Њ":{"ha":833,"x_min":88,"x_max":745,"o":"m 503 599 q 526 598 513 599 q 564 591 539 597 q 611 575 589 585 q 659 545 633 565 q 703 499 684 526 q 733 430 721 472 q 745 337 745 389 l 745 288 q 678 80 745 160 q 502 0 611 0 l 346 0 l 346 456 l 231 456 l 231 0 l 88 0 l 88 949 l 231 949 l 231 599 l 346 599 l 346 949 l 488 949 l 488 599 l 503 599 m 603 337 q 596 392 603 369 q 579 427 589 415 q 555 446 570 439 q 529 455 541 453 q 503 456 517 456 l 488 456 l 488 142 l 502 142 q 542 151 524 142 q 570 173 560 159 q 588 203 581 188 q 598 236 595 218 q 602 266 601 254 q 603 288 603 277 l 603 337 z "},"Ћ":{"ha":833,"x_min":88,"x_max":745,"o":"m 500 569 q 463 555 484 569 q 420 515 441 541 q 385 442 399 488 q 370 338 370 395 l 370 0 l 228 0 l 228 807 l 88 807 l 88 949 l 745 949 l 745 807 l 370 807 l 370 663 q 500 711 434 711 l 517 711 q 680 650 614 711 q 745 491 745 589 l 745 0 l 603 0 l 603 491 q 602 506 603 498 q 596 526 601 513 q 582 547 591 538 q 557 562 574 555 q 517 569 540 569 l 500 569 z "},"Ќ":{"ha":833,"x_min":87,"x_max":806,"o":"m 345 938 l 250 1029 l 425 1214 l 519 1122 l 345 938 z "},"Ѝ":{"ha":833,"x_min":88,"x_max":745,"o":"m 88 0 l 88 949 l 231 949 l 231 307 l 624 949 l 745 949 l 745 0 l 603 0 l 603 642 l 210 0 q 88 0 210 0 m 587 1029 l 492 938 l 317 1122 l 412 1214 l 587 1029 z "},"Ў":{"ha":833,"x_min":51,"x_max":789,"o":"m 489 135 q 412 22 462 61 q 270 -17 362 -17 l 244 -17 q 144 12 181 -17 l 117 33 l 201 146 l 226 129 q 244 125 231 125 l 269 125 q 326 139 309 125 q 355 184 342 153 l 400 305 l 51 949 l 213 949 l 465 483 l 638 949 l 789 949 l 489 135 m 430 994 q 322 1019 373 994 q 235 1088 272 1044 l 313 1154 q 430 1096 361 1096 q 550 1154 500 1096 l 627 1089 q 539 1020 590 1045 q 430 994 488 994 z "},"Џ":{"ha":833,"x_min":88,"x_max":745,"o":"m 231 142 l 603 142 l 603 949 l 745 949 l 745 0 l 489 0 l 489 -261 l 347 -261 l 347 0 l 88 0 l 88 949 l 231 949 l 231 142 z "},"А":{"ha":833,"x_min":59,"x_max":777,"o":"m 302 300 l 534 300 l 418 665 l 302 300 m 59 0 l 364 966 l 471 966 l 777 0 l 629 0 l 579 158 l 257 158 l 207 0 l 59 0 z "},"Б":{"ha":833,"x_min":88,"x_max":745,"o":"m 400 592 q 650 520 555 592 q 745 330 745 448 l 745 269 q 724 171 745 218 q 663 85 703 123 q 554 23 622 46 q 400 0 486 0 l 88 0 l 88 949 l 674 949 l 674 807 l 231 807 l 231 592 l 400 592 m 231 450 l 231 142 l 400 142 q 470 149 437 142 q 535 169 504 155 q 584 208 566 182 q 603 269 603 234 l 603 330 q 548 417 603 385 q 400 450 493 450 l 231 450 z "},"В":{"ha":833,"x_min":88,"x_max":745,"o":"m 557 739 q 548 779 557 766 q 500 800 538 792 q 380 807 461 807 l 231 807 l 231 592 l 380 592 q 465 597 431 592 q 517 611 498 603 q 544 633 535 618 q 555 661 553 648 q 557 694 557 673 l 557 739 m 603 330 q 594 383 603 361 q 572 418 586 405 q 534 438 557 431 q 485 447 510 445 q 425 450 460 450 l 231 450 l 231 142 l 425 142 q 507 149 472 142 q 559 165 541 156 q 588 189 577 175 q 601 214 598 203 q 603 237 603 224 l 603 330 m 745 237 q 744 210 745 224 q 736 172 743 197 q 717 126 729 147 q 681 80 705 104 q 624 39 656 56 q 540 11 591 22 q 425 0 489 0 l 88 0 l 88 949 l 380 949 q 475 946 435 949 q 561 929 516 942 q 634 894 605 916 q 681 832 663 871 q 700 739 700 793 l 700 694 q 651 535 700 594 q 745 330 745 467 l 745 237 z "},"Г":{"ha":833,"x_min":88,"x_max":745,"o":"m 88 0 l 88 949 l 745 949 l 745 807 l 231 807 l 231 0 l 88 0 z "},"Д":{"ha":833,"x_min":56,"x_max":779,"o":"m 284 143 l 559 143 l 559 807 l 538 807 q 454 749 496 807 q 395 621 412 691 l 284 143 m 256 649 q 324 811 277 742 q 426 915 370 881 q 538 949 481 949 l 702 949 l 702 143 l 779 143 l 779 8 l 707 -110 l 636 -110 l 636 0 l 198 0 l 198 -110 l 127 -110 l 56 8 l 56 143 l 138 143 l 256 649 z "},"Е":{"ha":833,"x_min":88,"x_max":745,"o":"m 231 450 l 231 143 l 745 143 l 745 0 l 88 0 l 88 949 l 745 949 l 745 807 l 231 807 l 231 592 l 636 592 l 636 450 l 231 450 z "},"Ж":{"ha":833,"x_min":21,"x_max":814,"o":"m 21 0 l 208 487 l 25 949 l 178 949 l 347 522 l 347 916 l 489 916 l 489 522 l 656 949 l 810 949 l 627 486 l 814 0 q 661 0 814 0 l 551 289 l 489 132 l 489 0 q 347 0 489 0 l 347 132 l 285 290 l 174 0 q 21 0 174 0 z "}}}
